<?xml version="1.0" encoding="utf-8"?>
<!-- Generator: Adobe Illustrator 21.0.0, SVG Export Plug-In . SVG Version: 6.00 Build 0)  -->
<svg version="1.1" xmlns="http://www.w3.org/2000/svg" xmlns:xlink="http://www.w3.org/1999/xlink" x="0px" y="0px"
	 viewBox="0 0 20 20" style="enable-background:new 0 0 20 20;" xml:space="preserve">
<style type="text/css">
	.st0{fill:none;stroke:#59B663;stroke-miterlimit:10;}
	.st1{fill:#59B663;}
</style>
<g id="Layer_1">
	<circle class="st0" cx="10.1" cy="9.8" r="8.6"/>
	<g>
		<path class="st1" d="M7.9,11.1l-0.2-0.5H6.2L6,11.1H5.3l1.3-2.6h0.7l1.3,2.6H7.9z M7,9.1l-0.5,1h1L7,9.1z"/>
		<path class="st1" d="M11,8.7c0.2,0.1,0.4,0.3,0.5,0.5c0.1,0.2,0.2,0.4,0.2,0.7c0,0.3-0.1,0.5-0.2,0.7c-0.1,0.2-0.3,0.3-0.5,0.5
			c-0.2,0.1-0.5,0.2-0.8,0.2H9V8.5h1.2C10.5,8.5,10.8,8.6,11,8.7z M10.8,10.4c0.2-0.1,0.2-0.3,0.2-0.6c0-0.2,0-0.3-0.1-0.4
			c-0.1-0.1-0.2-0.2-0.3-0.3c-0.1-0.1-0.3-0.1-0.4-0.1H9.7v1.5h0.5C10.5,10.6,10.7,10.5,10.8,10.4z"/>
		<path class="st1" d="M14.3,8.7c0.2,0.1,0.4,0.3,0.5,0.5C14.9,9.4,15,9.6,15,9.8c0,0.3-0.1,0.5-0.2,0.7c-0.1,0.2-0.3,0.3-0.5,0.5
			c-0.2,0.1-0.5,0.2-0.8,0.2h-1.2V8.5h1.2C13.8,8.5,14,8.6,14.3,8.7z M14.1,10.4c0.2-0.1,0.2-0.3,0.2-0.6c0-0.2,0-0.3-0.1-0.4
			c-0.1-0.1-0.2-0.2-0.3-0.3c-0.1-0.1-0.3-0.1-0.4-0.1h-0.5v1.5h0.5C13.7,10.6,13.9,10.5,14.1,10.4z"/>
	</g>
</g>
<g id="Layer_2">
</g>
</svg>
