<svg id="Layer_1" data-name="Layer 1" xmlns="http://www.w3.org/2000/svg" viewBox="0 0 18.29 18.29"><defs><style>.cls-1{fill:#59b663;}.cls-2{fill:none;stroke:#59b663;stroke-miterlimit:10;}</style></defs><title>female</title><path class="cls-1" d="M7,10.8s-.12.09-.07.17,0,.28.42.39a7.72,7.72,0,0,0,1.24.36l0,.25-1.67.42a2.06,2.06,0,0,0-1.43,1.36,2.22,2.22,0,0,0-.14.74s0,.34.41.33h8.92s.39,0,.37-.32a2.89,2.89,0,0,0-.17-.83,2.37,2.37,0,0,0-1.25-1.25s0-.09-1.82-.43l-.06-.23a6.59,6.59,0,0,0,1.44-.42.28.28,0,0,0,.18-.44,3.26,3.26,0,0,1-.72-2l0-1.2s0-2.35-1.34-2.13c0,0-.54-1-2.15-.15A3,3,0,0,0,7.67,8a8.72,8.72,0,0,1-.12,1.43A3.4,3.4,0,0,1,7,10.8Z" transform="translate(-0.99 -0.84)"/><circle class="cls-2" cx="9.14" cy="9.14" r="8.64"/></svg>