<svg width="34" height="34" viewBox="0 0 34 34" fill="none" xmlns="http://www.w3.org/2000/svg">
<rect width="34" height="34" fill="white"/>
<path d="M25.7131 14.6636C25.7131 17.6386 21.8031 20.0186 16.9581 20.0186C12.1131 20.0186 8.20312 17.5961 8.20312 14.6636C8.20312 11.7311 12.1131 9.30859 16.9581 9.30859C21.8031 9.30859 25.7131 11.7311 25.7131 14.6636Z" fill="#231F20"/>
<path d="M25.7131 14.1519C25.7131 17.1269 21.8031 19.5069 16.9581 19.5069C12.1131 19.5069 8.20312 17.1269 8.20312 14.1519C8.20312 11.1769 12.1131 8.79688 16.9581 8.79688C21.8031 8.79688 25.7131 11.2194 25.7131 14.1519Z" fill="#EEEEEE"/>
<path d="M18.7428 15.0884C17.2978 13.4309 18.2753 12.1134 18.9128 11.6034C20.3578 10.4984 21.9303 9.94594 22.2278 9.86094C22.0578 9.77594 21.8878 9.69094 21.7178 9.64844C19.3378 10.3284 17.8503 11.4759 17.5953 11.6459C15.5553 12.9209 16.3628 14.3234 16.5328 14.6209C17.7228 16.7459 20.0603 18.8284 20.3578 19.0834C21.0803 18.9134 21.7178 18.6584 22.3553 18.4034C20.3578 17.0434 18.9978 15.4284 18.7428 15.0884Z" fill="#01A54C"/>
<path d="M16.9148 11.3897C17.9348 10.6247 20.6123 9.56219 20.9948 9.39219C20.7398 9.30719 20.5273 9.26469 20.2723 9.17969C18.4873 9.77469 16.2773 10.7522 14.8748 11.6872C13.3023 12.7497 13.3023 13.7697 13.7273 14.8747C14.5348 16.9572 16.4473 19.1672 16.7023 19.5072C16.7448 19.5072 16.7873 19.5072 16.8723 19.5072C17.6798 19.5072 18.4448 19.4647 19.2098 19.3372C17.3823 17.4672 15.9373 15.0872 15.8098 14.8322C14.8748 12.6222 16.2348 11.9422 16.9148 11.3897Z" fill="#CD4032"/>
<path d="M15.0026 11.2212C16.4476 10.2862 18.1476 9.56375 19.5076 9.05375C19.2951 9.01125 19.1251 8.96875 18.9126 8.96875C18.4876 9.09625 15.8526 9.81875 13.8126 10.9238C13.5151 11.0938 11.8576 11.9863 11.2626 13.0488C10.6676 14.1113 11.1776 15.3862 11.5601 16.2787C11.9851 17.1712 12.7076 18.3613 13.2176 19.0838C13.9401 19.2963 14.7476 19.4238 15.5551 19.5088C15.2151 19.0838 13.0901 16.3638 12.8351 14.6213C12.7501 14.0688 12.4951 12.7512 15.0026 11.2212Z" fill="#2C3A8B"/>
<path d="M5.1 22.78C5.6525 22.78 6.0775 22.78 6.0775 23.715C6.0775 24.65 5.7375 24.65 5.27 24.65H4.845V22.7375H5.1V22.78ZM4.25 22.3125V25.16H5.3125C5.4825 25.16 5.9925 25.16 6.2475 24.82C6.63 24.4375 6.63 23.9275 6.63 23.7575C6.63 23.205 6.46 22.9075 6.375 22.78C6.0775 22.3125 5.61 22.3125 5.27 22.3125H4.25Z" fill="#231F20"/>
<path d="M8.03313 22.7795C8.45813 22.7795 8.50063 22.7795 8.58563 22.822C8.71313 22.8645 8.79813 22.992 8.79813 23.1195C8.79813 23.417 8.50063 23.4595 8.33063 23.4595H7.69313V22.822H8.03313V22.7795ZM7.14062 22.312V25.1595H8.11813C8.71313 25.1595 8.92563 25.1595 9.09563 25.0745C9.39313 24.947 9.56313 24.607 9.56313 24.3095C9.56313 24.1395 9.52063 23.757 9.01063 23.6295C9.26563 23.502 9.43563 23.247 9.43563 22.992C9.43563 22.737 9.30813 22.5245 9.13813 22.4395C8.92563 22.312 8.71313 22.2695 8.33063 22.2695H7.14062V22.312ZM8.16063 23.927C8.58563 23.927 8.92563 23.927 8.92563 24.3095C8.92563 24.3945 8.88313 24.5645 8.67063 24.6495C8.58563 24.692 8.33063 24.692 8.20312 24.692H7.65063V23.927H8.16063Z" fill="#231F20"/>
<path d="M10.9218 22.7795C11.3468 22.7795 11.3893 22.7795 11.4743 22.822C11.6443 22.8645 11.6868 22.992 11.6868 23.1195C11.6868 23.417 11.3893 23.4595 11.2193 23.4595H10.5818V22.822H10.9218V22.7795ZM10.0293 22.312V25.1595H11.0068C11.6018 25.1595 11.8143 25.1595 11.9418 25.0745C12.2393 24.947 12.4093 24.607 12.4093 24.3095C12.4093 24.1395 12.3668 23.757 11.8568 23.6295C12.1118 23.502 12.2393 23.247 12.2393 22.992C12.2393 22.737 12.1118 22.5245 11.9418 22.4395C11.7718 22.312 11.5168 22.2695 11.1343 22.2695H10.0293V22.312ZM11.0493 23.927C11.4318 23.927 11.8143 23.927 11.8143 24.3095C11.8143 24.3945 11.7718 24.5645 11.5593 24.6495C11.4743 24.692 11.2193 24.692 11.0918 24.692H10.5818V23.927H11.0493Z" fill="#231F20"/>
<path d="M12.9199 22.3125H13.4724V24.6925H14.9174V25.16H12.9199V22.3125Z" fill="#231F20"/>
<path d="M16.4468 22.3125H16.9993L18.1468 24.225V22.3125H18.6993V25.16H18.1043L16.9568 23.29V25.16H16.4043V22.3125H16.4468Z" fill="#231F20"/>
<path d="M19.3379 22.3125H21.4629V22.78H19.9329V23.4175H21.3779V23.885H19.9329V24.65H21.5479V25.1175H19.3804V22.3125H19.3379Z" fill="#231F20"/>
<path d="M22.6958 23.6725L21.8033 22.3125H22.4833L23.0358 23.2475L23.5883 22.3125H24.2683L23.3758 23.715L24.3533 25.2025H23.6308L22.9933 24.225L22.3558 25.2025H21.6758L22.6958 23.6725Z" fill="#231F20"/>
<path d="M25.2454 22.312V23.842C25.2454 24.182 25.2454 24.3095 25.3304 24.437C25.4579 24.6495 25.6704 24.692 25.8404 24.692C26.3929 24.692 26.3929 24.352 26.3929 23.842V22.2695H26.9454V23.7995C26.9454 24.3095 26.9454 24.607 26.7754 24.8195C26.5629 25.1595 26.1804 25.202 25.8404 25.202C24.6504 25.202 24.6504 24.4795 24.6504 23.7995V22.2695H25.2454V22.312Z" fill="#231F20"/>
<path d="M28.0076 24.182C28.0501 24.352 28.0926 24.7345 28.6026 24.7345C29.0276 24.7345 29.1976 24.522 29.1976 24.352C29.1976 24.097 28.9851 24.0545 28.4751 23.927C28.1776 23.842 27.5826 23.7145 27.5826 23.077C27.5826 22.7795 27.7951 22.2695 28.6026 22.2695C29.1551 22.2695 29.6651 22.482 29.7076 23.162H29.1126C29.0701 22.992 29.0276 22.737 28.6026 22.737C28.4326 22.737 28.1351 22.7795 28.1351 23.0345C28.1351 23.2045 28.3051 23.2895 28.7726 23.417C29.1976 23.502 29.7926 23.672 29.7926 24.352C29.7926 24.692 29.5801 24.9895 29.3251 25.117C29.0701 25.2445 28.7726 25.2445 28.6451 25.2445C28.3476 25.2445 27.5826 25.2445 27.4551 24.267L28.0076 24.182Z" fill="#231F20"/>
</svg>
