<?xml version="1.0" encoding="utf-8"?>
<!-- Generator: Adobe Illustrator 21.0.0, SVG Export Plug-In . SVG Version: 6.00 Build 0)  -->
<svg version="1.1" xmlns="http://www.w3.org/2000/svg" xmlns:xlink="http://www.w3.org/1999/xlink" x="0px" y="0px"
	 viewBox="0 0 20 20" style="enable-background:new 0 0 20 20;" xml:space="preserve">
<style type="text/css">
	.st0{fill:none;stroke:#59B663;stroke-miterlimit:10;}
	.st1{fill:#59B663;}
</style>
<g id="Layer_1">
	<circle class="st0" cx="10.1" cy="10.1" r="8.6"/>
</g>
<g id="Layer_2">
	<g>
		<path class="st1" d="M8.1,7.8c0,0-0.4,0.1-0.2,0.7c0,0,0.1,0.6,0.5,0.8c0,0,0.2,0.8,0.6,1.2c0,0,0.5,0.6,1.2,0.6
			c0,0,0.9,0,1.5-0.8c0,0,0.3-0.5,0.4-0.9c0,0,0.5-0.3,0.5-1.2c0,0,0-0.3-0.3-0.3c0,0,0.1-1.2,0-1.6c0,0,0-1-1.1-1.2
			c0,0-0.7-0.2-1.7,0c0,0-1.1,0.2-1.2,1c0,0-0.1,0.4-0.1,1L8.1,7.8L8.1,7.8z"/>
		<path class="st1" d="M8.4,10.8c0,0,0.5,1.3,1.8,1.3c0,0,1.2-0.1,1.7-1.4c0,0,1.6,0.4,2.1,1c0,0,1.9,1.6-1.1,3c0,0-2,0.9-4.8,0.2
			c0,0-1.7-0.3-2.3-1.4c0,0-0.6-1.2,0.8-2C6.6,11.5,7.5,11,8.4,10.8z"/>
	</g>
</g>
</svg>
