<svg width="34" height="34" viewBox="0 0 34 34" fill="none" xmlns="http://www.w3.org/2000/svg">
<rect width="34" height="34" fill="white"/>
<path d="M25.2027 9.30795C25.2027 9.30795 25.0327 9.86045 24.8627 10.4555C24.6502 11.0505 24.3527 11.9855 24.1827 12.4955C24.0127 13.0055 23.7577 13.8555 23.5877 14.323C23.4177 14.833 23.2477 15.3855 23.1627 15.6405C23.0777 15.8955 22.9077 16.448 22.7377 16.958C22.5677 17.468 22.4402 17.893 22.3977 17.978C22.3977 18.063 22.3552 18.1055 22.3127 18.1055C22.3127 18.1055 21.8452 17.5955 21.3352 16.958C20.8252 16.3205 20.3577 15.7255 20.3152 15.6405L20.2302 15.513L19.8902 16.193C19.6352 16.703 19.5502 16.873 19.5502 16.788C19.5502 16.7455 19.4652 16.363 19.4227 15.8955C19.3802 15.4705 19.3377 15.0455 19.2952 14.9605C19.2952 14.833 19.4227 14.7055 21.0377 13.0905C22.0152 12.113 22.8227 11.3055 22.8227 11.3055C22.8652 11.263 22.4827 11.518 19.7627 13.473L18.1477 14.6205L17.1702 14.1105C16.6177 13.813 16.0652 13.5155 15.8952 13.4305C15.7252 13.3455 15.5977 13.2605 15.5977 13.2605C15.5977 13.2605 15.7252 13.1755 15.9377 13.0905C16.1077 13.0055 16.5752 12.8355 16.9577 12.6655C17.3402 12.4955 18.4452 12.028 19.4227 11.6455C20.4002 11.2205 22.0577 10.5405 23.1202 10.073C24.2677 9.64795 25.1602 9.26545 25.2027 9.30795Z" fill="#872A8C"/>
<path d="M12.6654 15.3844V15.6394H12.2404C11.7304 15.6394 11.6029 15.6819 11.5179 15.8519C11.4329 16.0219 11.4329 16.1919 11.6029 16.3194C11.7304 16.4469 11.7304 16.4469 12.1979 16.4469H12.7079V16.7019V16.9569H12.1554C11.6029 16.9569 11.5604 16.9569 11.3904 16.8294C10.7529 16.4044 10.8379 15.4694 11.6029 15.2144C11.6879 15.1719 11.9429 15.1719 12.2404 15.1719H12.7079V15.3844H12.6654Z" fill="#872A8C"/>
<path d="M13.3025 15.3839V15.6389L13.5575 15.3839L13.8125 15.1289H14.1525H14.4925L14.0675 15.5539C13.8125 15.8089 13.6425 16.0214 13.6425 16.0214C13.6425 16.0214 13.8125 16.2339 14.025 16.4464C14.2375 16.6589 14.45 16.8714 14.45 16.8714C14.45 16.8714 14.3225 16.9139 14.11 16.9139H13.77L13.515 16.6589L13.26 16.4039V16.6589V16.9139H13.005H12.75V16.0639C12.75 15.5964 12.75 15.1714 12.75 15.1714C12.75 15.1714 12.8775 15.1289 13.005 15.1289H13.2175V15.3839H13.3025Z" fill="#872A8C"/>
<path d="M15.9796 15.3839V15.6389H15.5546C15.1296 15.6389 14.8746 15.6814 14.8746 15.7664C14.8746 15.7664 15.0871 15.8089 15.3846 15.8089H15.8946V16.0639V16.3189H15.3846C15.1296 16.3189 14.8746 16.3189 14.8746 16.3189C14.8746 16.3189 14.9171 16.3614 14.9596 16.4039C15.0021 16.4464 15.1721 16.4464 15.5121 16.4464H15.9796V16.7014V16.9564H15.4696C14.9596 16.9564 14.9596 16.9564 14.7471 16.8289C14.2371 16.5314 14.1096 15.8089 14.5771 15.4264C14.7896 15.2139 15.0021 15.1289 15.5546 15.1289H16.0221V15.3839H15.9796Z" fill="#872A8C"/>
<path d="M17.8495 15.3869V15.6419H17.552H17.2545V16.2794V16.9169H16.9995H16.7445V16.2369V15.5569H16.4045H16.0645V15.3444C16.0645 15.2169 16.0645 15.0894 16.107 15.0894C16.107 15.0894 16.532 15.0469 16.957 15.0469H17.807V15.3869H17.8495Z" fill="#872A8C"/>
<path d="M26.6471 15.258C27.3271 15.4705 27.9646 15.9805 28.2621 16.618C28.3896 16.873 28.5596 17.468 28.5596 17.638C28.5596 17.638 28.7296 17.638 28.8996 17.638H29.2396V18.3605V19.083H26.9021H24.5646V20.273V21.463H26.1371H27.7096L27.7946 21.378C27.8796 21.2505 27.8796 21.1655 27.7521 21.038C27.6671 20.953 27.5821 20.953 26.7321 20.953C26.2221 20.953 25.8396 20.953 25.8396 20.9105C25.8396 20.9105 25.9671 20.5705 26.1371 20.188L26.3496 19.5505H27.1996H28.0496L28.3046 19.678C28.6446 19.848 28.9421 20.1455 29.0696 20.4855C29.1971 20.7405 29.1971 20.8255 29.1971 21.208C29.1971 21.5905 29.1971 21.6755 29.0696 21.888C28.8996 22.228 28.6021 22.5255 28.2621 22.6955L28.0071 22.823H25.5846H23.1621V20.2305V17.638H25.1596C27.4546 17.638 27.2846 17.6805 27.0296 17.213C26.9021 16.958 26.7321 16.788 26.3921 16.6605C26.1796 16.5755 26.0946 16.5755 25.8396 16.5755C25.4996 16.618 25.2871 16.703 25.0321 16.958L24.8621 17.128L24.4796 16.788C24.2671 16.618 24.0546 16.363 23.9696 16.3205L23.7996 16.193L24.0121 15.9805C24.4371 15.5555 24.8196 15.343 25.3296 15.2155C25.7546 15.1305 26.3071 15.1305 26.6471 15.258Z" fill="#872A8C"/>
<path d="M13.982 17.8917C12.877 19.1242 12.7495 20.9092 13.642 22.1842C13.727 22.3542 13.812 22.4817 13.812 22.4817C13.812 22.5242 12.792 23.3742 12.792 23.3742C12.7495 23.3742 12.4095 22.9067 12.197 22.5242C11.772 21.7592 11.6445 21.1217 11.6445 20.1867C11.6445 19.5917 11.6445 19.4642 11.772 19.0817C11.8995 18.6142 12.0695 18.1467 12.282 17.8067L12.367 17.6367H13.302H14.237L13.982 17.8917Z" fill="#872A8C"/>
<path d="M8.67007 22.3967C9.52007 22.6092 9.77507 23.6717 9.18007 24.3092C8.62757 24.9042 7.65007 24.7342 7.31007 23.9692C6.92757 23.1192 7.73507 22.1417 8.67007 22.3967Z" fill="#872A8C"/>
<path d="M16.1072 24.1389C16.1072 24.5639 16.1072 24.5639 16.0222 24.5639C15.9372 24.5639 15.9372 24.5214 15.9372 24.2239C15.9372 23.9264 15.9372 23.8414 15.8947 23.8414C15.8522 23.8414 15.8522 23.9264 15.8522 24.1814C15.8522 24.5214 15.8522 24.5214 15.7672 24.5639C15.6822 24.5639 15.6822 24.5639 15.6822 24.3514C15.6822 24.1389 15.6822 24.0964 15.5972 24.0964C15.5547 24.0964 15.5122 24.1389 15.4697 24.1814C15.4697 24.2239 15.4272 24.2664 15.3847 24.2664C15.3422 24.2664 15.2997 24.2239 15.2997 24.1814C15.2997 24.0964 15.1297 24.0964 15.0872 24.1814C15.0872 24.2239 15.0872 24.2664 15.0872 24.3089C15.0872 24.3939 15.1297 24.3939 15.2572 24.3939C15.3422 24.3939 15.3847 24.3939 15.3847 24.4789C15.3847 24.5639 15.3422 24.5639 15.2147 24.5639C14.9597 24.5639 14.9172 24.4789 14.9597 24.1814V23.9689H15.1722C15.2997 23.9689 15.4272 23.9689 15.4697 23.9689C15.5122 23.9689 15.5547 23.9689 15.6397 23.9689C15.6822 23.9689 15.7247 23.9264 15.7247 23.8839C15.7247 23.8414 15.6397 23.7989 15.3422 23.7989C15.0022 23.7989 14.9597 23.7989 14.9597 23.7139C14.9597 23.6289 15.0022 23.6289 15.5547 23.6289H16.1497V24.1389H16.1072Z" fill="#872A8C"/>
<path d="M12.8356 24.1397C12.8356 24.2247 12.7931 24.2247 12.6231 24.2247C12.4531 24.2247 12.4531 24.2247 12.4531 24.1397C12.4531 24.0547 12.4956 24.0547 12.6231 24.0547C12.7931 24.0547 12.8356 24.0547 12.8356 24.1397Z" fill="#872A8C"/>
<path d="M18.6579 24.3088C18.7854 24.3513 18.8279 24.3938 18.8279 24.4788C18.8279 24.5638 18.8279 24.5638 18.5304 24.4788C18.3179 24.3938 18.2754 24.3513 18.2754 24.2663C18.2754 24.1813 18.3179 24.1813 18.6579 24.3088Z" fill="#872A8C"/>
<path d="M27.0734 24.3517C27.2859 24.5217 27.4134 24.6917 27.3709 24.7342C27.3284 24.7767 26.8184 24.3517 26.8184 24.2667C26.8184 24.1392 26.8184 24.1392 27.0734 24.3517Z" fill="#872A8C"/>
<path d="M28.8155 24.3517C29.028 24.5217 29.1555 24.6917 29.113 24.7342C29.0705 24.7767 28.5605 24.3517 28.5605 24.2667C28.5605 24.1392 28.5605 24.1392 28.8155 24.3517Z" fill="#872A8C"/>
<path d="M14.5783 24.3115C14.7908 24.3965 14.8333 24.4815 14.7483 24.524C14.6633 24.5665 14.2383 24.354 14.2383 24.269C14.2383 24.184 14.3233 24.2265 14.5783 24.3115Z" fill="#872A8C"/>
<path d="M12.4946 24.607C12.5371 24.6495 12.4521 24.692 12.2821 24.692C12.1546 24.6495 12.1121 24.607 12.1546 24.5645C12.2396 24.522 12.4521 24.5645 12.4946 24.607Z" fill="#872A8C"/>
<path d="M8.66914 16.6589L8.41414 16.4039L8.58414 16.3189C8.75414 16.2339 8.88164 15.9789 8.88164 15.7664C8.88164 15.5539 8.71164 15.3414 8.54164 15.2139C8.37164 15.1289 8.28664 15.1289 7.77664 15.1289H7.18164V16.0639V16.9564H7.43664H7.64914V16.7014C7.64914 16.5314 7.64914 16.4464 7.69164 16.4464C7.69164 16.4464 7.86164 16.5739 7.98914 16.7014L8.24414 16.9564H8.58414C8.75414 16.9564 8.92414 16.9564 8.92414 16.9139C8.92414 16.9139 8.79664 16.7864 8.66914 16.6589ZM8.37164 15.8089C8.32914 15.8514 8.24414 15.8939 7.98914 15.8939H7.64914V15.7664V15.6389H7.94664C8.32914 15.6389 8.41414 15.6814 8.37164 15.8089Z" fill="#872A8C"/>
<path d="M10.1568 15.1743C9.5618 15.0043 8.9668 15.4293 8.9668 16.0668C8.9668 16.5768 9.3918 16.9593 9.9018 16.9593C10.3693 16.9593 10.7943 16.5343 10.7943 16.0668C10.7943 15.6843 10.5393 15.3018 10.1568 15.1743ZM9.6043 16.3643C9.5193 16.2793 9.4768 16.2368 9.4768 16.1093C9.4768 15.9393 9.5618 15.7693 9.6893 15.7268C9.9443 15.5993 10.2843 15.8118 10.2843 16.1093C10.2843 16.4068 9.9018 16.5768 9.6043 16.3643Z" fill="#872A8C"/>
<path d="M9.01 17.6362C7.2675 17.6362 7.055 17.6362 6.8 17.7212C5.7375 18.0187 5.015 18.7837 4.845 19.8887C4.76 20.2712 4.76 20.3137 4.845 20.6962C5.015 21.7587 5.8225 22.6087 6.8425 22.8637L7.0975 22.9062L7.225 22.6938C7.395 22.4813 7.6925 22.2687 7.9475 22.1412C8.2025 22.0562 8.7125 22.0562 9.01 22.1837C9.2225 22.3112 9.52 22.5662 9.6475 22.7362L9.7325 22.8637H10.37H11.0075V20.2287V17.5938L9.01 17.6362ZM9.4775 20.2712V21.4612H8.2875C7.14 21.4612 7.0975 21.4612 6.885 21.3762C6.46 21.1637 6.205 20.7387 6.205 20.3137C6.205 19.7612 6.5025 19.3362 7.0125 19.1237C7.0975 19.0812 7.5225 19.0813 8.33 19.0813H9.52V20.2712H9.4775Z" fill="#872A8C"/>
<path d="M22.0995 19.0839C21.887 18.6589 21.377 18.1489 20.952 17.9364C20.782 17.8514 20.4845 17.7664 20.357 17.7239C19.932 17.6389 16.192 17.6389 15.8095 17.7239C14.9595 17.8939 14.237 18.5314 13.9395 19.3389C13.812 19.6364 13.812 19.7639 13.7695 20.1889C13.7695 20.5714 13.7695 20.7414 13.812 20.9539C13.982 21.6764 14.492 22.3139 15.172 22.6539C15.682 22.9089 15.6395 22.9089 17.8495 22.9089H19.8895V20.9964V19.0839H20.017C20.3145 19.0839 20.7395 19.3814 20.9095 19.7214C21.1645 20.1889 21.0795 20.6989 20.697 21.0814L20.4845 21.2939L20.952 21.8039C21.207 22.0589 21.4195 22.3139 21.4195 22.3139C21.462 22.3139 21.9295 21.8464 22.057 21.5914C22.482 20.8689 22.5245 19.8914 22.0995 19.0839ZM18.4445 20.2739V21.4639H17.212C16.107 21.4639 15.937 21.4639 15.8095 21.3789C15.5545 21.2514 15.342 21.0389 15.2145 20.7839C15.1295 20.5714 15.1295 20.5289 15.1295 20.2314C15.1295 20.0614 15.172 19.8489 15.257 19.7639C15.3845 19.5514 15.7245 19.2114 15.8945 19.1689C15.9795 19.1264 16.532 19.1264 17.2545 19.1264H18.4445V20.2739Z" fill="#872A8C"/>
<path d="M28.5602 23.716C28.5602 23.6735 28.4752 23.631 28.0502 23.631C27.6252 23.631 27.5402 23.631 27.5402 23.5885C27.5402 23.5035 27.7102 23.376 27.8377 23.376C27.9227 23.376 28.0502 23.4185 28.1352 23.461C28.2627 23.546 28.3052 23.546 28.3477 23.5035C28.3902 23.461 28.3477 23.4185 28.2202 23.376C28.0077 23.2485 27.8802 23.2485 27.7102 23.291C27.5402 23.3335 27.3702 23.5035 27.3702 23.5885C27.3702 23.631 27.3702 23.631 27.3277 23.631C27.2852 23.631 27.2852 23.6735 27.2852 23.716C27.2852 23.7585 27.2852 23.801 27.3277 23.801C27.3702 23.801 27.3702 23.971 27.3702 24.1835C27.3702 24.566 27.3702 24.566 27.4552 24.566C27.5402 24.566 27.5402 24.566 27.5402 24.3535C27.5402 24.226 27.5402 24.141 27.5402 24.141C27.5402 24.141 27.5827 24.141 27.5827 24.1835C27.5827 24.226 27.6677 24.2685 27.7102 24.2685C27.7952 24.311 27.8802 24.396 27.9227 24.4385C27.9652 24.481 28.0077 24.566 28.0927 24.566C28.1777 24.566 28.1777 24.5235 28.1777 24.2685C28.1777 24.0135 28.1777 23.971 28.2627 23.971C28.3477 23.971 28.3902 24.0985 28.3052 24.141C28.2627 24.1835 28.2202 24.226 28.2202 24.226C28.2202 24.311 28.3902 24.2685 28.4327 24.1835C28.5177 24.056 28.4752 23.9285 28.3477 23.8435L28.2202 23.801H28.3902C28.5177 23.801 28.5602 23.801 28.5602 23.716ZM27.4977 24.056C27.4977 24.056 27.4977 23.971 27.4977 23.9285C27.4977 23.801 27.5402 23.801 27.7102 23.801C27.8377 23.801 27.9227 23.801 27.9227 23.801C27.9652 23.8435 27.5402 24.0985 27.4977 24.056ZM28.0077 24.311L27.9227 24.226C27.8377 24.141 27.8377 24.141 27.8802 24.056C27.9652 23.971 28.0077 23.971 28.0077 24.141V24.311Z" fill="#872A8C"/>
<path d="M24.3104 23.6725C23.8429 23.6725 23.7579 23.6725 23.7579 23.63C23.7579 23.5875 23.7154 23.545 23.6729 23.46C23.6304 23.4175 23.5454 23.375 23.5029 23.375C23.3329 23.375 23.1629 23.46 23.1629 23.545C23.1629 23.63 23.2054 23.63 23.3329 23.545C23.4604 23.5025 23.6304 23.545 23.6304 23.63C23.6304 23.6725 23.0779 23.6725 22.1429 23.6725H20.6554L20.5279 23.8425C20.4429 23.97 20.4004 24.055 20.4004 24.225C20.4004 24.48 20.5279 24.6075 20.7404 24.6075C20.8254 24.6075 20.7829 24.48 20.6979 24.48C20.5279 24.48 20.4854 24.1825 20.6129 24.0125C20.6979 23.885 20.6979 23.885 20.8679 23.9275C20.9954 23.97 21.0379 24.0125 21.0379 24.055C21.0379 24.0975 20.9954 24.0975 20.9954 24.0975C20.9104 24.0975 20.7829 24.225 20.7829 24.3525C20.7829 24.5225 20.9529 24.6075 21.1229 24.565C21.2079 24.5225 21.1654 24.4375 21.0379 24.4375C20.9954 24.4375 20.9529 24.395 20.9529 24.395C20.9529 24.225 21.3354 24.3525 21.4204 24.5225C21.4629 24.6075 21.5054 24.65 21.5479 24.65C21.5904 24.65 21.5904 24.565 21.5904 24.2675C21.5904 23.97 21.5904 23.885 21.6754 23.885C21.7604 23.885 21.7604 23.97 21.7604 24.2675C21.7604 24.6075 21.7604 24.65 21.8454 24.65C21.9304 24.65 21.9304 24.6075 21.9304 24.2675V23.8H22.2704C22.6104 23.8 22.6104 23.8 22.4829 23.885C22.1854 24.0125 22.0579 24.0975 22.0579 24.14C22.0579 24.225 22.1004 24.225 22.3554 24.3525C22.4404 24.395 22.5679 24.48 22.6104 24.5225C22.6529 24.565 22.6954 24.6075 22.7804 24.6075C22.8654 24.6075 22.8654 24.565 22.8654 24.225C22.8654 23.9275 22.8654 23.8425 22.9504 23.8425C22.9929 23.8425 23.0354 23.9275 23.0354 24.225C23.0354 24.565 23.0354 24.6075 23.1204 24.6075C23.2054 24.6075 23.2054 24.565 23.2054 24.225V23.8H23.3329H23.3754L23.2904 23.885C23.1629 23.97 23.1629 24.0975 23.2904 24.1825C23.3329 24.225 23.3754 24.225 23.4179 24.1825C23.4604 24.14 23.4604 24.14 23.4179 24.0975C23.3754 24.0975 23.3754 24.055 23.3754 24.055C23.3754 23.97 23.5454 24.055 23.5879 24.0975C23.6304 24.1825 23.5879 24.225 23.3329 24.2675C23.2054 24.2675 23.1629 24.31 23.1629 24.3525C23.1629 24.395 23.1629 24.4375 23.2054 24.4375C23.2479 24.4375 23.3329 24.48 23.4604 24.565C23.6729 24.6925 23.8429 24.6925 23.7154 24.565C23.6729 24.5225 23.5879 24.48 23.5454 24.4375C23.4179 24.395 23.4604 24.3525 23.5879 24.31C23.8004 24.2675 23.8004 23.97 23.5879 23.8425C23.5029 23.8 23.5454 23.7575 24.0129 23.7575C24.5654 23.7575 24.5654 23.7575 24.5654 23.8425C24.5654 23.9275 24.5229 23.9275 24.2679 23.97C24.2254 23.97 24.1404 23.97 24.0979 23.9275C23.8854 23.885 23.6729 24.225 23.8854 24.395C24.0129 24.48 24.0979 24.5225 24.1404 24.48C24.2254 24.395 24.1829 24.3525 24.0979 24.3525C23.9704 24.3525 23.9279 24.1825 24.0554 24.14C24.0979 24.14 24.1404 24.14 24.2254 24.225L24.3104 24.31L24.3954 24.225C24.5229 24.0975 24.6079 24.1825 24.6079 24.395C24.6079 24.5225 24.6079 24.565 24.6929 24.565C24.7779 24.565 24.7779 24.5225 24.7779 24.1825C24.7779 23.97 24.7779 23.8 24.8204 23.8C24.8204 23.8 24.8629 23.7575 24.8629 23.715C24.8629 23.6725 24.7779 23.6725 24.3104 23.6725ZM21.4629 24.1825C21.4204 24.1825 21.2504 24.055 21.2504 24.0125C21.2504 23.97 21.2079 23.9275 21.1654 23.885C21.0804 23.8 21.1229 23.8 21.2929 23.8H21.4629V23.97C21.5054 24.0975 21.5054 24.1825 21.4629 24.1825ZM22.6529 24.31C22.6529 24.31 22.5679 24.2675 22.4829 24.225L22.3129 24.14L22.4829 24.055C22.5679 24.0125 22.6529 23.97 22.6529 24.0125C22.6954 24.0125 22.6529 24.31 22.6529 24.31Z" fill="#872A8C"/>
<path d="M12.0699 23.9689C12.0274 24.0114 11.9424 24.0539 11.8149 24.0114C11.6449 24.0114 11.6449 23.9689 11.6024 23.8839C11.6024 23.7989 11.6024 23.7989 11.8999 23.7989C12.1974 23.7989 12.2399 23.7989 12.2399 23.7139C12.2399 23.6289 12.1974 23.6289 11.1349 23.6289C10.3699 23.6289 10.0299 23.6289 9.98739 23.6714C9.94489 23.7564 10.0299 23.7989 10.1999 23.7989C10.3699 23.7989 10.3699 23.7989 10.3699 24.0114V24.1814H10.5824C10.7099 24.1814 10.7949 24.1814 10.7524 24.1814C10.7524 24.1814 10.7524 24.2239 10.7524 24.2664C10.7524 24.3089 10.6674 24.3514 10.4549 24.3514H10.1999V24.1389C10.1999 23.9689 10.1574 23.9264 10.1149 23.9264C10.0724 23.9264 10.0299 23.9689 10.0299 24.1814C10.0299 24.5214 10.0724 24.5639 10.5399 24.5639C10.8799 24.5639 10.9224 24.5639 10.9649 24.4789C11.0499 24.3514 11.0499 23.9689 10.9649 23.9689C10.9224 23.9689 10.8799 23.9689 10.8374 24.0114C10.7949 24.0539 10.7524 24.0964 10.7099 24.0964C10.6249 24.0964 10.6249 24.0539 10.6249 24.0114C10.6249 23.9264 10.6249 23.8839 10.8799 23.8839H11.1349V24.2239C11.1349 24.5639 11.1349 24.5639 11.2199 24.5639C11.3049 24.5639 11.3474 24.5639 11.3474 24.2239C11.3474 23.9264 11.3474 23.8414 11.3899 23.8414C11.4324 23.8414 11.4749 23.9264 11.4749 24.2239V24.5639H11.8149C12.2399 24.5639 12.2824 24.5214 12.2824 24.1814C12.2399 23.9689 12.1974 23.8839 12.0699 23.9689ZM11.8574 24.3939C11.6449 24.3939 11.6024 24.3939 11.6024 24.3089C11.6024 24.2239 11.6449 24.2239 11.7724 24.2239C11.8574 24.2239 11.9849 24.2239 11.9849 24.1814C12.0274 24.1814 12.0274 24.2239 12.0274 24.2664C12.0699 24.3939 12.0699 24.3939 11.8574 24.3939Z" fill="#872A8C"/>
<path d="M14.1109 24.1398V23.7148H13.5584C13.0484 23.7148 13.0059 23.7148 13.0059 23.7998C13.0059 23.8848 13.0484 23.8848 13.3459 23.8848C13.6009 23.8848 13.6859 23.8848 13.6434 23.9273C13.6434 23.9698 13.5159 23.9698 13.3459 23.9698H13.0484V24.1823C13.0484 24.3098 13.0484 24.4373 13.0909 24.4798C13.1334 24.5648 13.1759 24.5648 13.5159 24.5648H13.8559V24.1823C13.8559 23.9273 13.8559 23.8423 13.8984 23.8423C13.9409 23.8423 13.9409 23.9698 13.9834 24.2248C13.9834 24.5223 13.9834 24.5648 14.0684 24.5648C14.1109 24.5648 14.1109 24.5223 14.1109 24.1398ZM13.4309 24.3948C13.1759 24.3948 13.1334 24.3098 13.2184 24.1823C13.2184 24.1398 13.3034 24.1398 13.4309 24.1398C13.6434 24.1398 13.6434 24.1398 13.6434 24.3098V24.4373L13.4309 24.3948Z" fill="#872A8C"/>
<path d="M18.1472 24.1398V23.7148H17.3822C16.6172 23.7148 16.6172 23.7148 16.6172 23.7998C16.6172 23.8848 16.6597 23.8848 16.9147 23.8848C17.0847 23.8848 17.2547 23.8848 17.2547 23.9273C17.2547 23.9698 16.9997 24.0123 16.7872 24.0123H16.6172V24.2248C16.6172 24.3523 16.6172 24.4373 16.7022 24.5223C16.7872 24.6073 16.8297 24.6498 17.1272 24.6498H17.4247V24.2248C17.4247 23.8848 17.4247 23.8423 17.5097 23.8423C17.5947 23.8423 17.5947 23.8423 17.5522 23.9273C17.4672 24.0548 17.5097 24.0973 17.6372 24.1398C17.7222 24.1823 17.7647 24.2248 17.7647 24.3098C17.7647 24.3523 17.7222 24.3948 17.6372 24.4373C17.4672 24.4373 17.5097 24.6073 17.6797 24.6073C17.8922 24.6073 17.9347 24.5223 17.9347 24.2673C17.9347 24.0973 17.8922 24.0548 17.8072 24.0123C17.6797 23.9698 17.7222 23.8848 17.8497 23.8848H17.9772V24.2248C17.9772 24.5223 17.9772 24.5648 18.0622 24.5648C18.1472 24.5648 18.1472 24.5648 18.1472 24.1398ZM16.9997 24.4373C16.7872 24.4373 16.7872 24.4373 16.7872 24.2673V24.0973H16.9997H17.2122V24.2673V24.4373H16.9997Z" fill="#872A8C"/>
<path d="M19.8471 23.8419C19.9746 23.8419 20.0171 23.8419 20.0171 23.7569C20.0171 23.6719 19.9746 23.6719 19.5071 23.6719C18.9971 23.6719 18.9121 23.6719 18.9121 23.7994C18.9121 23.8419 18.9971 23.8419 19.2096 23.8844C19.5921 23.8844 19.5921 23.9694 19.2096 23.9694H18.9121V24.2244C18.9121 24.5644 18.9546 24.6069 19.3796 24.6069H19.7196V24.3519C19.7196 24.1819 19.7196 24.0969 19.8046 24.0969C19.8896 24.0969 19.9321 24.2244 19.8896 24.2669C19.8471 24.2669 19.8471 24.3094 19.8471 24.3519C19.8471 24.4369 19.8471 24.4369 19.9321 24.4369C20.0171 24.4369 20.0171 24.3944 20.0171 24.1819C20.0171 23.9694 20.0171 23.9694 19.8896 23.9694C19.8046 23.9694 19.7621 23.9269 19.7621 23.9269C19.7196 23.8419 19.7621 23.8419 19.8471 23.8419ZM19.3371 24.3944C19.1246 24.3944 19.1246 24.3944 19.1246 24.2669C19.1246 24.1819 19.1246 24.1394 19.1246 24.1394C19.1246 24.1394 19.2521 24.1394 19.3371 24.1394C19.5496 24.1394 19.5496 24.1394 19.5496 24.2669V24.3944H19.3371Z" fill="#872A8C"/>
<path d="M25.9677 23.6719C25.2452 23.6719 25.1602 23.6719 25.1602 23.7569C25.1602 23.8419 25.2027 23.7994 25.5002 23.7994C25.7552 23.7994 25.7977 23.7994 25.7127 23.8419C25.2877 24.0119 25.2452 24.0544 25.2452 24.1394C25.2452 24.2244 25.2877 24.2244 25.4152 24.2669C25.5002 24.2669 25.6277 24.3519 25.7552 24.4369C25.8402 24.5219 25.9677 24.5644 25.9677 24.5644C26.0102 24.5644 26.0102 24.3944 26.0102 24.1819C26.0102 23.7994 26.0102 23.7994 26.0952 23.7994C26.1802 23.7994 26.1802 23.7994 26.1802 23.8844C26.1377 23.9694 26.1802 24.0544 26.2227 24.1819C26.3077 24.3519 26.3077 24.3944 26.2227 24.4369C26.1377 24.4794 26.1377 24.6069 26.2227 24.6069C26.2652 24.6069 26.3077 24.5644 26.3927 24.5219L26.4777 24.4369L26.3502 24.1819C26.2652 23.8844 26.3077 23.7994 26.4777 23.7994C26.5627 23.7994 26.5627 23.8419 26.5627 24.1819C26.5627 24.4794 26.5627 24.5644 26.6477 24.5644C26.7327 24.5644 26.7327 24.4794 26.7327 24.1819C26.7327 23.8844 26.7327 23.7994 26.7752 23.7994C26.8177 23.7994 26.8602 23.7569 26.8602 23.7144C26.8177 23.6719 26.6902 23.6719 25.9677 23.6719ZM25.6702 24.2244C25.5002 24.1394 25.5427 24.1394 25.6702 24.0544C25.8402 23.9694 25.8827 23.9694 25.8827 24.1819C25.8827 24.3094 25.8827 24.3094 25.6702 24.2244Z" fill="#872A8C"/>
<path d="M27.2004 23.8014C27.0729 23.6314 26.7754 23.7164 26.7754 23.9289C26.7754 24.0564 26.9029 24.1839 27.0304 24.1839C27.1154 24.1839 27.2854 24.0139 27.2429 23.9289C27.2854 23.8864 27.2429 23.8439 27.2004 23.8014ZM27.0304 24.0139C26.9454 24.0139 26.9029 23.9289 26.9454 23.8864C26.9879 23.8014 27.1154 23.8439 27.1154 23.9289C27.1154 23.9714 27.0729 24.0139 27.0304 24.0139Z" fill="#872A8C"/>
<path d="M28.9416 23.7579C28.8566 23.6729 28.8141 23.6729 28.6866 23.7154C28.4741 23.8004 28.5166 24.0979 28.7291 24.1829C28.8141 24.1829 28.8566 24.1829 28.8991 24.0979C29.0266 23.9704 29.0266 23.8854 28.9416 23.7579ZM28.7291 23.9704C28.6866 23.9279 28.6866 23.8854 28.7291 23.8854C28.7716 23.8429 28.8991 23.8429 28.8991 23.9279C28.8991 23.9704 28.7716 24.0554 28.7291 23.9704Z" fill="#872A8C"/>
<path d="M14.7478 23.9698C14.7478 23.8848 14.7053 23.7998 14.6628 23.7573C14.6203 23.7573 14.4928 23.7148 14.4078 23.7148H14.1953V23.8848C14.1953 24.0973 14.2803 24.1398 14.5353 24.1398C14.7478 24.1398 14.7478 24.1398 14.7478 23.9698ZM14.5778 23.9273C14.5778 23.9698 14.5353 23.9698 14.4928 23.9698C14.4503 23.9698 14.4078 23.9698 14.4078 23.9273C14.4078 23.9273 14.4503 23.8848 14.4928 23.8848C14.5778 23.8848 14.6203 23.8848 14.5778 23.9273Z" fill="#872A8C"/>
<path d="M18.7854 23.7573C18.7429 23.7148 18.6154 23.7148 18.5304 23.7148H18.2754V23.8848C18.2754 24.0973 18.3604 24.1398 18.6154 24.1398H18.8279V23.9698C18.8279 23.8848 18.7854 23.7998 18.7854 23.7573ZM18.5729 23.9698C18.5304 23.9698 18.4879 23.9698 18.4454 23.9273C18.4454 23.9273 18.4454 23.8848 18.4879 23.8848C18.5304 23.8848 18.5729 23.8848 18.6154 23.9273C18.6579 23.9698 18.6154 23.9698 18.5729 23.9698Z" fill="#872A8C"/>
</svg>
