<svg width="34" height="34" viewBox="0 0 34 34" fill="none" xmlns="http://www.w3.org/2000/svg">
<rect width="34" height="34" fill="white"/>
<path d="M19.21 27.1168C24.735 27.1593 29.75 22.6117 29.75 17.0867C29.75 11.0517 24.6925 6.88672 19.21 6.88672H14.45C8.8825 6.88672 4.25 11.0517 4.25 17.0867C4.25 22.6117 8.84 27.1168 14.45 27.1168H19.21Z" fill="#0079BE"/>
<path d="M14.4506 7.73438C9.35057 7.73438 5.22805 11.8569 5.18555 16.9994C5.18555 22.0994 9.30807 26.2644 14.4506 26.2644C19.5506 26.2644 23.7156 22.1419 23.7156 16.9994C23.7156 11.8569 19.5506 7.73438 14.4506 7.73438ZM8.58555 16.9994C8.58555 14.4919 10.1581 12.3669 12.3681 11.5169V22.4394C10.1581 21.5894 8.58555 19.4644 8.58555 16.9994ZM16.5756 22.4394V11.5169C18.7856 12.3669 20.3155 14.4919 20.358 16.9994C20.3155 19.4644 18.7431 21.5894 16.5756 22.4394Z" fill="white"/>
<path d="M19.21 27.1168C24.735 27.1593 29.75 22.6117 29.75 17.0867C29.75 11.0517 24.6925 6.88672 19.21 6.88672H14.45C8.8825 6.88672 4.25 11.0517 4.25 17.0867C4.25 22.6117 8.84 27.1168 14.45 27.1168H19.21Z" fill="#0079BE"/>
<path d="M14.4506 7.73438C9.35057 7.73438 5.22805 11.8569 5.18555 16.9994C5.18555 22.0994 9.30807 26.2644 14.4506 26.2644C19.5506 26.2644 23.7156 22.1419 23.7156 16.9994C23.7156 11.8569 19.5506 7.73438 14.4506 7.73438ZM8.58555 16.9994C8.58555 14.4919 10.1581 12.3669 12.3681 11.5169V22.4394C10.1581 21.5894 8.58555 19.4644 8.58555 16.9994ZM16.5756 22.4394V11.5169C18.7856 12.3669 20.3155 14.4919 20.358 16.9994C20.3155 19.4644 18.7431 21.5894 16.5756 22.4394Z" fill="white"/>
</svg>
