<svg width="34" height="34" viewBox="0 0 34 34" fill="none" xmlns="http://www.w3.org/2000/svg">
<rect width="34" height="34" fill="white"/>
<path d="M17.3818 25.5469C16.5318 26.0994 15.7243 26.6519 14.8743 27.1194C14.4918 27.3319 14.0668 27.2469 13.7693 26.9494C13.5568 26.7369 13.4718 26.4819 13.5568 26.1844C13.6418 25.9294 13.7268 25.6319 13.7693 25.3769C13.8543 24.9519 13.7268 24.6119 13.5143 24.2719C13.4718 24.1869 13.4293 24.1444 13.3868 24.0594C13.0468 23.4219 13.2168 22.8269 13.8968 22.6144C14.9593 22.2744 16.0218 22.4019 16.9568 23.0394C17.0843 23.1244 17.1693 23.2094 17.2968 23.2944C17.2968 23.2944 17.2968 23.2944 17.3818 23.2944C17.3818 23.1244 17.3818 22.9119 17.3818 22.7419C17.3818 22.4869 17.5093 22.3594 17.7218 22.3594C18.6568 22.3594 19.5918 22.3594 20.4843 22.3594C20.6968 22.3594 20.8243 22.4869 20.8243 22.6994C20.8243 24.3569 20.8243 25.9719 20.8243 27.6294C20.8243 27.8844 20.7393 27.9694 20.4843 27.9694C19.5068 27.9694 19.5918 28.0544 19.5918 27.1194C19.5918 26.0569 19.5918 25.0369 19.5918 23.9744C19.5918 23.5919 19.5918 23.5919 19.0818 23.5919C18.7843 23.5919 18.6568 23.6344 18.6568 23.9744C18.6568 25.1644 18.6568 26.3119 18.6568 27.5019C18.6568 27.8844 18.5718 27.9269 18.2318 27.9269C17.3393 27.9269 17.3818 28.0119 17.3818 27.0769C17.3818 26.5244 17.3818 26.0144 17.3818 25.5469ZM14.8318 25.7169C14.9168 25.7169 15.0018 25.7169 15.0443 25.7169C15.6818 25.3769 16.2768 24.9519 16.7443 24.3994C16.9143 24.2294 16.7868 24.1019 16.6168 24.0594C16.1068 23.7619 15.5118 23.6344 14.9168 23.6344C14.6193 23.6344 14.5343 23.7619 14.7468 24.0169C15.0018 24.3569 15.0868 24.7394 14.9593 25.1644C14.9168 25.3344 14.8743 25.5044 14.8318 25.7169Z" fill="#4B4A4A"/>
<path d="M9.60445 23.5479C9.09445 23.5479 8.58445 23.5479 8.07445 23.5479C7.77695 23.5479 7.64945 23.4629 7.64945 23.1654C7.64945 22.3154 7.64945 22.3154 8.49945 22.3154C9.17945 22.3154 9.81695 22.3154 10.497 22.3154C10.7095 22.3154 10.922 22.3154 10.922 22.0179C10.922 21.7629 10.7095 21.6354 10.4545 21.6779C9.98695 21.7204 9.51945 21.8054 9.00945 21.8054C8.71195 21.8054 8.41445 21.7204 8.15945 21.6354C7.73445 21.4654 7.64945 20.7429 7.98945 20.4454C8.07445 20.3604 8.28695 20.3604 8.32945 20.4029C8.96695 20.8704 9.64695 20.7004 10.327 20.5729C10.5395 20.5304 10.7945 20.5304 11.007 20.5304C11.772 20.6579 12.1545 21.2954 11.942 22.1029C11.942 22.1454 11.8995 22.1879 11.8995 22.3154C12.112 22.3154 12.282 22.3154 12.452 22.3154C12.707 22.3154 12.8345 22.4004 12.8345 22.6979C12.8345 23.6329 12.9195 23.5479 12.027 23.5479C11.687 23.5479 11.3895 23.5479 11.0495 23.5479C10.8795 23.5479 10.7945 23.5904 10.752 23.8029C10.7095 24.6104 10.837 24.7379 11.6445 24.5679C11.857 24.5254 12.0695 24.4404 12.3245 24.3979C12.5795 24.3554 12.8345 24.4829 12.8345 24.7804C12.8345 25.2904 12.877 25.8004 12.792 26.2679C12.622 27.1604 11.942 27.6279 11.1345 27.8829C10.497 28.0954 9.81695 28.0529 9.17945 27.8829C8.24445 27.6279 7.60695 26.7354 7.56445 25.6304C7.56445 25.2054 7.60695 24.7804 7.64945 24.3554C7.69195 24.1004 7.81945 23.9729 8.07445 24.0154C8.15945 24.0154 8.24445 24.0154 8.28695 24.0154C8.71195 24.0154 8.75445 24.0579 8.79695 24.4829C8.83945 24.9504 8.83945 25.3754 8.92445 25.8429C9.00945 26.3529 9.34945 26.6504 9.85945 26.6929C10.242 26.6929 10.6245 26.6929 10.9645 26.6079C11.1345 26.5654 11.3045 26.4379 11.432 26.3104C11.5595 26.1829 11.5595 25.9704 11.6445 25.8004C11.4745 25.8004 11.347 25.7579 11.177 25.8004C10.922 25.8429 10.6245 25.8854 10.3695 25.8854C9.81695 25.8854 9.60445 25.6729 9.56195 25.0779C9.56195 24.6104 9.56195 24.1429 9.56195 23.7179C9.64695 23.6329 9.64695 23.5904 9.60445 23.5479Z" fill="#4B4A4A"/>
<path d="M26.349 24.9094C26.349 25.5894 26.349 26.3119 26.349 26.9919C26.349 27.6719 25.839 28.0544 25.2015 27.8844C24.224 27.5869 23.2465 27.5444 22.269 27.6294C21.5465 27.6719 21.334 27.4169 21.334 26.7369C21.334 26.6944 21.334 26.6944 21.334 26.6519C21.334 25.6744 21.334 25.6744 22.2265 25.3344C22.3965 25.2494 22.6515 25.0794 22.6515 24.9944C22.6515 24.6969 22.354 24.6969 22.1415 24.6969C21.504 24.6119 21.334 24.4419 21.334 23.8044C21.334 23.4644 21.334 23.0819 21.334 22.7419C21.334 22.4869 21.4615 22.3594 21.7165 22.3594C23.119 22.3594 24.564 22.3594 25.9665 22.3594C26.264 22.3594 26.349 22.4869 26.349 22.7419C26.349 23.4219 26.349 24.1869 26.349 24.9094ZM23.8415 23.5494C23.5865 23.5494 23.3315 23.5494 23.0765 23.5494C22.9915 23.5494 22.9065 23.6344 22.8215 23.6344C22.864 23.7194 22.9065 23.8469 22.949 23.8894C23.119 23.9744 23.289 24.0169 23.459 24.1019C24.139 24.3994 24.2665 25.1219 23.6715 25.5894C23.5015 25.7169 23.289 25.8019 23.0765 25.9294C22.9915 26.0144 22.9065 26.0994 22.8215 26.2269C22.949 26.2694 23.034 26.3544 23.1615 26.3544C23.714 26.3969 24.224 26.4394 24.7765 26.4819C24.989 26.4819 25.074 26.3969 25.074 26.1844C25.074 25.9719 25.0315 25.7594 25.0315 25.5469C25.0315 25.0369 24.989 24.4844 24.989 23.9744C24.989 23.6769 24.8615 23.5069 24.5215 23.5069C24.3515 23.5494 24.0965 23.5494 23.8415 23.5494Z" fill="#4B4A4A"/>
<path d="M23.7152 29.7547C23.2477 29.7547 22.8652 29.3722 22.8652 28.9047C22.8652 28.4372 23.2477 28.0547 23.7152 28.0547C24.1827 28.0547 24.5652 28.4372 24.5652 28.9047C24.5652 29.3722 24.1827 29.7547 23.7152 29.7547Z" fill="#4B4A4A"/>
<path d="M24.437 16.3658C24.3945 16.4083 24.437 16.4083 24.437 16.3658C23.672 17.3433 22.6945 18.1508 21.547 18.7458C20.357 19.3408 18.912 19.5533 17.5945 19.5533C18.2745 19.2558 18.742 18.5758 18.742 17.8108C18.742 16.8333 18.0195 16.0683 17.127 15.9408C19.592 15.8558 21.5895 14.0708 21.717 11.8183C21.717 11.7758 21.717 11.6908 21.717 11.6483C21.717 11.5208 21.717 11.3933 21.717 11.3083C21.717 11.0958 21.717 10.8833 21.717 10.6708C21.7595 10.2033 22.397 9.86328 22.397 9.86328C22.397 9.86328 24.437 9.86328 24.9895 9.86328C25.542 9.94828 25.7545 10.5433 25.7545 10.5433C26.0095 13.8583 24.522 16.2383 24.437 16.3658Z" fill="#144A95"/>
<path d="M12.3267 6.96892C12.6211 5.8086 11.9191 4.62934 10.7587 4.33498C9.5984 4.04062 8.41915 4.74262 8.12479 5.90295C7.83042 7.06328 8.53243 8.24253 9.69275 8.53689C10.8531 8.83126 12.0323 8.12925 12.3267 6.96892Z" fill="#FDD500"/>
<path d="M25.637 6.94166C25.9161 5.7775 25.1986 4.60756 24.0344 4.32852C22.8702 4.04948 21.7003 4.76701 21.4213 5.93117C21.1422 7.09533 21.8598 8.26527 23.0239 8.54431C24.1881 8.82335 25.358 8.10581 25.637 6.94166Z" fill="#144A95"/>
<path d="M18.7424 17.8537C18.7424 18.6187 18.2749 19.2987 17.5949 19.5962C17.0424 19.5962 16.4899 19.5962 16.0224 19.5538C14.2374 19.4262 12.8774 19.0437 12.7924 19.0437C10.9649 18.1937 9.47736 16.8338 8.62736 15.1763C8.62736 15.1763 8.62736 15.1337 8.58486 15.1337C7.94736 13.8162 8.07486 10.6288 8.07486 10.6288C8.07486 10.1188 8.71236 9.90625 8.71236 9.90625H11.3049C11.8149 9.94875 12.0699 10.5437 12.0699 10.5437L12.1974 11.3513C12.1124 11.7338 12.1974 12.2013 12.3249 12.6263C12.4099 12.9238 12.5374 13.2637 12.6649 13.5187C13.3874 14.8787 14.9174 15.8563 16.6599 15.9412C16.7449 15.9412 16.8724 15.9412 16.9574 15.9412C17.0424 15.9412 17.0849 15.9412 17.1699 15.9412C18.0199 16.0687 18.7424 16.8763 18.7424 17.8537Z" fill="#FDD500"/>
</svg>
