<svg width="34" height="34" viewBox="0 0 34 34" fill="none" xmlns="http://www.w3.org/2000/svg">
<rect width="34" height="34" fill="white"/>
<path d="M27.2431 10.7528L23.7581 10.1153C23.7581 10.1153 22.5256 9.81783 21.8881 10.6253C21.4631 10.9228 15.3431 20.1453 15.3431 20.1453C15.3431 20.1453 14.0681 21.7603 15.4281 22.4828C17.0006 23.2903 19.3381 24.5653 19.3381 24.5653C19.3381 24.5653 21.2931 25.5853 22.5681 23.9703C23.8431 22.3553 29.4956 13.5578 29.4956 13.5578C29.4956 13.5578 30.8981 11.8153 29.2406 11.5178C29.2406 11.5178 29.6231 10.8803 29.8781 10.3703C30.0481 10.0728 30.2606 9.81783 29.4106 9.60533C28.1781 9.26533 28.3906 9.30783 27.8806 9.94533L27.2431 10.7528Z" fill="white"/>
<path d="M20.6975 25.1172C19.89 25.1172 19.2525 24.7772 19.21 24.7772C19.1675 24.7772 16.83 23.4597 15.3 22.6947C14.9175 22.4822 14.6625 22.1847 14.5775 21.8022C14.4075 20.9947 15.045 20.1022 15.13 20.0172C16.15 18.4872 21.0375 11.0922 21.675 10.4972C22.1 9.94469 22.7375 9.85969 23.205 9.85969C23.5025 9.85969 23.715 9.90219 23.7575 9.90219L27.115 10.4972L27.625 9.81719C27.71 9.73219 27.7525 9.68969 27.795 9.60469C27.965 9.34969 28.135 9.17969 28.4325 9.17969C28.645 9.17969 28.8575 9.26469 29.325 9.34969L29.41 9.39219C29.835 9.51969 30.09 9.64719 30.175 9.85969C30.26 10.0722 30.175 10.2847 30.09 10.4122C30.09 10.4547 30.0475 10.4547 30.0475 10.4972C29.8775 10.7947 29.7075 11.1772 29.5375 11.3897C29.835 11.5172 30.0475 11.6872 30.1325 11.9422C30.3875 12.6222 29.7075 13.5572 29.6225 13.6847C29.3675 14.1522 23.97 22.5247 22.7375 24.0972C22.2275 24.7772 21.5475 25.1172 20.6975 25.1172ZM23.2475 10.2847C22.865 10.2847 22.3975 10.3697 22.1 10.7522V10.7947H22.0575C21.7175 11.0922 17.9775 16.6172 15.555 20.2722C15.555 20.2722 14.9175 21.0797 15.0875 21.6747C15.13 21.9297 15.3 22.0997 15.555 22.2272C17.085 22.9922 19.4225 24.3097 19.465 24.3097C19.465 24.3097 20.06 24.6072 20.74 24.6072C21.42 24.6072 21.9725 24.3097 22.3975 23.7997C23.63 22.1847 29.24 13.4722 29.325 13.3872C29.495 13.1747 29.92 12.4522 29.7925 12.0697C29.7075 11.8997 29.5375 11.7722 29.1975 11.7297L28.8575 11.6872L29.0275 11.3897C29.0275 11.3897 29.41 10.7522 29.665 10.2847C29.665 10.2422 29.7075 10.2422 29.7075 10.1997C29.75 10.1572 29.7925 10.0722 29.7925 10.0297C29.7925 10.0297 29.75 9.94469 29.325 9.85969L29.24 9.77469C28.815 9.64719 28.6025 9.60469 28.475 9.60469C28.39 9.60469 28.39 9.60469 28.1775 9.85969C28.135 9.90219 28.0925 9.98719 28.0075 10.0722L27.3275 10.9647L23.6725 10.3272C23.715 10.3272 23.5025 10.2847 23.2475 10.2847Z" fill="#231F20"/>
<path d="M20.6545 24.8203C19.847 24.8203 19.2095 24.4803 19.167 24.4803C19.1245 24.4803 16.787 23.1628 15.257 22.3978C14.8745 22.1853 14.6195 21.8878 14.5345 21.5053C14.3645 20.6978 15.002 19.8053 15.087 19.7203C16.107 18.1903 21.037 10.7953 21.632 10.2003C22.057 9.64781 22.6945 9.56281 23.162 9.56281C23.4595 9.56281 23.672 9.60531 23.7145 9.60531L27.072 10.2003L27.582 9.52031C27.667 9.43531 27.7095 9.35031 27.752 9.30781C27.922 9.05281 28.092 8.88281 28.3895 8.88281C28.5595 8.88281 28.8145 8.96781 29.282 9.05281H29.367C29.792 9.18031 30.047 9.30781 30.132 9.52031C30.217 9.73281 30.132 9.94531 30.047 10.0728C30.047 10.1153 30.0045 10.1153 30.0045 10.1578C29.8345 10.4553 29.6645 10.8378 29.4945 11.0503C29.792 11.1778 30.0045 11.3478 30.132 11.6028C30.387 12.2828 29.707 13.2178 29.622 13.3453C29.3245 13.8128 23.927 22.1853 22.6945 23.8003C22.1845 24.4803 21.462 24.8203 20.6545 24.8203ZM23.162 10.0303C22.7795 10.0303 22.312 10.1153 22.0145 10.4978V10.5403H21.972C21.632 10.8378 17.892 16.3628 15.4695 20.0178C15.4695 20.0178 14.832 20.8253 15.002 21.4203C15.0445 21.6753 15.2145 21.8453 15.4695 21.9728C16.9995 22.7378 19.337 24.0553 19.3795 24.0553C19.3795 24.0553 19.9745 24.3528 20.6545 24.3528C21.3345 24.3528 21.887 24.0978 22.312 23.5453C23.5445 21.9303 29.1545 13.2178 29.2395 13.1328C29.4095 12.9203 29.877 12.1978 29.707 11.8153C29.622 11.6453 29.452 11.5178 29.112 11.4753L28.772 11.4328L28.942 11.1353C28.942 11.1353 29.3245 10.4978 29.5795 10.0303C29.5795 9.98781 29.622 9.98781 29.622 9.94531C29.6645 9.90281 29.707 9.81781 29.707 9.77531C29.707 9.77531 29.6645 9.69031 29.2395 9.56281H29.1545C28.7295 9.43531 28.517 9.39281 28.3895 9.39281C28.3045 9.39281 28.3045 9.39281 28.092 9.64781C28.0495 9.69031 28.007 9.77531 27.922 9.86031L27.242 10.7528L23.587 10.1153C23.6295 10.0728 23.4595 10.0303 23.162 10.0303Z" fill="#50B748"/>
<path d="M24.0112 17.5542C23.7562 17.5542 23.5437 17.4267 23.5012 17.4267L20.4837 16.3217C20.2712 16.1942 20.1437 16.0667 20.1012 15.8967C20.0162 15.5567 20.3137 15.1742 20.3137 15.1317C20.3137 15.1317 21.9287 12.8367 22.5237 11.8592C22.9062 11.2642 23.3312 11.1367 23.6287 11.1367C23.8837 11.1367 24.0112 11.2217 24.0537 11.2217C24.0537 11.2217 26.0087 11.7317 27.3687 12.0292C27.7937 12.0717 28.0487 12.1567 28.1337 12.3692C28.2612 12.6667 27.9637 12.9642 27.9637 13.0067C27.8787 13.1342 25.5837 16.4492 24.9462 17.1292C24.6487 17.4267 24.3512 17.5542 24.0112 17.5542ZM23.6287 11.2642C23.3737 11.2642 22.9487 11.3917 22.6087 11.9017C22.0137 12.8792 20.3987 15.1742 20.3987 15.2167C20.3987 15.2167 20.1437 15.5567 20.1862 15.8542C20.2287 16.0242 20.3137 16.1092 20.5262 16.2367L23.5862 17.3417C23.5862 17.3417 23.7562 17.4692 24.0537 17.4692C24.3512 17.4692 24.6062 17.3417 24.8612 17.0867C25.4987 16.4067 27.8362 13.0067 27.8787 12.9642C27.8787 12.9642 28.1337 12.6667 28.0487 12.4542C27.9637 12.2842 27.7512 12.1992 27.3687 12.1567C25.9662 11.8592 24.0537 11.3492 24.0537 11.3492C23.9687 11.3492 23.8412 11.2642 23.6287 11.2642Z" fill="#4FB74C"/>
<path d="M29.7087 17.3417C29.7087 18.8292 28.5187 20.0192 27.0737 19.9767L17.1287 19.8917C15.6412 19.8917 14.4512 18.6592 14.4512 17.2142C14.4512 15.7267 15.6412 14.5367 17.0862 14.5792L27.0312 14.6642C28.5187 14.6642 29.7087 15.8542 29.7087 17.3417Z" fill="#231F20"/>
<path d="M29.6657 17.1699C29.6657 18.6574 28.4757 19.8474 27.0307 19.8049L17.0857 19.7199C15.6407 19.7199 14.4082 18.4874 14.4082 17.0424C14.4082 15.5549 15.5982 14.3649 17.0432 14.4074L26.9882 14.4924C28.4757 14.4924 29.6657 15.7249 29.6657 17.1699Z" fill="white"/>
<path d="M18.2745 19.2548C18.1045 19.3398 17.722 19.4248 17.212 19.4248C15.767 19.4248 15.0445 18.4898 15.002 17.2998C15.002 15.8548 15.9795 15.0898 17.2545 15.0898C17.722 15.0898 18.1045 15.2173 18.2745 15.3023L18.1045 16.0673C17.9345 15.9823 17.637 15.8973 17.297 15.8973C16.532 15.8973 15.9795 16.3223 15.9795 17.2573C15.9795 18.1073 16.4895 18.6173 17.3395 18.6173C17.637 18.6173 17.9345 18.5748 18.1045 18.4898L18.2745 19.2548Z" fill="#231F20"/>
<path d="M21.3337 18.6578C21.3337 18.9553 21.3337 19.2103 21.3762 19.3803H20.5262L20.4837 19.0828C20.2712 19.3378 19.9737 19.4653 19.6337 19.4653C19.0387 19.4653 18.6562 18.9978 18.6562 18.5303C18.6562 17.7228 19.3362 17.3828 20.3987 17.3828V17.3403C20.3987 17.1703 20.3137 16.9578 19.8462 16.9578C19.5487 16.9578 19.2087 17.0428 18.9962 17.1703L18.8262 16.5753C19.0387 16.4478 19.4637 16.3203 20.0162 16.3203C21.0362 16.3203 21.3337 16.9153 21.3337 17.6378V18.6578ZM20.3987 17.9353C19.8887 17.9353 19.5063 18.0628 19.5063 18.4028C19.5063 18.6578 19.6762 18.7853 19.8887 18.7853C20.1437 18.7853 20.3138 18.6153 20.3563 18.4453C20.3563 18.4028 20.3563 18.3178 20.3563 18.2753L20.3987 17.9353Z" fill="#231F20"/>
<path d="M22.0563 18.5733C22.2263 18.7008 22.6087 18.7858 22.8637 18.8283C23.1612 18.8283 23.2462 18.7433 23.2462 18.5733C23.2462 18.4033 23.1612 18.3608 22.7787 18.2333C22.1412 18.0208 21.9287 17.6808 21.9287 17.3408C21.9287 16.7883 22.3962 16.3633 23.1612 16.3633C23.5012 16.3633 23.8412 16.4483 24.0112 16.5333L23.8412 17.1708C23.7137 17.0858 23.4587 17.0008 23.2037 17.0008C22.9912 17.0008 22.8637 17.0858 22.8637 17.2558C22.8637 17.3833 22.9913 17.4683 23.3313 17.5958C23.9262 17.8083 24.1387 18.1058 24.1387 18.5308C24.1387 19.0833 23.7137 19.5083 22.8212 19.5083C22.4387 19.5083 22.0563 19.4233 21.8438 19.2958L22.0563 18.5733Z" fill="#231F20"/>
<path d="M24.7339 15.0039H25.6689V16.7464C25.7539 16.6189 25.8814 16.4914 26.0514 16.4489C26.1789 16.3639 26.3489 16.3214 26.5189 16.3214C27.1139 16.3214 27.5814 16.7464 27.5814 17.6389V19.4239H26.6464V17.7664C26.6464 17.3839 26.5189 17.0864 26.1364 17.0864C25.8814 17.0864 25.7539 17.2564 25.6689 17.4264C25.6264 17.4689 25.6264 17.5539 25.6264 17.6389V19.4239H24.6914L24.7339 15.0039Z" fill="#231F20"/>
<path d="M18.2334 19.04C18.0634 19.125 17.6809 19.21 17.1709 19.21C15.7259 19.21 15.0034 18.275 14.9609 17.085C14.9609 15.64 15.9809 14.875 17.2134 14.875C17.6809 14.875 18.0634 14.96 18.2334 15.0875L18.0634 15.8525C17.8934 15.7675 17.5959 15.6825 17.2559 15.6825C16.4909 15.6825 15.9384 16.1075 15.9384 17.0425C15.9384 17.8925 16.4484 18.4025 17.2984 18.4025C17.5959 18.4025 17.8934 18.36 18.0634 18.275L18.2334 19.04Z" fill="#007AC0"/>
<path d="M21.2927 18.4C21.2927 18.6975 21.2927 18.9525 21.3352 19.1225H20.4852L20.4427 18.825C20.2302 19.08 19.9327 19.2075 19.5927 19.2075C18.9977 19.2075 18.6152 18.74 18.6152 18.2725C18.6152 17.465 19.2952 17.125 20.3577 17.125V17.0825C20.3577 16.9125 20.2727 16.7 19.8052 16.7C19.5077 16.7 19.1677 16.785 18.9552 16.9125L18.7852 16.3175C18.9977 16.19 19.4227 16.0625 19.9752 16.0625C20.9952 16.0625 21.2927 16.6575 21.2927 17.38V18.4ZM20.3577 17.72C19.8477 17.72 19.4652 17.8475 19.4652 18.1875C19.4652 18.4425 19.6352 18.57 19.8477 18.57C20.0602 18.57 20.2727 18.4 20.3152 18.23C20.3152 18.1875 20.3152 18.145 20.3152 18.06L20.3577 17.72Z" fill="#007AC0"/>
<path d="M22.0157 18.3584C22.1857 18.4859 22.5682 18.5709 22.8232 18.6134C23.1207 18.6134 23.2057 18.5284 23.2057 18.3584C23.2057 18.1884 23.1207 18.1459 22.7382 18.0184C22.1007 17.8059 21.8882 17.4659 21.8882 17.1259C21.8882 16.5734 22.3557 16.1484 23.1207 16.1484C23.4607 16.1484 23.8007 16.2334 23.9707 16.3184L23.8007 16.9559C23.6732 16.8709 23.4182 16.7859 23.1632 16.7859C22.9507 16.7859 22.8232 16.8709 22.8232 17.0409C22.8232 17.1684 22.9507 17.2534 23.3332 17.3809C23.8857 17.5934 24.1407 17.8909 24.1407 18.3159C24.1407 18.8684 23.7157 19.2934 22.8232 19.2934C22.4407 19.2934 22.0582 19.2084 21.8457 19.0809L22.0157 18.3584Z" fill="#007AC0"/>
<path d="M24.6929 14.7891H25.6279V16.5316C25.7129 16.4041 25.8404 16.2766 26.0104 16.2341C26.1379 16.1491 26.3079 16.1066 26.4779 16.1066C27.0729 16.1066 27.5404 16.5316 27.5404 17.4241V19.2091H26.6054V17.5516C26.6054 17.1691 26.4779 16.8716 26.0954 16.8716C25.8404 16.8716 25.7129 17.0416 25.6279 17.2116C25.5854 17.2541 25.5854 17.3391 25.5854 17.4241V19.2091H24.6504L24.6929 14.7891Z" fill="#007AC0"/>
<path d="M3.82617 14.2798C3.82617 13.6423 4.42117 13.0898 5.14367 13.0898L5.18617 19.1248H3.82617V14.2798Z" fill="white"/>
<path d="M5.31273 19.2514H3.78273L3.74023 14.2789C3.74023 13.9814 3.86773 13.6839 4.08023 13.4289C4.33523 13.1739 4.71773 13.0039 5.14273 13.0039H5.22773L5.31273 19.2514ZM3.95273 19.0389H5.10023V13.2164C4.76023 13.2589 4.46273 13.3864 4.25023 13.5989C4.03773 13.8114 3.95273 14.0664 3.95273 14.3214V19.0389Z" fill="white"/>
<path d="M6.79945 18.8703V14.3228C6.79945 13.9403 6.58695 13.6428 6.28945 13.3878C6.07695 13.2178 5.77945 13.1328 5.43945 13.1328V13.3878L5.48195 17.9353C5.48195 18.3178 5.69445 18.6153 5.99195 18.8703C6.20445 19.0403 6.50195 19.1253 6.84195 19.1253L6.79945 18.8703Z" fill="white"/>
<path d="M6.9275 19.2519H6.8C6.46 19.2519 6.1625 19.1669 5.9075 18.9544C5.5675 18.6994 5.355 18.3594 5.355 17.9769L5.3125 13.0469H5.3975C5.7375 13.0469 6.035 13.1319 6.29 13.3444C6.63 13.5994 6.8425 13.9394 6.8425 14.3219L6.9275 19.2519ZM5.525 13.2169L5.5675 17.9769C5.5675 18.2744 5.7375 18.6144 6.035 18.8269C6.2475 18.9969 6.46 19.0819 6.715 19.0819L6.6725 14.3219C6.6725 13.9819 6.5025 13.6844 6.205 13.4719C6.035 13.3019 5.78 13.2169 5.525 13.2169Z" fill="white"/>
<path d="M10.0319 14.3228C10.0319 13.6853 9.43687 13.1328 8.67188 13.1328L8.71438 19.1678H10.0319V14.3228Z" fill="white"/>
<path d="M10.1584 19.2948H8.62844L8.58594 13.0898H8.67094C9.43594 13.0898 10.1159 13.6848 10.1159 14.3648L10.1584 19.2948ZM8.79844 19.0823H9.94594L9.90344 14.3223C9.90344 13.7273 9.39344 13.2598 8.75594 13.2173L8.79844 19.0823Z" fill="white"/>
<path d="M7.09914 18.8708L7.05664 14.3233C7.05664 13.9408 7.26914 13.6433 7.56664 13.4308C7.77914 13.2608 8.07664 13.1758 8.41664 13.1758V13.4308L8.45914 17.9783C8.45914 18.3608 8.24664 18.6583 7.94914 18.8708C7.73664 19.0408 7.43914 19.1258 7.09914 19.1258V18.8708Z" fill="white"/>
<path d="M7.0982 19.2519H7.0132L6.9707 14.3219C6.9707 13.9394 7.1407 13.5994 7.4807 13.3444C7.7357 13.1744 8.0332 13.0469 8.3732 13.0469H8.5007L8.5432 17.9769C8.5432 18.3594 8.3732 18.6994 8.0332 18.9544C7.7357 19.1244 7.4382 19.2519 7.0982 19.2519ZM8.3307 13.2169C8.0757 13.2169 7.8207 13.3019 7.6507 13.4719C7.3532 13.6844 7.1832 13.9819 7.1832 14.3219L7.2257 19.0819C7.4807 19.0819 7.7357 18.9969 7.9482 18.8269C8.2457 18.6144 8.4157 18.3169 8.4157 17.9769L8.3307 13.2169Z" fill="white"/>
<path d="M3.82617 14.2798C3.82617 13.6423 4.42117 13.0898 5.14367 13.0898L5.18617 19.1248H3.82617V14.2798Z" fill="#50B748"/>
<path d="M6.80141 18.8703V14.3228C6.80141 13.9403 6.58891 13.6428 6.29141 13.3878C6.07891 13.2178 5.78141 13.1328 5.44141 13.1328V13.3878L5.48391 17.9353C5.48391 18.3178 5.69641 18.6153 5.99391 18.8703C6.20641 19.0403 6.50391 19.1253 6.84391 19.1253L6.80141 18.8703Z" fill="#007AC0"/>
<path d="M10.0319 14.3228C10.0319 13.6853 9.43687 13.1328 8.67188 13.1328L8.71438 19.1678H10.0319V14.3228Z" fill="#007AC0"/>
<path d="M7.09914 18.8708L7.05664 14.3233C7.05664 13.9408 7.26914 13.6433 7.56664 13.4308C7.77914 13.2608 8.07664 13.1758 8.41664 13.1758V13.4308L8.45914 17.9783C8.45914 18.3608 8.24664 18.6583 7.94914 18.8708C7.73664 19.0408 7.43914 19.1258 7.09914 19.1258V18.8708Z" fill="#50B748"/>
<path d="M19.7636 22.9081C19.7211 23.0356 19.5936 23.0781 19.4661 23.0356L17.4261 22.0581C17.2986 22.0156 17.2561 21.8881 17.3411 21.7606C17.3836 21.6331 17.5111 21.5906 17.6386 21.6331L19.6786 22.6106C19.7636 22.6531 19.8061 22.8231 19.7636 22.9081Z" fill="#007AC0"/>
<path d="M15.8109 13.1758H14.1959L13.0059 15.3433L13.7284 16.6608L15.8109 13.1758Z" fill="white"/>
<path d="M13.7289 16.8303L12.8789 15.3853L14.1539 13.1328H15.9389L13.7289 16.8303ZM13.0914 15.3428L13.7714 16.4903L15.6839 13.2603H14.2814L13.0914 15.3428Z" fill="white"/>
<path d="M10.1152 13.1328L12.2827 16.8303V19.2528H13.6427L13.6002 16.8728L11.4327 13.1328H10.1152Z" fill="white"/>
<path d="M13.7283 19.3369H12.2408V16.8719L9.98828 13.0469H11.5183L13.7283 16.8294V19.3369ZM12.3683 19.1669H13.5583V16.9144L11.3908 13.2594H10.2433L12.3683 16.8294V19.1669Z" fill="white"/>
<path d="M15.8109 13.1758H14.1959L13.0059 15.3433L13.7284 16.6608L15.8109 13.1758Z" fill="#007AC0"/>
<path d="M10.1152 13.1328L12.2827 16.8303V19.2528H13.6427L13.6002 16.8728L11.4327 13.1328H10.1152Z" fill="#50B748"/>
<path d="M3.99516 20.825C4.03766 20.8675 4.08016 20.8675 4.12266 20.8675C4.16516 20.8675 4.20766 20.8675 4.25016 20.825C4.29266 20.7825 4.29266 20.74 4.33516 20.6975V20.655C4.29266 20.6975 4.25016 20.6975 4.20766 20.6975C4.12266 20.6975 4.08016 20.655 4.08016 20.57C4.08016 20.485 4.12266 20.4 4.20766 20.315H3.91016L3.95266 20.1875H4.88766L4.84516 20.315H4.50516C4.50516 20.4 4.54766 20.4 4.63266 20.4H4.67516L4.71766 20.485C4.63266 20.6125 4.59016 20.6975 4.59016 20.74C4.59016 20.825 4.54766 20.8675 4.54766 20.91C4.54766 20.9525 4.54766 20.9525 4.54766 20.995L4.46266 21.0375C4.46266 20.995 4.42016 20.9525 4.42016 20.91C4.42016 20.8675 4.42016 20.825 4.42016 20.7825C4.42016 20.6975 4.46266 20.6125 4.54766 20.485C4.50516 20.485 4.42016 20.4425 4.42016 20.4C4.37766 20.3575 4.33516 20.315 4.33516 20.23C4.25016 20.4 4.20766 20.485 4.16516 20.57C4.16516 20.57 4.16516 20.57 4.16516 20.6125C4.16516 20.655 4.16516 20.655 4.20766 20.655C4.25016 20.655 4.29266 20.6125 4.33516 20.57H4.46266C4.46266 20.57 4.46266 20.6125 4.46266 20.655C4.46266 20.6975 4.46266 20.74 4.46266 20.7825C4.42016 20.995 4.29266 21.08 4.12266 21.08C4.08016 21.08 4.03766 21.08 4.03766 21.0375C4.03766 21.0375 3.99516 20.995 3.95266 20.9525C3.95266 20.91 3.91016 20.825 3.91016 20.6975L3.99516 20.6125C3.95266 20.655 3.95266 20.74 3.99516 20.825Z" fill="#007AC0"/>
<path d="M4.97203 20.3577L4.80203 21.0802H4.67453L4.84453 20.3577H4.75953L4.80203 20.2302H4.88703V20.1877C4.88703 20.1452 4.84453 20.0602 4.80203 20.0602C4.75953 19.9752 4.71703 19.9752 4.67453 19.9752C4.63203 19.9752 4.54703 19.9752 4.46203 20.0177C4.41953 20.0177 4.37703 20.0602 4.24953 20.1452L4.20703 20.0602C4.29203 19.9752 4.37703 19.9327 4.46203 19.8902C4.54703 19.8477 4.63203 19.8477 4.71703 19.8477C4.80203 19.8477 4.88703 19.8902 4.92953 19.9327C5.01453 19.9752 5.05703 20.0602 5.05703 20.1452C5.05703 20.1877 5.05703 20.1877 5.05703 20.2302H5.14203L5.09953 20.3577H4.97203Z" fill="#007AC0"/>
<path d="M5.69562 20.358L5.52562 21.0805H5.44063C5.39813 20.9955 5.35562 20.9105 5.27062 20.868C5.18562 20.8255 5.10063 20.783 5.01562 20.783V20.6555C5.05813 20.613 5.18562 20.5705 5.31312 20.4855C5.35562 20.443 5.48312 20.443 5.61062 20.358H5.01562L5.05812 20.2305H5.86563L5.82312 20.358H5.69562ZM5.56813 20.4855C5.48313 20.528 5.35562 20.5705 5.18562 20.6555C5.31312 20.698 5.39812 20.783 5.48312 20.868L5.56813 20.4855Z" fill="#007AC0"/>
<path d="M6.46031 20.3589L6.29031 21.0814H6.16281V20.9964V20.9539C6.16281 20.9114 6.12031 20.8264 6.07781 20.7839C6.03531 20.6989 5.99281 20.6989 5.90781 20.6989C5.86531 20.6989 5.86531 20.6989 5.82281 20.7414C5.78031 20.7839 5.78031 20.7839 5.78031 20.8264C5.78031 20.8689 5.82281 20.9114 5.86531 20.9114C5.86531 20.9114 5.90781 20.9114 5.95031 20.9114V21.0389C5.90781 21.0389 5.86531 21.0814 5.82281 21.0814C5.78031 21.0814 5.73781 21.0814 5.73781 21.0389C5.69531 20.9964 5.69531 20.9539 5.69531 20.9114C5.69531 20.8264 5.73781 20.7414 5.82281 20.6989C5.86531 20.6564 5.95031 20.6139 5.99281 20.6139C6.12031 20.6139 6.20531 20.6989 6.24781 20.8264L6.33281 20.4439H5.73781L5.78031 20.3164H6.58781L6.54531 20.4439H6.46031V20.3589Z" fill="#007AC0"/>
<path d="M6.67203 20.3586L6.54453 20.9536H6.58703C6.67203 20.9536 6.71453 20.9536 6.79953 20.9111C6.92703 20.8686 6.96953 20.7836 6.96953 20.6986C6.96953 20.6561 6.92703 20.6561 6.88453 20.6136C6.88453 20.6136 6.84203 20.6136 6.75703 20.6561L6.71453 20.5286C6.75703 20.5286 6.75703 20.4861 6.79953 20.4861C6.84203 20.4861 6.88453 20.4861 6.92703 20.4861C7.01203 20.4861 7.05453 20.5286 7.05453 20.6561C7.05453 20.6986 7.05453 20.6986 7.05453 20.7411C7.05453 20.8261 6.96953 20.9111 6.88453 20.9536C6.79953 20.9961 6.71453 21.0386 6.62953 21.0811C6.58703 21.0811 6.45953 21.0811 6.33203 21.0811L6.50203 20.3586H6.41703L6.45953 20.2311H6.96953V20.1886C6.96953 20.1461 6.96953 20.1036 6.92703 20.1036C6.88453 20.1036 6.88453 20.0611 6.84203 20.0611C6.79953 20.0611 6.67203 20.1036 6.54453 20.1461V20.0611C6.67203 19.9761 6.79953 19.9336 6.88453 19.9336C6.92703 19.9336 7.01203 19.9336 7.05453 19.9761C7.09703 20.0186 7.13953 20.0611 7.13953 20.1461V20.1886H7.22453L7.18203 20.3161L6.67203 20.3586Z" fill="#007AC0"/>
<path d="M7.35219 20.358L7.18219 21.0805H7.05469L7.22469 20.358H7.09719L7.13969 20.2305H7.47969L7.43719 20.358H7.35219Z" fill="#007AC0"/>
<path d="M7.60852 21.1664C7.52352 21.1664 7.43852 21.1664 7.39602 21.1239C7.35352 21.0814 7.35352 20.9964 7.35352 20.9539C7.35352 20.9114 7.35352 20.8689 7.35352 20.8264C7.39602 20.6989 7.48102 20.5714 7.60852 20.4439H7.35352L7.39602 20.3164H7.82102L7.77852 20.4439C7.69352 20.4864 7.60852 20.5289 7.56602 20.6139C7.48102 20.6989 7.43852 20.7839 7.43852 20.8689C7.43852 20.9114 7.43852 20.9539 7.43852 20.9964C7.43852 21.0814 7.48102 21.1239 7.60852 21.1239C7.60852 21.1239 7.65102 21.1239 7.69352 21.0814L7.65102 21.2514C7.65102 21.1239 7.60852 21.1664 7.60852 21.1664Z" fill="#007AC0"/>
<path d="M8.24586 20.3584C8.28836 20.3584 8.37336 20.4009 8.41586 20.4434C8.45836 20.4859 8.50086 20.5284 8.50086 20.6134C8.50086 20.6984 8.45836 20.7834 8.37336 20.8259C8.33086 20.8684 8.28836 20.8684 8.20336 20.8684C8.20336 20.8684 8.20336 20.8684 8.16086 20.8684L8.20336 20.7409C8.24586 20.7409 8.24586 20.7409 8.24586 20.7409C8.28836 20.7409 8.28836 20.7409 8.33086 20.6984C8.33086 20.6984 8.37336 20.6559 8.37336 20.6134C8.37336 20.5709 8.33086 20.5284 8.24586 20.5284L8.07586 21.0809H7.94836C7.94836 20.9959 7.90586 20.9109 7.86336 20.8684C7.82086 20.7834 7.73586 20.7834 7.69336 20.7834V20.6559C7.73586 20.6134 7.82086 20.5709 7.90586 20.5284L8.11836 20.4009H7.73586L7.77836 20.2734H8.67086L8.62836 20.4009L8.24586 20.3584ZM8.07586 20.5284C8.03336 20.5284 7.94836 20.6134 7.86336 20.6984C7.90586 20.7409 7.94836 20.7834 7.99086 20.9109L8.07586 20.5284Z" fill="#007AC0"/>
<path d="M9.47742 20.3575L9.30742 21.08H9.17992L9.26492 20.6975C9.26492 20.6975 9.26492 20.6975 9.26492 20.655C9.26492 20.6125 9.26492 20.6125 9.22242 20.6125C9.17992 20.6125 9.13742 20.655 9.09492 20.6975C9.00992 20.825 8.96742 20.8675 8.96742 20.8675C8.92492 20.91 8.83992 20.9525 8.79742 20.9525C8.75492 20.9525 8.71242 20.9525 8.66992 20.91L8.71242 20.74C8.75492 20.7825 8.79742 20.825 8.79742 20.825C8.83992 20.825 8.83992 20.7825 8.88242 20.74C8.92492 20.655 8.96742 20.6125 8.96742 20.5275C8.96742 20.4425 8.92492 20.3575 8.83992 20.315H8.75492L8.79742 20.1875H9.51992L9.47742 20.315V20.3575ZM9.34992 20.3575H9.09492C9.13742 20.4 9.13742 20.4425 9.13742 20.5275C9.17992 20.485 9.22242 20.485 9.22242 20.485C9.26492 20.485 9.26492 20.485 9.30742 20.5275L9.34992 20.3575Z" fill="#007AC0"/>
<path d="M9.94602 21.208C9.90352 21.1655 9.81852 21.0805 9.73352 21.038C9.64852 20.9955 9.56352 20.953 9.47852 20.953V20.783C9.52102 20.783 9.56352 20.783 9.60602 20.783C9.64852 20.783 9.73352 20.783 9.77602 20.7405C9.86102 20.698 9.90352 20.6555 9.94602 20.613V20.5705C9.94602 20.528 9.94602 20.528 9.90352 20.4855C9.86102 20.4855 9.86102 20.443 9.81852 20.443C9.73352 20.443 9.69102 20.443 9.69102 20.528C9.69102 20.5705 9.69102 20.5705 9.77602 20.5705L9.69102 20.698C9.64852 20.698 9.64852 20.698 9.60602 20.6555C9.56352 20.6555 9.56352 20.613 9.56352 20.5705V20.528C9.56352 20.443 9.60602 20.4005 9.69102 20.358C9.69102 20.4005 9.77602 20.4005 9.81852 20.4005C9.86102 20.4005 9.94602 20.4005 9.98852 20.443C10.031 20.4855 10.0735 20.528 10.0735 20.613V20.6555C10.031 20.783 9.94602 20.868 9.77602 20.953C9.86102 20.9955 9.94602 21.0805 10.031 21.1655L9.94602 21.208ZM9.52102 20.358L9.56352 20.2305H10.2435L10.201 20.4005L9.52102 20.358Z" fill="#007AC0"/>
<path d="M10.2427 20.868C10.2852 20.9105 10.3277 20.9105 10.3702 20.9105C10.4127 20.9105 10.4552 20.9105 10.4977 20.868C10.5402 20.8255 10.5402 20.783 10.5827 20.7405V20.698C10.5402 20.7405 10.4977 20.7405 10.4552 20.7405C10.3702 20.7405 10.3277 20.698 10.3277 20.613C10.3277 20.528 10.3702 20.443 10.4552 20.358H10.1577L10.2002 20.2305H11.1352L11.0502 20.4005H10.7102C10.7102 20.4855 10.7527 20.4855 10.8377 20.4855H10.8802L10.9227 20.613C10.8377 20.7405 10.7952 20.8255 10.7952 20.868C10.7952 20.953 10.7527 20.9955 10.7527 21.038C10.7527 21.0805 10.7527 21.0805 10.7527 21.123L10.6677 21.1655C10.6677 21.123 10.6252 21.0805 10.6252 21.038C10.6252 20.9955 10.6252 20.953 10.6252 20.9105C10.6252 20.8255 10.6677 20.7405 10.7527 20.613C10.7102 20.613 10.6677 20.5705 10.6252 20.528C10.5827 20.4855 10.5402 20.443 10.5402 20.358C10.4552 20.4005 10.4127 20.4855 10.3702 20.5705C10.3702 20.5705 10.3702 20.5705 10.3702 20.613C10.3702 20.613 10.3702 20.6555 10.4127 20.6555C10.4552 20.6555 10.4977 20.613 10.5402 20.5705H10.6677C10.6677 20.613 10.6677 20.613 10.6677 20.6555C10.6677 20.698 10.6677 20.7405 10.6677 20.783C10.6252 20.9955 10.4977 21.0805 10.3277 21.0805C10.2852 21.0805 10.2427 21.0805 10.2427 21.038C10.2427 21.038 10.2002 20.9955 10.1577 20.9955C10.1577 20.953 10.1152 20.868 10.1152 20.7405L10.2002 20.6555C10.2002 20.698 10.2002 20.783 10.2427 20.868Z" fill="#007AC0"/>
<path d="M11.8581 20.4019C11.9006 20.4019 11.9856 20.4444 12.0281 20.4869C12.0706 20.5294 12.1131 20.5719 12.1131 20.6569C12.1131 20.7419 12.0706 20.8269 12.0281 20.8694C11.9856 20.9119 11.9431 20.9119 11.8581 20.9119C11.8581 20.9119 11.8581 20.9119 11.8156 20.9119L11.8581 20.7844C11.9006 20.7844 11.9006 20.7844 11.9006 20.7844C11.9431 20.7844 11.9431 20.7844 11.9856 20.7419C11.9856 20.6994 12.0281 20.6994 12.0281 20.6569C12.0281 20.6144 11.9856 20.5719 11.9006 20.5719L11.7731 21.1669H11.6456C11.6456 21.0819 11.6031 20.9969 11.5606 20.9544C11.5181 20.8694 11.4331 20.8694 11.3906 20.8694V20.7419C11.4331 20.6994 11.5181 20.6569 11.6031 20.6144L11.8156 20.4869H11.4331L11.4756 20.3594H12.3681L12.1981 20.4019H11.8581ZM11.6881 20.5719C11.6456 20.5719 11.5606 20.6569 11.4756 20.7419C11.5181 20.7844 11.5606 20.8269 11.6031 20.9544L11.6881 20.5719Z" fill="#007AC0"/>
<path d="M12.8358 20.4014L12.6658 21.1239H12.5383C12.4958 21.0389 12.4533 20.9964 12.3683 20.9114C12.2833 20.8689 12.1983 20.8264 12.1133 20.8264V20.6989C12.2833 20.6139 12.4533 20.5289 12.7083 20.4439H12.1133L12.1558 20.3164H12.9208V20.4014H12.8358ZM12.3258 21.1664C12.2833 21.1239 12.2833 21.0814 12.1983 21.0389L12.2833 20.9114C12.3258 20.9539 12.3683 20.9964 12.4108 21.0389L12.3258 21.1664ZM12.6658 20.5714C12.5383 20.6139 12.4108 20.6564 12.3258 20.7414C12.4108 20.7839 12.5383 20.8689 12.5808 20.9539L12.6658 20.5714Z" fill="#007AC0"/>
<path d="M12.836 20.8259C12.7935 20.8259 12.7935 20.8259 12.751 20.7834C12.7085 20.7834 12.7085 20.7409 12.666 20.7409C12.666 20.7409 12.666 20.7409 12.666 20.6984C12.666 20.6984 12.666 20.6134 12.666 20.5709C12.7085 20.6134 12.751 20.6559 12.751 20.6559C12.7935 20.6559 12.7935 20.6984 12.836 20.6984C12.8785 20.6984 12.921 20.6559 12.921 20.6559C12.921 20.6559 12.921 20.6134 12.8785 20.6134C12.8785 20.6134 12.836 20.6134 12.7935 20.6559V20.5284C12.836 20.4859 12.8785 20.4859 12.921 20.4859C13.006 20.4859 13.006 20.5284 13.006 20.6134V20.6559C13.006 20.6984 12.9635 20.7409 12.921 20.7834C12.921 20.8259 12.8785 20.8259 12.836 20.8259ZM12.7935 20.4009L12.836 20.2734H13.2185L13.176 20.4009H12.7935Z" fill="#007AC0"/>
<path d="M13.8119 20.4019L13.6419 21.1244H13.5144V21.0394V20.9969C13.5144 20.9119 13.4719 20.8694 13.4294 20.8269C13.3869 20.7419 13.3444 20.7419 13.2594 20.7419C13.2169 20.7419 13.2169 20.7419 13.1744 20.7844C13.1319 20.8269 13.1319 20.8269 13.1319 20.8694C13.1319 20.9119 13.1744 20.9544 13.2169 20.9544C13.2169 20.9544 13.2594 20.9544 13.3019 20.9544V21.0819C13.2594 21.0819 13.2169 21.1244 13.1744 21.1244C13.1319 21.1244 13.0894 21.1244 13.0894 21.0819C13.0469 21.0394 13.0469 20.9969 13.0469 20.9544C13.0469 20.8694 13.0894 20.7844 13.1744 20.7419C13.2169 20.6994 13.3019 20.6569 13.3444 20.6569C13.4719 20.6569 13.5569 20.7419 13.5994 20.8694L13.6844 20.4869H13.0894L13.1319 20.3594H13.9394L13.8969 20.4019H13.8119Z" fill="#007AC0"/>
</svg>
