<svg width="34" height="34" viewBox="0 0 34 34" fill="none" xmlns="http://www.w3.org/2000/svg">
<rect width="34" height="34" fill="white"/>
<path d="M13.5156 16.0195H20.3285V9.20661H13.5156V16.0195Z" fill="white"/>
<path d="M19.1056 11.046C18.0824 12.5972 16.5813 14.6523 13.793 14.4823V9.48678H20.0497C20.0497 9.48678 19.683 10.1714 19.1056 11.046Z" fill="#0071BB"/>
<path d="M13.793 14.8135V15.8828H20.1888V9.48701C20.1888 9.48701 18.1416 15.2226 13.793 14.8135Z" fill="#E5A812"/>
<path d="M15.9478 11.1521C15.0648 11.1521 14.3496 11.8488 14.3496 12.7123C14.3496 13.4242 14.837 14.0221 15.5055 14.2109C16.3007 13.9585 16.961 13.5127 17.5222 12.9917C17.5393 12.9017 17.5475 12.8073 17.5475 12.7123C17.5475 11.8488 16.8323 11.1521 15.9478 11.1521Z" fill="#3880C3"/>
<path d="M17.1293 12.7498C17.1293 13.4029 16.6012 13.9336 15.9467 13.9336C15.2941 13.9336 14.7656 13.4029 14.7656 12.7498C14.7656 12.0977 15.2941 11.5699 15.9467 11.5699C16.6012 11.5699 17.1293 12.0977 17.1293 12.7498Z" fill="#5E93C9"/>
<path d="M16.713 12.6828C16.713 13.1458 16.3667 13.5156 15.9453 13.5156C15.5238 13.5156 15.1836 13.1458 15.1836 12.6828C15.1836 12.2224 15.5238 11.8472 15.9453 11.8472C16.3667 11.8472 16.713 12.2224 16.713 12.6828Z" fill="#8AADD8"/>
<path d="M16.2952 12.6838C16.2952 12.9164 16.1071 13.1016 15.8774 13.1016C15.6477 13.1016 15.4609 12.9164 15.4609 12.6838C15.4609 12.4525 15.6477 12.2673 15.8774 12.2673C16.1071 12.2673 16.2952 12.4525 16.2952 12.6838Z" fill="#BBCEDE"/>
<path d="M5.88546 18.3291H6.27221C6.4028 18.3291 6.49664 18.3519 6.55157 18.3975C6.60311 18.4427 6.63038 18.5055 6.63038 18.5855C6.63038 18.6723 6.60311 18.738 6.55157 18.7838C6.49664 18.83 6.40111 18.8514 6.26493 18.8514H5.88546V18.3291ZM5.00195 20.5352H6.51402C6.57716 20.5352 6.70959 20.5226 6.90515 20.4977C7.05445 20.4793 7.1647 20.4498 7.2387 20.407C7.35756 20.3409 7.45099 20.249 7.51832 20.1348C7.58733 20.022 7.62112 19.8912 7.62112 19.7485C7.62112 19.5712 7.57312 19.425 7.47693 19.3081C7.38157 19.1919 7.2306 19.1092 7.02732 19.0615C7.16066 19.0179 7.2623 18.9541 7.33264 18.878C7.43718 18.7603 7.49039 18.6199 7.49039 18.4555C7.49039 18.2606 7.41761 18.0961 7.2705 17.9646C7.12453 17.8323 6.91408 17.7647 6.64124 17.7647H5.00195V20.5352ZM5.88546 19.3797H6.32859C6.484 19.3797 6.59007 19.4053 6.65204 19.4546C6.71336 19.5032 6.74456 19.5687 6.74456 19.65C6.74456 19.7379 6.71269 19.8076 6.65138 19.8595C6.59007 19.912 6.48307 19.9372 6.33144 19.9372H5.88546" fill="#0071BB"/>
<path d="M8.74767 18.3241H9.12958C9.28851 18.3241 9.39642 18.3477 9.45461 18.3964C9.51217 18.4428 9.5406 18.5123 9.5406 18.6004C9.5406 18.6618 9.52246 18.7144 9.48658 18.7616C9.45019 18.8087 9.40252 18.838 9.3458 18.8488C9.23056 18.8751 9.15334 18.8867 9.11485 18.8867H8.74767V18.3241ZM8.74767 20.5352V19.4105H8.82361C8.90425 19.4105 8.97561 19.4307 9.03835 19.4739C9.08259 19.5072 9.13586 19.5778 9.19615 19.6878L9.66171 20.5352H10.6525L10.2259 19.7329C10.2041 19.6926 10.1639 19.6356 10.1035 19.5604C10.0428 19.485 9.99653 19.4359 9.96335 19.4136C9.91549 19.3797 9.84046 19.3454 9.73608 19.3117C9.86691 19.283 9.97054 19.2446 10.0449 19.2025C10.1632 19.134 10.2564 19.0428 10.3232 18.9319C10.3909 18.8194 10.4246 18.6879 10.4246 18.5339C10.4246 18.3569 10.381 18.2098 10.2925 18.086C10.205 17.9632 10.0893 17.8785 9.94627 17.8345C9.80314 17.7914 9.59499 17.7648 9.32516 17.7648H7.86523V20.5352" fill="#0071BB"/>
<path d="M11.8897 19.4805L12.2007 18.4852L12.5088 19.4805H11.8897ZM12.8357 20.5352H13.7534L12.695 17.7649H11.729L10.6641 20.5352H11.5592L11.7035 20.0782H12.6935" fill="#0071BB"/>
<path d="M15.5798 19.3941L16.3511 19.6126C16.2996 19.8159 16.217 19.987 16.1055 20.1237C15.9948 20.2595 15.8567 20.3618 15.6923 20.4315C15.5278 20.5002 15.3199 20.5352 15.0648 20.5352C14.7561 20.5352 14.5041 20.4934 14.3089 20.4093C14.1141 20.324 13.9441 20.1754 13.804 19.963C13.6617 19.7499 13.5918 19.4772 13.5918 19.1448C13.5918 18.7018 13.7145 18.3613 13.9654 18.1232C14.2146 17.8845 14.566 17.7649 15.0225 17.7649C15.3811 17.7649 15.6598 17.8346 15.8639 17.9705C16.0686 18.1081 16.2202 18.3179 16.3206 18.5997L15.5442 18.7655C15.5166 18.6831 15.4894 18.6222 15.4586 18.585C15.4106 18.5197 15.3499 18.4721 15.28 18.4369C15.2084 18.4027 15.1293 18.385 15.0433 18.385C14.8454 18.385 14.6935 18.4604 14.5882 18.6107C14.5074 18.7231 14.4679 18.8981 14.4679 19.1373C14.4679 19.4333 14.5161 19.6372 14.611 19.7474C14.7057 19.8572 14.8408 19.912 15.0137 19.912C15.1812 19.912 15.3075 19.8673 15.3936 19.7799C15.4799 19.6919 15.5413 19.5631 15.5798 19.3941Z" fill="#0071BB"/>
<path d="M18.1801 18.3291H18.5666C18.6988 18.3291 18.7918 18.3519 18.8461 18.3975C18.8989 18.4427 18.925 18.5055 18.925 18.5855C18.925 18.6723 18.8989 18.738 18.8461 18.7838C18.7918 18.83 18.6973 18.8514 18.5609 18.8514H18.1801V18.3291ZM17.2969 20.5352H18.8093C18.8741 20.5352 19.0051 20.5226 19.2017 20.4977C19.3496 20.4793 19.4605 20.4498 19.5349 20.407C19.6518 20.3409 19.7456 20.249 19.8153 20.1348C19.8825 20.022 19.9168 19.8912 19.9168 19.7485C19.9168 19.5712 19.8684 19.425 19.7737 19.3081C19.6761 19.1919 19.5271 19.1092 19.3227 19.0615C19.4553 19.0179 19.558 18.9541 19.6281 18.878C19.7323 18.7603 19.7845 18.6199 19.7845 18.4555C19.7845 18.2606 19.7121 18.0961 19.5652 17.9646C19.4179 17.8323 19.2099 17.7647 18.9365 17.7647H17.2969V20.5352ZM18.1801 19.3797H18.6236C18.7793 19.3797 18.8863 19.4053 18.9486 19.4546C19.0101 19.5032 19.0386 19.5687 19.0386 19.65C19.0386 19.7379 19.0081 19.8076 18.9466 19.8595C18.885 19.912 18.7786 19.9372 18.6275 19.9372H18.1801" fill="#0071BB"/>
<path d="M21.0126 19.4805L21.3243 18.4852L21.6312 19.4805H21.0126ZM21.9581 20.5352H22.8772L21.8196 17.7649H20.8525L19.7891 20.5352H20.6838L20.8272 20.0782H21.817" fill="#0071BB"/>
<path d="M22.9238 17.7648H23.7399L24.8113 19.2978V17.7648H25.6398V20.5352H24.8113L23.7472 19.0126V20.5352H22.9238" fill="#0071BB"/>
<path d="M25.9902 17.7648H26.8673V18.8122L27.7857 17.7648H28.9523L27.9158 18.8087L28.9999 20.5352H27.9202L27.3228 19.4044L26.8673 19.8646V20.5352H25.9902" fill="#0071BB"/>
<path d="M26.0025 22.5507L26.0047 22.5474L26.0068 22.5445L26.0025 22.5507ZM27.066 23.4009C27.0763 23.4226 27.0824 23.4426 27.0824 23.4601C27.0824 23.4773 27.0785 23.4931 27.0709 23.5075C27.0114 23.6223 26.7557 23.7033 26.6052 23.7294C26.5332 23.7272 26.5162 23.6853 26.5121 23.6584L26.5483 23.03C26.7709 23.1155 27.032 23.3674 27.066 23.4009ZM25.8877 23.6515C25.6955 23.5608 25.4762 23.403 25.4662 23.3955C25.4395 23.3776 25.4255 23.3588 25.4207 23.3366L25.4189 23.3177C25.4189 23.284 25.4347 23.2405 25.4609 23.1997V23.199L25.4621 23.196C25.5845 22.9915 25.838 22.8208 25.9488 22.7527C25.9007 23.0454 25.8902 23.4618 25.8877 23.6515ZM28.9381 22.4414C28.6991 22.282 28.5022 22.3885 28.4308 22.4659L28.4163 22.4889L28.4133 22.4967C28.1264 22.3401 27.6465 22.4079 27.6416 22.4091C27.3931 22.4377 27.2729 22.4748 27.2364 22.4878C26.8852 22.3553 26.6377 22.4828 26.5273 22.5642C26.4253 22.4603 26.3213 22.4091 26.2173 22.4149C26.0826 22.4244 26.0115 22.5239 26.0047 22.5335L25.9934 22.5521L25.9916 22.557C25.7429 22.3408 25.3449 22.4158 25.1489 22.4734L25.1562 22.4557L25.1488 22.4659L25.1612 22.4457C25.1844 22.3767 25.3104 22.0427 25.5966 21.9511C25.8133 21.8815 26.0787 21.9662 26.3847 22.2016C26.4015 22.2157 26.424 22.2222 26.4472 22.2195C26.471 22.2163 26.4924 22.2043 26.5064 22.1857C26.5355 22.1473 26.5281 22.0929 26.4904 22.0637C26.1354 21.7914 25.8161 21.6978 25.5413 21.7863C25.1396 21.9152 24.9985 22.3811 24.996 22.3895C24.9564 22.4722 24.9194 22.615 24.8851 22.811C24.7656 22.5646 24.6545 22.434 24.5396 22.4177C24.4738 22.4091 24.4327 22.4344 24.4095 22.4564L24.3971 22.4592L24.3898 22.461L24.3839 22.4656C24.2942 22.5376 24.222 22.9144 24.1666 23.5809C24.1165 23.551 24.0546 23.5148 23.975 23.4717C24.0305 23.3762 24.0744 23.263 24.1034 23.1214C24.118 23.0281 24.17 22.5729 23.8193 22.4592L23.8166 22.4578L23.8143 22.4575C23.7735 22.45 23.5632 22.419 23.3921 22.5385C23.2786 22.6186 23.2089 22.7456 23.1852 22.9156V22.9202C23.1849 22.9502 23.1892 23.1025 23.2942 23.1955C23.3629 23.2545 23.4516 23.2749 23.5586 23.257C23.6054 23.2509 23.6386 23.2058 23.6314 23.1586C23.6284 23.1356 23.6159 23.1151 23.5976 23.1017C23.5787 23.088 23.5542 23.082 23.5312 23.0861C23.4935 23.0918 23.441 23.0933 23.4098 23.0653C23.3618 23.0227 23.3597 22.9404 23.3592 22.9324C23.375 22.8168 23.4191 22.7327 23.4913 22.6818C23.5913 22.6112 23.7195 22.6198 23.7725 22.6272C23.9194 22.6751 23.9412 22.8622 23.9412 22.9697C23.9412 23.0094 23.9383 23.0513 23.9329 23.088V23.0892C23.9057 23.2194 23.8631 23.3307 23.8074 23.419L23.81 23.4165L23.7452 23.4986L23.7316 23.5153C23.5844 23.6684 23.4188 23.6584 23.4171 23.6584C22.7698 23.5799 22.7304 22.4575 22.7295 22.4466C22.7281 22.3977 22.6881 22.3594 22.6403 22.36C22.5928 22.3615 22.5544 22.401 22.5551 22.4484C22.5567 22.5016 22.6001 23.7342 23.3974 23.8318H23.4019C23.429 23.8338 23.6745 23.836 23.8747 23.6141C24.0401 23.7036 24.1541 23.7745 24.1685 23.7924C24.1917 23.8214 24.2312 23.8342 24.2642 23.8245C24.3012 23.8122 24.3258 23.7837 24.3277 23.7494C24.3725 23.1286 24.4525 22.6451 24.4964 22.5996L24.4798 22.6085C24.4931 22.6062 24.5035 22.598 24.5133 22.5907H24.514C24.5204 22.5923 24.6237 22.6141 24.7987 23.0372C24.8064 23.0568 24.8236 23.0703 24.844 23.0797C24.8164 23.2796 24.7932 23.5055 24.7742 23.7556L24.7726 23.775L24.7723 23.7816C24.7723 23.8277 24.8077 23.8658 24.8528 23.869C24.9015 23.871 24.942 23.8355 24.9461 23.7876C24.9461 23.7802 24.9985 23.0782 25.0869 22.678L25.0924 22.677C25.1126 22.6691 25.5349 22.5111 25.7996 22.6412C25.6676 22.7268 25.44 22.8925 25.3144 23.105C25.3153 23.1027 25.2444 23.2007 25.2444 23.3183C25.2444 23.3326 25.246 23.3479 25.2489 23.3671C25.2628 23.4391 25.3039 23.4977 25.3666 23.5385C25.4246 23.5806 25.7259 23.795 25.9473 23.8651C25.9786 23.8719 26.0068 23.8667 26.0267 23.8502C26.0478 23.8355 26.061 23.8094 26.061 23.7814V23.7598C26.061 23.6732 26.0637 22.9075 26.1534 22.6269C26.163 22.6164 26.1886 22.591 26.23 22.5883C26.2752 22.5866 26.3323 22.6201 26.3944 22.6805C26.3861 22.8181 26.3406 23.6206 26.3386 23.657C26.3413 23.7451 26.4014 23.9047 26.6089 23.9047H26.6111L26.6167 23.9039H26.6176L26.6193 23.9036H26.6228C26.7046 23.8891 27.1107 23.8087 27.2258 23.5883C27.2469 23.5456 27.2568 23.5047 27.2568 23.4604C27.2568 23.4131 27.2446 23.3653 27.2206 23.3163L27.2047 23.2928C27.2023 23.2902 26.8568 22.9382 26.5593 22.8496L26.5631 22.7888L26.5652 22.7538L26.5845 22.7434C26.5886 22.7385 26.8034 22.4902 27.2043 22.6591C27.2258 22.6672 27.249 22.6677 27.2691 22.6612L27.2754 22.6591L27.2767 22.6579C27.2861 22.6549 27.403 22.6112 27.665 22.581C27.686 22.5784 28.1506 22.5206 28.3585 22.6663C28.3371 22.7667 28.3259 22.8757 28.3186 22.9753C28.2674 22.9336 28.2134 22.9062 28.1556 22.908C28.0755 22.9118 27.9999 22.9596 27.9297 23.0457C27.8969 22.9915 27.8597 22.9484 27.8136 22.9235C27.7281 22.8754 27.6465 22.8861 27.6078 22.8955L27.5996 22.8972H27.5992V22.8996C27.3898 22.9399 27.3199 23.2914 27.2995 23.4445C27.2674 23.7635 27.4819 23.796 27.4907 23.797C27.6906 23.8099 27.7922 23.6721 27.8182 23.5967C27.8331 23.551 27.81 23.5016 27.7661 23.4858C27.7185 23.4709 27.6702 23.4939 27.654 23.5385C27.6523 23.5435 27.621 23.6282 27.5118 23.6239C27.5052 23.6206 27.459 23.5985 27.4728 23.4646C27.4945 23.2844 27.568 23.0753 27.635 23.0672L27.6499 23.0638C27.6499 23.0638 27.6899 23.0526 27.7314 23.076C27.7764 23.1025 27.8107 23.1619 27.8306 23.2492C27.8384 23.2851 27.8685 23.3124 27.9052 23.3163C27.9442 23.3204 27.9785 23.3008 27.995 23.2672C28.0219 23.205 28.1009 23.0854 28.1634 23.0822C28.2004 23.0807 28.248 23.1283 28.2952 23.2134L28.3081 23.2272C28.3061 23.4613 28.3192 23.6547 28.3198 23.6635C28.3237 23.7113 28.3649 23.7477 28.4121 23.7439C28.4602 23.7398 28.4938 23.7031 28.4938 23.6568L28.4894 23.6372L28.4932 23.6528L28.4925 23.6444C28.4859 23.5248 28.4827 23.3988 28.4827 23.2796C28.4827 22.9401 28.5125 22.6977 28.5696 22.5752C28.5991 22.5474 28.6914 22.4858 28.8387 22.585C28.8555 22.5979 28.8802 22.6024 28.9037 22.5979C28.9273 22.5936 28.9476 22.5803 28.9598 22.5607C28.9851 22.5234 28.9763 22.4709 28.9381 22.4414ZM20.5542 23.1666C20.4158 23.0038 20.2306 22.9824 20.1422 22.9978C20.0854 23.0074 20.0418 23.0409 20.0067 23.0854L19.9986 23.0731L20.0006 23.0765L19.989 23.0626L19.9909 23.0638L19.9889 23.0612L19.9866 23.059C19.8699 22.9527 19.9215 22.7615 19.9303 22.7319L19.9311 22.731L19.9338 22.7208L19.9347 22.716C19.9936 22.6612 20.2266 22.4743 20.4972 22.6583C20.5181 22.7381 20.56 22.916 20.56 23.1002C20.56 23.1235 20.5562 23.1439 20.5542 23.1666ZM21.4932 22.4195L21.4902 22.419H21.4877C21.4383 22.419 21.3947 22.4377 21.3628 22.4709C21.3099 22.5249 21.3057 22.6049 21.3057 22.6366V22.6797C21.2582 22.6198 21.2052 22.5679 21.1417 22.5338C20.9215 22.4195 20.6837 22.4964 20.6381 22.5133L20.6222 22.5321C20.2458 22.2505 19.9073 22.5092 19.823 22.583C19.7464 22.5447 19.5922 22.4716 19.579 22.4694L19.5917 22.4743C19.4905 22.4083 19.42 22.4226 19.3789 22.4457C19.3033 22.4902 19.2908 22.5826 19.2879 22.6283C19.2048 22.5008 19.1232 22.4298 19.0412 22.4177C18.9711 22.4079 18.9293 22.4377 18.9103 22.4564L18.8988 22.4592L18.8918 22.4611L18.8859 22.4656C18.7687 22.5604 18.6998 23.1805 18.6675 23.5809C18.6087 23.5444 18.5431 23.5071 18.4766 23.4717C18.5335 23.3724 18.5774 23.2568 18.6042 23.1214C18.6087 23.0984 18.6946 22.581 18.3201 22.4592L18.3176 22.4575H18.3145C18.2563 22.447 18.0581 22.4234 17.8934 22.5385C17.7803 22.6182 17.7112 22.7443 17.6869 22.9156C17.6866 22.9187 17.6792 23.0918 17.7956 23.1952C17.8634 23.2545 17.9524 23.2749 18.0607 23.257C18.0834 23.2542 18.1035 23.2416 18.1168 23.2227C18.1304 23.2036 18.1358 23.1796 18.1309 23.1563C18.1283 23.1353 18.1164 23.1151 18.0974 23.1017C18.0783 23.088 18.0545 23.082 18.0311 23.0861C17.9946 23.0918 17.9432 23.0933 17.9121 23.0651C17.8767 23.0345 17.8627 22.9773 17.861 22.9317C17.878 22.8164 17.9215 22.7319 17.9934 22.6818C18.0922 22.6112 18.2198 22.6198 18.2721 22.6272C18.4126 22.6731 18.4421 22.8385 18.4421 22.9697C18.4421 23.0094 18.4386 23.0513 18.433 23.088V23.0883C18.4074 23.217 18.3657 23.3282 18.3102 23.419L18.2472 23.4986L18.2382 23.51C18.0889 23.6695 17.9201 23.6584 17.9185 23.6584C17.271 23.5799 17.2319 22.4575 17.2316 22.4466C17.2294 22.3968 17.1901 22.3594 17.1424 22.36C17.1177 22.3608 17.0962 22.3701 17.08 22.3874C17.0645 22.404 17.0561 22.4266 17.0567 22.4496C17.0582 22.5016 17.0945 23.7336 17.8989 23.8318H17.903C17.9479 23.8342 18.1816 23.8312 18.3764 23.6141C18.5388 23.7012 18.6551 23.774 18.6709 23.7924C18.6924 23.8214 18.7332 23.8355 18.766 23.8245C18.8017 23.8128 18.8261 23.7851 18.8295 23.75C18.8738 23.1288 18.9534 22.6454 18.9976 22.5996L19.0148 22.5907H19.0151C19.0212 22.5917 19.1171 22.6144 19.2777 22.9854L19.2545 23.8168C19.2539 23.8651 19.2923 23.9047 19.34 23.9058C19.3622 23.9064 19.3851 23.8976 19.402 23.8822C19.4185 23.8658 19.4284 23.8444 19.429 23.8214L19.4494 23.0422L19.4522 22.9605L19.4616 22.6486C19.4603 22.63 19.4634 22.615 19.4671 22.6043C19.475 22.607 19.4872 22.6129 19.5049 22.6241L19.5086 22.6269C19.5577 22.6486 19.6769 22.7041 19.7519 22.7419C19.7442 22.7835 19.7372 22.8247 19.7372 22.8639C19.7372 22.9926 19.7801 23.1025 19.8615 23.1805L19.8576 23.1758C19.8787 23.2053 19.9116 23.2545 19.9393 23.3056L19.9668 23.3628C19.9782 23.387 19.9799 23.4012 19.9808 23.4062C19.9814 23.4485 19.9677 23.5219 19.9331 23.5428C19.898 23.5637 19.8229 23.5428 19.7293 23.4858C19.6876 23.4613 19.6356 23.4739 19.6105 23.5142C19.5845 23.5565 19.5969 23.6098 19.6393 23.6352C19.7967 23.7294 19.9256 23.749 20.0219 23.693C20.1479 23.6194 20.1561 23.4498 20.1548 23.3989V23.3976L20.1546 23.3947C20.1516 23.359 20.1368 23.3163 20.112 23.263C20.1171 23.222 20.1311 23.1758 20.1696 23.1696C20.1726 23.1694 20.3577 23.1395 20.4719 23.3514C20.4817 23.3685 20.4972 23.3813 20.5146 23.3886C20.5108 23.4041 20.5078 23.4199 20.5062 23.4357C20.4188 23.4768 20.356 23.5315 20.326 23.6006C20.2584 23.7556 20.3569 23.9108 20.3577 23.9119L20.3748 23.9305L20.3695 23.9249C20.4463 24.0038 20.5225 24.0132 20.5729 24.0079C20.7147 23.9923 20.7995 23.8487 20.8006 23.847C20.8115 23.8296 20.8157 23.8067 20.8102 23.7837C20.8053 23.7605 20.7922 23.7414 20.7723 23.7294C20.7322 23.7033 20.6791 23.7147 20.6529 23.7556C20.6341 23.784 20.5916 23.8304 20.5536 23.8342C20.5378 23.8373 20.5194 23.8265 20.5003 23.8087C20.493 23.7956 20.4758 23.7598 20.4758 23.7181C20.4758 23.7012 20.4799 23.6853 20.4857 23.6703C20.5101 23.6147 20.5943 23.5702 20.717 23.5477C20.745 23.547 20.9189 23.547 21.006 23.654C21.0656 23.7269 21.0742 23.8402 21.0323 23.9907C21.031 23.9937 20.9028 24.3067 20.0652 24.1014C20.036 24.0934 20.0041 24.1014 19.9822 24.1237C19.9605 24.1446 19.9517 24.1762 19.9596 24.2067C19.9692 24.2402 20.1982 24.9987 21.6897 24.7388C21.7369 24.7305 21.7693 24.6855 21.7613 24.638C21.7519 24.5909 21.7068 24.5594 21.6597 24.5666C20.7463 24.7265 20.3678 24.4807 20.219 24.3088C21.0271 24.4513 21.1836 24.0864 21.1991 24.0434C21.2578 23.8316 21.2378 23.6639 21.1405 23.5444C20.9964 23.3684 20.748 23.3724 20.6995 23.3748L20.6979 23.375L20.6966 23.3762C20.7659 23.1307 20.7188 22.838 20.6808 22.6782L20.7006 22.6756L20.6949 22.6782L20.6966 22.678L20.7004 22.677C20.7339 22.6642 20.911 22.6085 21.0591 22.6883C21.1685 22.7452 21.2437 22.863 21.2836 23.0372L21.3033 23.0653L21.299 23.8465C21.299 23.8933 21.3367 23.9323 21.384 23.9345C21.4349 23.9345 21.4735 23.8958 21.4735 23.8465L21.48 22.6352C21.4788 22.622 21.4827 22.6024 21.4877 22.5942C21.6109 22.6158 21.7549 22.6465 21.8027 22.6726C21.8215 22.6828 21.8448 22.6859 21.866 22.6797C21.8888 22.6731 21.9083 22.6579 21.9203 22.6374C21.942 22.5925 21.9256 22.5406 21.8841 22.5184C21.7795 22.4636 21.5041 22.4219 21.4932 22.4195Z" fill="#0071BB"/>
</svg>
