<svg width="34" height="34" viewBox="0 0 34 34" fill="none" xmlns="http://www.w3.org/2000/svg">
<g clip-path="url(#clip0_4413_67577)">
<rect width="34" height="34" fill="white"/>
<path d="M23.1629 9.05484C23.1629 15.8973 23.1629 22.7398 23.1629 29.5398C19.0404 29.5398 14.9604 29.5398 10.8379 29.5398C10.8379 22.6973 10.8379 15.8548 10.8379 9.05484C11.1779 9.05484 11.5179 9.05484 11.8579 9.05484C11.8579 9.01234 11.8579 8.96984 11.8579 8.92734C11.8579 7.48234 11.8579 6.03734 11.8579 4.59234C11.8579 4.54984 11.8579 4.50734 11.8579 4.46484C12.3254 4.46484 12.8354 4.46484 13.3029 4.46484C13.3029 4.50734 13.3029 4.50734 13.3029 4.54984C13.3029 6.03734 13.3029 7.48234 13.3029 8.96984C13.3029 9.01234 13.3029 9.05484 13.3029 9.09734C13.3454 9.09734 13.4304 9.09734 13.4729 9.09734C16.6604 9.09734 19.8054 9.09734 22.9929 9.09734C23.0779 9.05484 23.1204 9.05484 23.1629 9.05484Z" fill="#008661"/>
<path d="M23.1627 9.05437C23.1202 9.05437 23.0777 9.05437 22.9927 9.05437C19.8052 9.05437 16.6602 9.05437 13.4727 9.05437C13.4302 9.05437 13.3452 9.05437 13.3027 9.05437C13.3027 9.01187 13.3027 8.96938 13.3027 8.92688C13.3027 7.43937 13.3027 5.99438 13.3027 4.50688C13.3027 4.46438 13.3027 4.46438 13.3027 4.42188C16.5752 4.42188 19.8477 4.42188 23.1202 4.42188C23.1627 5.99437 23.1627 7.52437 23.1627 9.05437Z" fill="white"/>
<path d="M11.8579 4.46484C11.8579 4.50734 11.8579 4.54984 11.8579 4.59234C11.8579 6.03734 11.8579 7.48234 11.8579 8.92734C11.8579 8.96984 11.8579 9.01234 11.8579 9.05484C11.5179 9.05484 11.1779 9.05484 10.8379 9.05484C10.8379 7.52484 10.8379 5.99484 10.8379 4.46484C11.1779 4.46484 11.5179 4.46484 11.8579 4.46484Z" fill="white"/>
<path d="M16.9579 9.77344C16.4479 9.77344 15.9804 9.98594 15.6404 10.3684C15.3004 10.7509 15.0879 11.2184 15.1304 11.7284C15.1304 12.7909 16.0229 13.6409 17.0429 13.6409C18.1054 13.6409 18.9129 12.7484 18.9129 11.6859C18.8279 10.6234 17.9779 9.77344 16.9579 9.77344ZM15.1729 11.7284C15.1729 11.2184 15.3429 10.7509 15.6829 10.4109C16.0229 10.0709 16.4904 9.85844 16.9579 9.85844C17.9779 9.85844 18.7854 10.6659 18.8279 11.6859C18.8279 12.7059 18.0629 13.5559 17.0429 13.5559C15.9804 13.5984 15.1729 12.7484 15.1729 11.7284Z" fill="white"/>
<path d="M18.6573 11.9008C18.5723 11.8158 18.5298 11.8583 18.5298 11.8583H18.4023V11.9008H18.5298V11.9433H18.5723V11.9008H18.6573Z" fill="white"/>
<path d="M15.9375 10.5386H15.98V10.4961H15.9375V10.5386Z" fill="white"/>
<path d="M15.98 10.4531H15.9375V10.4956H15.98V10.4531Z" fill="white"/>
<path d="M16.023 10.4531H15.9805V10.4956H16.023V10.4531Z" fill="white"/>
<path d="M15.5977 11.0073C15.5552 10.9648 15.5977 10.9648 15.5977 11.0073C15.5552 11.0073 15.4702 10.9648 15.4702 10.9648L15.5127 11.0498C15.5977 11.0498 15.6827 11.0498 15.6827 11.0498C15.7252 11.1348 15.6402 11.1773 15.6402 11.1773C15.6402 11.2623 15.5977 11.3048 15.5977 11.3048C15.5977 11.3898 15.5552 11.5173 15.5552 11.5173C15.5552 11.6023 15.5127 11.6448 15.5127 11.6448C15.5127 11.7298 15.4277 11.7298 15.4277 11.7298V11.7723L15.5127 11.7298C15.5127 11.7723 15.5127 11.8148 15.5127 11.8148C15.5552 11.8148 15.5552 11.6873 15.5552 11.6873C15.5977 11.6448 15.5552 11.6023 15.5552 11.6023H15.6402V11.5598H15.5977C15.5977 11.5173 15.5977 11.4748 15.5977 11.4748C15.5977 11.4323 15.6402 11.3473 15.6402 11.3473H15.6827V11.3048C15.6402 11.3048 15.6402 11.2623 15.6402 11.2623L15.6827 11.1773C15.7252 11.1348 15.7252 11.0923 15.7252 11.0923V11.0073C15.7252 11.0498 15.5977 11.0073 15.5977 11.0073Z" fill="white"/>
<path d="M16.1495 10.3711C16.0645 10.3711 16.1495 10.4561 16.1495 10.4561C16.1495 10.4986 16.0645 10.4986 16.0645 10.4986V10.5836H16.022V10.6686H15.9795V10.7536L15.7245 10.9661C15.6395 11.0086 15.7245 10.8386 15.7245 10.8386C15.7245 10.7961 15.682 10.7961 15.682 10.7961C15.597 10.8811 15.6395 10.9661 15.6395 10.9661C15.682 11.0511 15.937 10.7111 15.937 10.7111C15.9795 10.6686 15.9795 10.5836 15.9795 10.5836L16.0645 10.4986C16.0645 10.4561 16.1495 10.4986 16.1495 10.4986C16.107 10.4986 16.1495 10.4561 16.1495 10.4561C16.192 10.4561 16.192 10.4561 16.192 10.4561V10.4136H16.1495C16.192 10.3711 16.1495 10.3711 16.1495 10.3711Z" fill="white"/>
<path d="M16.2782 10.2852C16.2782 10.2852 16.1932 10.2852 16.2357 10.3277C16.2357 10.3277 16.3207 10.3277 16.2782 10.3702C16.2782 10.3702 16.2782 10.4127 16.2357 10.4127C16.2357 10.4127 16.1932 10.4977 16.2357 10.4552C16.2357 10.4127 16.3632 10.2852 16.2782 10.2852Z" fill="white"/>
<path d="M16.4048 10.2413C16.4048 10.1988 16.5323 10.2413 16.5323 10.2413C16.5748 10.2838 16.5748 10.2413 16.5748 10.2413C16.5748 10.1988 16.2773 10.1562 16.2773 10.1562V10.1988C16.3623 10.2413 16.3623 10.2838 16.4048 10.2413L16.3623 10.2838H16.4048V10.2413Z" fill="white"/>
<path d="M16.7866 10.1988V10.1562H16.7441V10.1988H16.7866Z" fill="white"/>
<path d="M17.0858 10.1133C17.0858 10.1558 17.0858 10.1983 17.0858 10.1983H17.0008V10.1558H16.9583V10.1983C16.9583 10.2408 16.8733 10.2408 16.8733 10.2408V10.1983C16.8308 10.1983 16.7458 10.1983 16.7458 10.1983C16.6608 10.2408 16.7033 10.2408 16.7033 10.2408H16.7458C16.7458 10.2833 16.6183 10.2833 16.6183 10.2833C16.5758 10.2833 16.5758 10.1558 16.5758 10.1558C16.5758 10.1983 16.5758 10.1133 16.5758 10.1133H16.5333C16.4908 10.1558 16.5333 10.1983 16.5333 10.1983C16.5758 10.1983 16.5758 10.2833 16.5758 10.2833C16.5333 10.3258 16.4908 10.2833 16.4908 10.2833C16.4483 10.3258 16.3633 10.3683 16.3633 10.3683C16.4058 10.4108 16.4908 10.3258 16.4908 10.3258C16.5333 10.3258 16.6183 10.2833 16.6183 10.2833C16.7883 10.2833 16.8308 10.1983 16.8308 10.1983C16.9583 10.1983 16.9583 10.1558 16.9583 10.1558C17.0008 10.1558 17.0433 10.1558 17.0433 10.1558V10.1983H17.0858V10.1558C17.1283 10.1133 17.0858 10.1133 17.0858 10.1133Z" fill="white"/>
<path d="M17.4669 10.2847V10.2422C17.4244 10.2422 17.2969 10.2847 17.2969 10.2847L17.5094 10.3697C17.5519 10.2847 17.4669 10.2847 17.4669 10.2847Z" fill="white"/>
<path d="M17.9349 10.4958C17.9349 10.5383 17.7649 10.4533 17.7649 10.4533V10.4108C17.7224 10.4533 17.6374 10.3683 17.6374 10.3683L17.6799 10.2833V10.2408C17.6799 10.1983 17.7224 10.1133 17.7224 10.1133L17.5949 10.1983V10.2833L17.5524 10.3258C17.5524 10.3683 17.4674 10.3258 17.4674 10.3258L17.1699 10.1983C17.1699 10.2408 17.4674 10.3683 17.4674 10.3683L17.5524 10.4108L17.6374 10.4533H17.7224L17.7649 10.4958V10.5383H17.8499L17.8924 10.4958C17.9349 10.4958 17.9774 10.4958 17.9774 10.4958C17.9774 10.4533 18.0199 10.4108 18.0199 10.4108L17.9349 10.4958Z" fill="white"/>
<path d="M18.3166 10.9234V11.0084H18.3591V10.9659L18.3166 10.9234L18.2741 10.8384V10.7534C18.2741 10.7534 18.1891 10.6684 18.1466 10.7109V10.7534L18.1891 10.8384C18.1891 10.8384 18.1891 10.8809 18.1466 10.8384C18.1466 10.8384 17.9766 10.5834 17.9766 10.5409C17.9766 10.5409 17.9766 10.4559 18.1041 10.5834H18.1466C18.1466 10.5834 18.0191 10.4559 17.9766 10.5409C17.9766 10.5409 17.9766 10.5834 18.1466 10.8384C18.1466 10.8384 18.2316 10.9234 18.2741 10.8384L18.3166 10.9234ZM18.1891 10.7534C18.1891 10.7109 18.2741 10.7534 18.2741 10.7534V10.7959C18.2316 10.8384 18.1891 10.7534 18.1891 10.7534Z" fill="white"/>
<path d="M18.487 11.8144C18.487 11.7719 18.487 11.7719 18.487 11.8144L18.402 11.7719V11.6869H18.4445C18.4445 11.6444 18.402 11.6444 18.402 11.6444C18.3595 11.6444 18.3595 11.5594 18.3595 11.5594H18.402V11.5169H18.3595C18.317 11.3894 18.317 11.3044 18.317 11.3044H18.402H18.4445V11.2619L18.5295 11.2194L18.4445 11.1769C18.402 11.1769 18.402 11.2619 18.402 11.2619H18.317C18.2745 11.3044 18.2745 11.2194 18.2745 11.2194C18.3595 11.2619 18.402 11.1769 18.402 11.1769C18.4445 11.0494 18.4445 10.9219 18.4445 10.9219C18.402 10.9219 18.402 11.0494 18.402 11.0494H18.317C18.317 11.0919 18.3595 11.0919 18.3595 11.0919C18.3595 11.1344 18.3595 11.2194 18.3595 11.2194C18.2745 11.3044 18.232 11.0919 18.232 11.0919C18.232 11.0069 18.1895 11.0494 18.1895 11.0494C18.232 11.3894 18.2745 11.3044 18.2745 11.3044C18.232 11.4319 18.317 11.5594 18.317 11.5594C18.317 11.6019 18.3595 11.6869 18.3595 11.6869C18.3595 11.7294 18.3595 11.7294 18.3595 11.7294C18.3595 11.8144 18.487 11.8144 18.487 11.8144Z" fill="white"/>
<path d="M16.2352 13.0058C16.2777 12.9208 16.2352 12.8783 16.1502 12.8358C16.1077 12.8358 16.0652 12.7933 16.0652 12.8358C16.0227 12.8783 16.1077 12.9208 16.1502 12.9208L15.9802 12.7933V12.7508C15.9802 12.7508 15.9377 12.7933 15.9377 12.8358C15.9377 12.7933 15.9802 12.7933 15.9377 12.7508L15.8952 12.7083L15.7677 12.5383L15.6402 12.3258C15.6827 12.3258 15.6827 12.2833 15.6827 12.2408C15.6827 12.2408 15.6827 12.1983 15.6402 12.1983V12.1558C15.6402 12.1558 15.6402 12.1558 15.6827 12.1558C15.6827 12.1558 15.6827 12.1558 15.6402 12.1558C15.5977 12.1558 15.5977 12.2408 15.5977 12.2408V12.2833V12.3258C15.5977 12.3258 15.5977 12.3258 15.5977 12.2833L15.5552 12.1133V12.1558C15.5552 12.1558 15.5977 12.2408 15.5552 12.2408L15.5127 12.1983C15.5127 12.1983 15.4702 12.1983 15.5127 12.2408C15.5127 12.2833 15.5552 12.2833 15.5552 12.2833V12.3258C15.5127 12.3258 15.5127 12.2833 15.5127 12.2833C15.5127 12.2408 15.5127 12.2408 15.5127 12.1983L15.4702 12.2408C15.4702 12.3258 15.4702 12.3683 15.4277 12.4533H15.4702L15.5127 12.3683V12.3258C15.5127 12.3683 15.5552 12.3683 15.5977 12.3683C15.6402 12.3683 15.6402 12.2833 15.6402 12.2833L15.6827 12.4108V12.4533C15.6827 12.4958 15.7252 12.4958 15.6827 12.5383H15.6402V12.4958H15.5977C15.5977 12.4958 15.5552 12.5383 15.5552 12.5808C15.5977 12.6233 15.6402 12.5808 15.6827 12.6233C15.6827 12.6658 15.6402 12.6658 15.6402 12.7083C15.6402 12.7083 15.5977 12.7083 15.5977 12.7508V12.7933L15.8102 12.6658L15.8527 12.7083L15.9802 12.8358L15.8102 12.7508C15.8102 12.7508 15.8102 12.7508 15.8102 12.7083H15.7677V12.6658C15.7252 12.6233 15.7252 12.6233 15.6827 12.6658C15.6402 12.7083 15.6402 12.7508 15.6827 12.7508C15.6827 12.7508 15.7252 12.7933 15.7252 12.7508C15.7252 12.7508 15.7677 12.7083 15.7252 12.7083H15.6827V12.6658H15.7252V12.7083H15.7677C15.7677 12.7083 15.7677 12.7083 15.8102 12.7083V12.7508L15.7252 12.8358V12.8783L15.8952 12.7508L15.9377 12.7933C15.9377 12.8358 15.9377 12.8358 15.9377 12.8358L15.8527 12.9633V13.0058L16.0227 12.8358L16.0652 12.8783V12.9208C16.0652 12.9633 16.1077 12.9633 16.1077 13.0058C16.1077 12.9633 16.0652 12.9633 16.0227 13.0058V13.0483C16.0227 13.0483 16.0652 13.0908 16.0652 13.0483C16.1077 13.0483 16.0652 13.1333 16.0652 13.1758L16.1927 13.0058L16.2352 13.0483L16.0652 13.1758V13.2183L16.2352 13.0058ZM15.6402 12.5383V12.4958C15.6402 12.4958 15.6402 12.4958 15.5977 12.4958C15.6402 12.4958 15.6402 12.4958 15.6402 12.4533L15.6827 12.5383H15.6402ZM16.0227 13.0483V13.0058C16.0652 12.9633 16.0652 12.9208 16.0227 12.8783L16.1077 12.9208L16.0227 13.0483ZM16.1927 12.9633H16.1502C16.1927 12.9208 16.1502 12.8783 16.1077 12.8783L16.0652 12.8358H16.1077C16.1927 12.8783 16.2352 12.9208 16.1927 12.9633Z" fill="white"/>
<path d="M16.7453 13.2169V13.1744C16.7453 13.1744 16.7453 13.1744 16.7453 13.2169C16.7028 13.2169 16.7453 13.2594 16.7453 13.2594C16.7453 13.2169 16.7453 13.1744 16.7028 13.1744H16.6603L16.5753 13.1319L16.3628 13.0469V13.0894L16.4903 13.1319C16.4478 13.1319 16.3628 13.1319 16.3203 13.1744V13.2169C16.4053 13.2594 16.3628 13.3444 16.4053 13.3869L16.4903 13.1744L16.5328 13.2169H16.5753L16.5328 13.2594C16.5328 13.3019 16.5328 13.3019 16.5328 13.3444C16.5328 13.3869 16.4903 13.3869 16.4903 13.3869C16.5328 13.3869 16.5753 13.3444 16.5753 13.3444C16.5753 13.3019 16.5753 13.2594 16.5753 13.2169C16.5753 13.1744 16.6178 13.1744 16.6178 13.1744C16.6603 13.1744 16.6603 13.2169 16.6178 13.2169L16.5753 13.3869L16.6178 13.4294L16.7453 13.2169ZM16.4478 13.3019C16.4478 13.2594 16.4053 13.2594 16.4053 13.2169C16.4478 13.2169 16.4478 13.2169 16.4903 13.2169L16.4478 13.3019Z" fill="white"/>
<path d="M16.8301 13.3858C16.8726 13.4283 16.9151 13.4708 16.9576 13.5133V13.4708C16.9151 13.4283 16.8726 13.3858 16.8301 13.3008V13.3858Z" fill="white"/>
<path d="M16.8726 13.3467C16.9151 13.3467 16.9151 13.3042 16.9151 13.3042C16.9151 13.2617 16.8726 13.2617 16.8726 13.2617C16.8301 13.2617 16.8301 13.3042 16.8301 13.3042C16.7876 13.3042 16.8301 13.3467 16.8726 13.3467ZM16.8726 13.2617C16.8726 13.3042 16.8726 13.3042 16.8301 13.3042C16.8301 13.3042 16.8301 13.3042 16.8726 13.2617Z" fill="white"/>
<path d="M17.2116 13.2188H16.9141L16.9566 13.2613H17.0841C17.0416 13.2613 16.9991 13.3037 16.9566 13.3462L16.9991 13.3887C17.0416 13.3887 17.1266 13.4313 17.1266 13.4738V13.3037C17.1691 13.3037 17.2116 13.3037 17.2116 13.3462C17.2116 13.3462 17.2116 13.3462 17.1691 13.3462C17.1691 13.3462 17.1266 13.3462 17.1266 13.3887C17.1266 13.3887 17.1266 13.4313 17.1691 13.4313C17.2116 13.4313 17.2116 13.3887 17.2116 13.3887C17.2116 13.3462 17.1691 13.3037 17.1266 13.3037L17.2116 13.2188ZM17.0416 13.3462C17.0416 13.3462 17.0841 13.3037 17.1266 13.3037V13.3887C17.0841 13.3462 17.0416 13.3462 17.0416 13.3462Z" fill="white"/>
<path d="M17.6369 13.0898H17.5944H17.5519C17.5519 13.0898 17.5519 13.0898 17.5519 13.1323C17.5519 13.1748 17.5944 13.1748 17.5944 13.2173C17.5944 13.2173 17.5519 13.1748 17.5094 13.1748H17.4669H17.2969H17.3394L17.4669 13.1323C17.4244 13.1748 17.4244 13.2173 17.3819 13.2598L17.4244 13.3023C17.5519 13.2598 17.5519 13.3448 17.5944 13.3448L17.5094 13.1323H17.5519C17.5944 13.1323 17.5944 13.1323 17.5944 13.1748L17.6794 13.3023H17.7219L17.6369 13.0898ZM17.5519 13.3023C17.5094 13.3023 17.5094 13.2598 17.4669 13.2598C17.4669 13.2173 17.5094 13.2173 17.5094 13.2173L17.5519 13.3023Z" fill="white"/>
<path d="M17.7227 13.1328L17.7652 13.1753C17.8077 13.1753 17.8927 13.1753 17.9352 13.1753V13.1328C17.8502 13.1753 17.8077 13.1328 17.7227 13.1328Z" fill="white"/>
<path d="M17.7642 13.1314C17.8067 13.1314 17.8067 13.0889 17.7642 13.0464C17.7642 13.0039 17.7217 13.0039 17.6792 13.0039C17.6367 13.0039 17.6367 13.0464 17.6367 13.0889C17.6792 13.1314 17.7217 13.1314 17.7642 13.1314ZM17.7217 13.0464C17.7642 13.0464 17.7217 13.0889 17.7217 13.0889V13.0464Z" fill="white"/>
<path d="M18.4027 12.2837L18.5302 12.3262L18.5727 12.2837L18.3602 12.1988V12.1562H18.3177C18.3177 12.1562 18.2752 12.1563 18.2752 12.1988C18.3177 12.2413 18.3602 12.2837 18.4027 12.2837C18.3602 12.2837 18.3177 12.2837 18.3177 12.2837V12.3262C18.2752 12.3262 18.2752 12.3263 18.2752 12.3688V12.4113L18.1477 12.5813L18.0202 12.7512H17.9777C17.9777 12.7937 18.0202 12.7938 18.0627 12.7938C18.0202 12.7938 18.0202 12.7513 17.9777 12.7938L17.9352 12.8363L17.7227 13.0063H17.7652L17.8927 12.8787L17.9352 12.9212C17.9352 12.9212 17.9352 12.9212 17.8927 12.9212V12.9637H17.8502C17.8077 12.9637 17.8077 13.0063 17.8502 13.0488C17.8927 13.0913 17.9352 13.0913 17.9352 13.0488C17.9352 13.0488 17.9777 13.0063 17.9352 13.0063C17.9352 13.0063 17.8927 12.9638 17.8927 13.0063V13.0488C17.8927 13.0488 17.8927 13.0488 17.8502 13.0488V13.0063H17.8927V12.9637C17.8927 12.9637 17.8927 12.9637 17.8927 12.9212H17.9352L18.0202 13.0063H18.0627L17.9352 12.8363L17.9777 12.7938H18.0202L18.1477 12.9212H18.1902L18.0202 12.7512V12.7087L18.0627 12.6662C18.0627 12.7087 18.0627 12.7512 18.1052 12.7512C18.1477 12.7937 18.1902 12.7937 18.2327 12.7512V12.7087H18.1902V12.7512C18.1902 12.7937 18.1477 12.7512 18.1052 12.7512C18.0627 12.7087 18.0627 12.6663 18.0627 12.6238L18.1902 12.7087H18.2327C18.2752 12.6662 18.2752 12.6238 18.2752 12.5813L18.3177 12.6238C18.3602 12.6238 18.3602 12.6662 18.4027 12.6662H18.4452C18.4027 12.6662 18.4027 12.6663 18.4027 12.6238C18.3602 12.5813 18.3602 12.5812 18.3177 12.5387L18.2752 12.5813C18.2752 12.6238 18.2752 12.6662 18.2752 12.7087L18.1902 12.6662L18.2752 12.5387C18.2752 12.5387 18.2752 12.4962 18.3177 12.4962C18.3177 12.4962 18.3177 12.5387 18.3602 12.5387C18.3602 12.5387 18.4027 12.5387 18.4027 12.4962V12.4537C18.4027 12.4537 18.4452 12.4538 18.4452 12.4113C18.4027 12.3688 18.4027 12.3262 18.4027 12.2837C18.3602 12.3262 18.3602 12.3262 18.3602 12.3262C18.3602 12.2837 18.3602 12.2837 18.4027 12.2837Z" fill="white"/>
<path d="M19.2109 11.9838C19.2109 11.9838 18.9559 11.8138 18.9559 11.8988C18.9559 11.8988 18.8284 13.3438 17.3834 13.6413V13.5138H17.2984V13.6413C17.2559 13.6413 17.1709 13.6413 17.1284 13.6413V13.5563H17.0009V13.6413C16.8734 13.6413 16.7884 13.6413 16.7034 13.6413V13.5563H16.6184V13.6838C16.4909 13.6838 15.2584 13.4288 15.0459 12.0263C15.0459 12.0263 15.0884 11.9838 15.0034 11.9838C15.0034 11.9838 14.7059 11.9413 14.7059 12.0263C14.7059 12.0263 14.5784 12.4513 14.7909 12.7488C14.7909 12.7488 14.8759 12.7488 14.9184 12.7488C14.9184 12.7488 15.3009 13.5563 16.0659 13.8963L15.8959 14.0238L16.0659 14.2788C16.0659 14.2788 16.1934 14.4913 16.4059 14.3213C16.4059 14.3213 16.4909 14.1513 16.5334 14.0663C16.5334 14.0663 16.7459 14.0238 16.9584 14.0238C17.2134 14.0238 17.4259 14.0663 17.4259 14.0663C17.4259 14.0663 17.6384 14.4913 17.8509 14.2788L18.1059 13.9813L17.8934 13.8538C17.8934 13.8538 18.7859 13.3863 18.9559 12.6638C18.9559 12.6638 19.0409 12.7488 19.0834 12.6638C19.1259 12.6213 19.2109 12.4088 19.2109 12.4088C19.2109 12.4088 19.3809 11.9838 19.2109 11.9838ZM14.7909 12.6213C14.7909 12.6213 14.7909 12.6213 14.7484 12.5788C14.7484 12.5363 14.7059 12.3663 14.7059 12.2388C14.7059 12.1538 14.7484 12.0688 14.7484 12.0263C14.7484 12.0263 14.7909 12.1113 14.7909 12.2388C14.7909 12.2388 14.7484 12.2813 14.7484 12.3238V12.3663C14.7484 12.4088 14.7909 12.4938 14.8334 12.5363C14.7909 12.5788 14.7909 12.6213 14.7909 12.6213ZM15.1309 12.8763L15.3009 12.7488L15.3434 12.7913L15.1309 12.8763ZM15.2159 13.0463C15.1734 13.0038 15.2159 12.9613 15.2159 12.9188L15.2584 12.9613C15.2159 12.9613 15.2159 13.0038 15.2159 13.0463C15.2584 13.0463 15.2584 13.0463 15.3009 13.0463V13.0038C15.3009 12.9613 15.2584 12.9613 15.3009 12.9188C15.3009 12.9188 15.3434 12.8763 15.3859 12.9613C15.4284 13.0038 15.3859 13.0463 15.3859 13.0463L15.3434 13.0038V12.9613C15.3434 12.9613 15.3009 12.9188 15.3009 12.9613V13.0038V13.0463C15.3009 13.0888 15.3009 13.0888 15.3009 13.1313C15.2584 13.0888 15.2159 13.0463 15.2159 13.0463ZM15.2584 13.1313L15.4284 13.0038L15.4709 13.0463L15.3434 13.1738L15.3859 13.2588L15.3434 13.3013L15.2584 13.1313ZM15.5134 13.3438L15.4709 13.2588H15.4284L15.3859 13.2163L15.5559 13.1313L15.5984 13.1738L15.5134 13.3438ZM15.6834 13.5138L15.6409 13.4713L15.7259 13.3013L15.6409 13.4288L15.5984 13.3863L15.7259 13.2163L15.7684 13.2588L15.6834 13.4288L15.8109 13.3438L15.8534 13.3863L15.6834 13.5138ZM15.7684 13.5988L15.8534 13.3863L15.8959 13.4288L15.7684 13.5988ZM18.0209 13.9388L17.8084 14.1513C17.8084 14.1513 17.4684 13.9388 17.0434 13.9388C16.5759 13.9388 16.2359 14.1513 16.2359 14.1513L16.0659 13.9388C16.0659 13.9388 16.4909 13.6413 17.0009 13.6413C17.5534 13.6413 18.0209 13.9388 18.0209 13.9388ZM18.1484 13.6413L18.1059 13.6838L17.9784 13.5138L18.0634 13.4713C18.1059 13.4288 18.1059 13.4713 18.1484 13.4713C18.1484 13.5138 18.1484 13.5138 18.1484 13.5138C18.1909 13.5138 18.1909 13.5138 18.1909 13.5138V13.5563C18.1484 13.6413 18.1484 13.6413 18.1484 13.6413ZM18.3184 13.5138H18.2334V13.5563L18.1909 13.5988L18.1059 13.3863L18.1484 13.3438L18.3184 13.5138ZM18.4459 13.3863L18.2759 13.3438L18.3609 13.4713L18.3184 13.5138L18.1909 13.3438L18.2334 13.3013L18.3609 13.3438L18.2759 13.2588L18.3184 13.2163L18.4459 13.3863ZM18.5734 13.2163C18.5734 13.2163 18.5734 13.2588 18.5309 13.2588C18.4884 13.3013 18.4459 13.3013 18.4034 13.2588C18.3609 13.2163 18.3609 13.1738 18.4034 13.1313C18.4459 13.0888 18.4884 13.0888 18.4884 13.1313L18.4459 13.1738H18.4034C18.4034 13.1738 18.4034 13.2163 18.4034 13.2588C18.4459 13.3013 18.4884 13.3013 18.4884 13.2588V13.2163L18.4459 13.2588H18.4034L18.4459 13.2163H18.5734ZM18.6159 13.1738L18.4459 13.0463V13.0038L18.5734 13.0888L18.6159 13.0038L18.6584 13.0463L18.6159 13.1738ZM18.7859 12.9613L18.7009 13.0038L18.7434 13.0463L18.7009 13.0888L18.5734 12.9188L18.6159 12.8763L18.7859 12.9613ZM18.8709 12.8338L18.8284 12.9188L18.6584 12.8338L18.7009 12.7488C18.7434 12.7063 18.7859 12.7063 18.8284 12.7488C18.8709 12.7488 18.9134 12.7913 18.8709 12.8338ZM18.9134 12.7488L18.7434 12.6638L18.7859 12.5363H18.8284L18.7859 12.6213H18.8284L18.8709 12.5363H18.9134L18.8709 12.6213L18.9134 12.6638L18.9559 12.5788H18.9984L18.9134 12.7488ZM19.0409 12.4938C18.9984 12.5363 18.9559 12.5363 18.9559 12.5363V12.4938C18.9559 12.5363 18.9984 12.5363 19.0409 12.4938C18.9984 12.4513 18.9984 12.4513 18.9984 12.4513C18.9984 12.4513 18.9559 12.4513 18.9559 12.4938C18.9559 12.5363 18.9134 12.5363 18.8709 12.5363C18.8709 12.5363 18.8284 12.4938 18.8284 12.4513C18.8284 12.4088 18.8709 12.4088 18.9134 12.4088V12.4513C18.9134 12.4513 18.8709 12.4513 18.8709 12.4938V12.5363H18.9134L18.9559 12.4938C18.9559 12.4938 18.9984 12.4513 19.0409 12.4513V12.4938ZM19.0834 12.2813H18.9984V12.3663H19.0834V12.4088L18.8709 12.3663V12.3238H18.9559V12.2388H18.8709V12.1963L19.0834 12.2813ZM19.2534 12.4088C19.2534 12.4088 19.2534 12.5788 19.1684 12.6638C19.1684 12.6638 19.1684 12.6638 19.1684 12.6213C19.1684 12.6213 19.1684 12.5788 19.2109 12.5788C19.1684 12.5788 19.2109 12.4938 19.2534 12.4088C19.2109 12.4088 19.2109 12.4088 19.2534 12.4088C19.2109 12.3663 19.2109 12.3238 19.1684 12.3238C19.1684 12.3238 19.1684 12.3238 19.1684 12.2813C19.1684 12.1538 19.2109 12.0688 19.2109 12.0263C19.2109 12.0263 19.2109 12.0263 19.2534 12.0263C19.2534 12.0263 19.2959 12.0688 19.2959 12.1538C19.2959 12.2388 19.2534 12.3238 19.2534 12.4088Z" fill="white"/>
<path d="M16.8736 13.8116C16.8736 13.8116 16.9161 13.8116 16.9161 13.7691C16.9161 13.7691 16.8736 13.7266 16.8311 13.7266H16.7461L16.7886 13.9391H16.8736C16.9161 13.9391 16.9161 13.9391 16.9161 13.8966V13.8541C16.9161 13.8116 16.9161 13.8116 16.8736 13.8116ZM16.7886 13.7691H16.8311H16.8736C16.8736 13.7691 16.8736 13.8116 16.8311 13.8116H16.7886V13.7691ZM16.8311 13.8966H16.7886V13.8541H16.8311C16.8311 13.8116 16.8736 13.8541 16.8311 13.8966C16.8736 13.8966 16.8736 13.8541 16.8311 13.8966Z" fill="white"/>
<path d="M16.916 13.8961H16.9585V13.8536H17.0435V13.8961H17.086L17.001 13.6836H16.9585L16.916 13.8961ZM17.001 13.7261L17.0435 13.8111H17.001V13.7261Z" fill="white"/>
<path d="M17.1714 13.7691L17.2564 13.8966L17.2989 13.9391V13.7266L17.2564 13.8541L17.2139 13.7266H17.1714L17.1289 13.8966H17.1714V13.7691Z" fill="white"/>
<path d="M17.3843 13.8541H17.4268L17.4693 13.9391L17.5118 13.9816L17.4268 13.8541L17.5543 13.7691H17.4693L17.3843 13.8116L17.4268 13.7266H17.3843L17.3418 13.9391H17.3843V13.8541Z" fill="white"/>
<path d="M18.0625 13.5983V13.6833L18.105 13.6408C18.1475 13.5983 18.1475 13.5983 18.0625 13.5983C18.105 13.5558 18.105 13.5558 18.0625 13.5983Z" fill="white"/>
<path d="M18.0635 13.5156L17.9785 13.5581L18.021 13.6006L18.0635 13.5156C18.0635 13.5581 18.0635 13.5581 18.0635 13.5156Z" fill="white"/>
<path d="M18.2339 13.4722L18.1914 13.4297V13.5147L18.2339 13.4722Z" fill="white"/>
<path d="M18.7432 12.9605L18.6582 12.918L18.7007 12.9605H18.7432Z" fill="white"/>
<path d="M18.8291 12.7494C18.7866 12.7069 18.7441 12.7494 18.7441 12.7494V12.7919L18.8716 12.8769V12.8344C18.8716 12.7919 18.8291 12.7919 18.8291 12.7494Z" fill="white"/>
<path d="M15.4707 13.2573L15.5132 13.2998L15.5557 13.2148L15.4707 13.2573Z" fill="white"/>
<path d="M18.2316 11.7281C18.2316 11.0056 17.6791 10.4531 16.9566 10.4531C16.2341 10.4531 15.6816 11.0481 15.6816 11.7281C15.6816 12.1956 15.9366 12.6206 16.3191 12.8331V11.3881C16.3191 11.3031 16.4041 11.2181 16.4041 11.2181C16.3616 11.0056 16.5741 10.8781 16.5741 10.8781C16.9141 10.6656 16.9141 10.4956 16.9141 10.4956C16.9566 10.7081 17.2541 10.8781 17.2541 10.8781C17.5091 11.0056 17.4241 11.2181 17.4241 11.2181C17.5516 11.2606 17.5516 11.4306 17.5516 11.4306V12.8331C17.9766 12.6206 18.2316 12.2381 18.2316 11.7281Z" fill="white"/>
<path d="M16.5333 12.4495C16.6608 12.4495 16.7033 12.407 16.7033 12.407H16.4908C16.4483 12.3645 16.4908 12.3645 16.4908 12.322C16.5333 12.2795 16.6183 12.2795 16.6608 12.2795C16.6608 12.2795 16.6608 12.2795 16.7033 12.2795C16.7033 12.2795 16.7033 12.322 16.7458 12.322C16.7883 12.322 16.7883 12.2795 16.7883 12.2795V12.1945C16.7883 12.1945 16.8308 12.1945 16.8308 12.237V12.407L16.8733 12.3645L16.9158 12.407C16.9583 12.407 16.9583 12.407 16.9583 12.407C16.9583 12.407 16.9583 12.407 16.9583 12.4495C17.0008 12.4495 17.0433 12.407 17.0433 12.3645V12.237V12.407C17.0433 12.407 17.0858 12.407 17.0858 12.3645C17.0858 12.2795 17.0858 12.1945 17.0433 12.152V12.1095C17.0433 12.067 17.0433 12.067 17.0433 12.067L16.9583 11.9395V11.7695L16.9158 11.812C16.9158 11.8545 16.9158 11.8545 16.9158 11.8545V11.897C16.8733 11.897 16.8733 11.897 16.8733 11.8545H16.8308V12.322C16.8308 12.3645 16.7883 12.322 16.7883 12.322V12.1945C16.7883 12.1945 16.7883 12.1945 16.7458 12.237C16.7458 12.2795 16.7033 12.2795 16.7033 12.2795V12.0245V11.982C16.7033 11.9395 16.7033 11.9395 16.7033 11.9395V11.7695C16.6183 11.8545 16.6608 11.897 16.6608 11.897C16.6608 11.897 16.6608 11.897 16.7033 11.897C16.7033 11.9395 16.7033 11.9395 16.7033 11.9395C16.7033 11.982 16.7458 11.982 16.7458 11.982V12.152C16.7458 12.1945 16.7033 12.1095 16.7033 12.1095C16.7033 12.1095 16.7033 12.067 16.7033 12.0245C16.7033 11.982 16.6608 11.982 16.6608 12.0245C16.6608 12.067 16.6608 12.1095 16.6608 12.1095L16.7033 12.152V12.2795C16.7033 12.322 16.6183 12.2795 16.6183 12.2795C16.6183 12.2795 16.6183 12.2795 16.5758 12.2795C16.5333 12.3645 16.5333 12.237 16.4908 12.237C16.4058 12.1945 16.3633 12.2795 16.3633 12.2795C16.4058 12.2795 16.4483 12.322 16.4058 12.322C16.4058 12.3645 16.4483 12.4495 16.5333 12.4495ZM17.0008 11.8545C17.0008 11.897 17.0008 11.897 17.0008 11.897H17.0433V11.982V11.9395V12.152C17.0433 12.1945 17.0008 12.1945 17.0008 12.152C17.0008 12.237 16.9583 11.8545 17.0008 11.8545C17.0008 11.812 16.9583 11.812 17.0008 11.8545ZM16.5333 12.1945C16.4908 12.1945 16.4908 12.237 16.5333 12.1945V12.1945Z" fill="white"/>
<path d="M16.4902 12.3639C16.5327 12.3214 16.5327 12.3639 16.4902 12.3639C16.5327 12.3214 16.5327 12.3214 16.4902 12.3639Z" fill="white"/>
<path d="M16.5762 12.3242V12.3667L16.6187 12.3242H16.5762Z" fill="white"/>
<path d="M16.9576 11.6006L17.0001 11.5581H16.9151L16.8301 11.5156V11.5581L16.9151 11.6006H16.9576Z" fill="white"/>
<path d="M17.1715 12.3239C17.1715 12.4514 17.0015 12.4089 16.959 12.3664C16.959 12.4514 17.044 12.4514 17.0865 12.4514C17.214 12.4514 17.214 12.3239 17.214 12.3239C17.214 12.3239 17.2565 12.3239 17.3415 12.3239C17.384 12.3239 17.384 12.2814 17.384 12.2389L17.299 12.1964C17.299 12.1964 17.2565 12.1964 17.214 12.2389C17.2565 12.2389 17.2565 12.2389 17.299 12.2814C17.299 12.2814 17.214 12.3239 17.214 12.2814C17.214 12.2814 17.1715 12.0264 17.1715 11.9839C17.1715 11.9414 17.1715 11.9414 17.1715 11.9414V11.9839C17.1715 11.9839 17.1715 12.2814 17.1715 12.3239Z" fill="white"/>
<path d="M17.3823 12.2823C17.4673 12.2398 17.3823 12.0273 17.3823 12.0273L17.3398 12.1123C17.4248 12.1123 17.3823 12.2823 17.3823 12.2823Z" fill="white"/>
<path d="M17.5113 12.1953L17.4688 12.2803L17.5113 12.3228C17.5113 12.3653 17.2988 12.4078 17.2988 12.4078C17.2988 12.4078 17.2988 12.4503 17.3413 12.4503C17.3838 12.4503 17.5538 12.3653 17.5538 12.3228C17.5538 12.2803 17.5113 12.1953 17.5113 12.1953Z" fill="white"/>
<path d="M17.4688 12.4922C17.4263 12.4922 17.4263 12.5772 17.4263 12.5772C17.4263 12.6197 17.4688 12.6197 17.5113 12.6197C17.5113 12.6622 17.2988 12.7472 17.2988 12.7472V12.7897C17.3838 12.7897 17.5113 12.7047 17.5113 12.6197C17.5113 12.5347 17.4688 12.4922 17.4688 12.4922Z" fill="white"/>
<path d="M16.4917 12.6197L16.4492 12.4922L16.4917 12.6197Z" fill="white"/>
<path d="M16.6617 12.6197C16.7892 12.5772 16.7042 12.4922 16.7042 12.4922V12.5347C16.7042 12.5772 16.6617 12.5347 16.6617 12.5347L16.5767 12.4922L16.5342 12.5347C16.5342 12.5772 16.5767 12.5772 16.5767 12.5772C16.5767 12.6197 16.4492 12.6622 16.4492 12.6622C16.4492 12.6622 16.4492 12.6622 16.4492 12.7047C16.6192 12.7047 16.6192 12.6622 16.6617 12.6197Z" fill="white"/>
<path d="M16.7451 12.6636C16.7451 12.7061 16.7451 12.7061 16.7451 12.7486C16.7451 12.7911 16.5751 12.8336 16.5326 12.8761C16.4901 12.8761 16.5326 12.9186 16.5326 12.9186C16.7026 12.8761 16.7451 12.7911 16.7451 12.7486C16.8301 12.7061 16.8301 12.6636 16.7876 12.6211C16.8301 12.6636 16.7451 12.6636 16.7451 12.6636Z" fill="white"/>
<path d="M16.7891 12.4507C16.7891 12.4932 16.8316 12.5782 16.8316 12.5782C16.8316 12.5357 16.8741 12.5357 16.8741 12.5782C16.8741 12.6207 16.9166 12.6632 16.9166 12.6632C16.9166 12.5782 16.9166 12.4082 16.9166 12.4082C16.8741 12.3657 16.8316 12.4082 16.7891 12.4507Z" fill="white"/>
<path d="M17.1285 12.5347L17.001 12.4922V12.5347C17.001 12.5772 16.9585 12.5772 16.916 12.6197C16.916 12.6622 16.916 12.9172 16.916 12.9172H16.9585V12.6622C16.9585 12.6622 16.9585 12.6197 17.001 12.6197C17.001 12.5772 17.086 12.5772 17.086 12.5772C17.1285 12.5772 17.1285 12.5347 17.1285 12.5347Z" fill="white"/>
<path d="M17.043 12.75C17.0005 12.7925 17.043 12.8775 17.0855 12.8775C17.1705 12.8775 17.128 12.835 17.128 12.7925C17.043 12.835 17.043 12.75 17.043 12.75Z" fill="white"/>
<path d="M17.3404 12.5352H17.2979C17.2554 12.5352 17.2129 12.5352 17.2129 12.5352V12.5777C17.2554 12.5777 17.2979 12.5777 17.2979 12.6202C17.2129 12.6627 17.2129 12.7477 17.2129 12.7477C17.2979 12.7052 17.3404 12.6627 17.3829 12.6627C17.3829 12.5777 17.3404 12.5352 17.3404 12.5352Z" fill="white"/>
<path d="M16.0648 24.4375L14.7898 20.4425V24.7775C14.7898 25.0325 14.7048 25.2025 14.5773 25.33C14.4498 25.4575 14.2373 25.5 14.0248 25.5C13.8123 25.5 13.6423 25.4575 13.4723 25.33C13.3448 25.2025 13.2598 25.0325 13.2598 24.7775V19.805C13.2598 19.55 13.3448 19.3375 13.5148 19.2525C13.6848 19.1675 13.9398 19.125 14.2373 19.125H14.7473C15.0448 19.125 15.2573 19.1675 15.3848 19.21C15.5123 19.2525 15.6398 19.3375 15.6823 19.4225C15.7673 19.55 15.8098 19.72 15.8948 19.975L17.0423 23.4175L18.1898 19.975C18.2748 19.72 18.3598 19.55 18.4023 19.4225C18.4873 19.295 18.5723 19.2525 18.6998 19.21C18.8273 19.1675 19.0398 19.125 19.3373 19.125H19.9748C20.2723 19.125 20.5273 19.1675 20.6973 19.2525C20.8673 19.3375 20.9523 19.55 20.9523 19.805V24.7775C20.9523 25.0325 20.8673 25.2025 20.7398 25.33C20.6123 25.4575 20.3998 25.5 20.1873 25.5C19.9748 25.5 19.8048 25.4575 19.6773 25.33C19.5498 25.2025 19.4648 25.0325 19.4648 24.7775V20.4425L18.1898 24.4375C18.1048 24.6925 18.0198 24.905 17.9773 24.99C17.9348 25.1175 17.8073 25.2025 17.6798 25.33C17.5523 25.415 17.3398 25.5 17.0848 25.5C16.9148 25.5 16.7448 25.4575 16.6173 25.415C16.4898 25.3725 16.4048 25.2875 16.3198 25.16C16.2348 25.075 16.1923 24.9475 16.1498 24.82C16.1498 24.6925 16.1073 24.565 16.0648 24.4375Z" fill="#DE8227"/>
<path d="M20.2293 25.5411C20.0168 25.5411 19.8043 25.4561 19.6343 25.3286C19.4643 25.2011 19.3793 24.9886 19.3793 24.7336V20.9511L18.2743 24.4361C18.1893 24.7336 18.1043 24.9036 18.0618 25.0311C18.0193 25.1586 17.8918 25.2861 17.7218 25.4136C17.5518 25.5411 17.3393 25.5836 17.0843 25.5836C16.8718 25.5836 16.7018 25.5411 16.5743 25.4986C16.4468 25.4136 16.3193 25.3286 16.2343 25.2436C16.1493 25.1161 16.1068 25.0311 16.0643 24.9036C16.0218 24.8186 15.9793 24.6911 15.9368 24.5636V24.5211L14.8743 20.9511V24.7336C14.8743 24.9886 14.7893 25.2011 14.6618 25.3286C14.4918 25.4561 14.3218 25.5411 14.0668 25.5411C13.8118 25.5411 13.6418 25.4561 13.4718 25.3286C13.3018 25.2011 13.2168 24.9886 13.2168 24.7336V19.8036C13.2168 19.5061 13.3443 19.2936 13.5143 19.1661C13.7268 19.0811 13.9818 18.9961 14.2793 18.9961H14.7893C15.0868 18.9961 15.3418 19.0386 15.4693 19.0811C15.6393 19.1236 15.7243 19.2086 15.8093 19.3361C15.8943 19.4636 15.9368 19.6336 16.0218 19.8886L17.0843 23.0761L18.1468 19.8886C18.2318 19.6336 18.3168 19.4636 18.3593 19.3361C18.4443 19.2086 18.5293 19.1236 18.6993 19.0811C18.8268 19.0386 19.0818 18.9961 19.3793 18.9961H19.9743C20.3143 18.9961 20.5693 19.0386 20.7393 19.1661C20.9518 19.2936 21.0368 19.5061 21.0368 19.8036V24.7761C21.0368 25.0311 20.9518 25.2436 20.8243 25.3711C20.6968 25.4986 20.4843 25.5411 20.2293 25.5411ZM19.4218 20.3986L19.5918 20.4411V24.7761C19.5918 24.9886 19.6343 25.1586 19.7618 25.2436C19.8893 25.3711 20.0593 25.4136 20.2293 25.4136C20.4418 25.4136 20.6118 25.3711 20.7393 25.2436C20.8668 25.1586 20.9093 24.9886 20.9093 24.7761V19.8036C20.9093 19.5486 20.8243 19.4211 20.6968 19.3361C20.5268 19.2511 20.2718 19.2086 20.0168 19.2086H19.5068C19.2093 19.2086 18.9968 19.2086 18.8693 19.2511C18.7418 19.2936 18.6568 19.3361 18.6143 19.4636C18.5718 19.5911 18.4868 19.7611 18.4018 19.9736L17.1693 23.6286L15.8943 19.9736C15.8093 19.7186 15.7243 19.5486 15.6818 19.4636C15.6393 19.3786 15.5543 19.2936 15.4268 19.2511C15.2993 19.2086 15.0868 19.2086 14.7893 19.2086H14.2793C13.9818 19.2086 13.7693 19.2511 13.5993 19.3361C13.4293 19.4211 13.3868 19.5911 13.3868 19.8036V24.7761C13.3868 24.9886 13.4293 25.1586 13.5568 25.2436C13.6843 25.3711 13.8543 25.4136 14.0243 25.4136C14.2368 25.4136 14.4068 25.3711 14.4918 25.2436C14.6193 25.1586 14.6618 24.9886 14.6618 24.7761V20.4411L14.8743 20.3986L16.1918 24.4361C16.2343 24.5636 16.2768 24.6486 16.3193 24.7761C16.3618 24.9036 16.4043 24.9886 16.4893 25.0736C16.5743 25.1586 16.6593 25.2436 16.7443 25.2861C16.8718 25.3286 16.9993 25.3711 17.1693 25.3711C17.3818 25.3711 17.5943 25.3286 17.7218 25.2436C17.8493 25.1586 17.9343 25.0736 17.9768 24.9461C18.0193 24.8186 18.1043 24.6486 18.1893 24.3936L19.4218 20.3986Z" fill="#DE8227"/>
<path d="M15.0882 27.3278C15.0882 27.4128 15.0882 27.4553 15.0457 27.5403C15.0032 27.6253 14.9607 27.7103 14.9182 27.7953C14.8332 27.8803 14.7482 27.9228 14.6632 27.9653C14.5782 28.0078 14.4507 28.0503 14.3232 28.0503C14.2382 28.0503 14.1107 28.0503 14.0257 28.0078C13.9407 27.9653 13.8557 27.9653 13.8132 27.9228C13.7282 27.8803 13.6857 27.8378 13.6007 27.7528C13.5582 27.6678 13.5157 27.6253 13.4732 27.5403C13.4307 27.4553 13.4307 27.3703 13.3882 27.2853C13.3882 27.2003 13.3457 27.0728 13.3457 26.9878C13.3457 26.8178 13.3882 26.6478 13.4307 26.5203C13.4732 26.3928 13.5582 26.2653 13.6432 26.1803C13.7282 26.0953 13.8132 26.0103 13.9407 25.9678C14.0682 25.9253 14.1957 25.8828 14.3232 25.8828C14.4932 25.8828 14.6207 25.9253 14.7482 25.9678C14.8757 26.0528 14.9607 26.1378 15.0457 26.2228C15.0882 26.3078 15.1307 26.4353 15.1307 26.5203C15.1307 26.5628 15.1307 26.6053 15.0882 26.6478C15.0457 26.6903 15.0032 26.6903 14.9607 26.6903C14.9182 26.6903 14.8757 26.6903 14.8332 26.6478C14.7907 26.6053 14.7907 26.5628 14.7482 26.5203C14.7057 26.3928 14.6207 26.3503 14.5782 26.2653C14.4932 26.2228 14.4082 26.1803 14.3232 26.1803C14.1532 26.1803 14.0257 26.2653 13.9407 26.3928C13.8557 26.5203 13.8132 26.7328 13.8132 26.9878C13.8132 27.1578 13.8132 27.2853 13.8982 27.4128C13.9407 27.5403 13.9832 27.6253 14.0682 27.6678C14.1532 27.7103 14.2382 27.7528 14.3232 27.7528C14.4507 27.7528 14.5357 27.7103 14.6207 27.6678C14.7057 27.5828 14.7482 27.4978 14.7907 27.4128C14.7907 27.3703 14.8332 27.3278 14.8332 27.2853C14.8757 27.2428 14.9182 27.2428 14.9607 27.2428C15.0032 27.2428 15.0457 27.2428 15.0882 27.2853C15.0457 27.2428 15.0882 27.2853 15.0882 27.3278Z" fill="white"/>
<path d="M15.8958 27.1573H16.4908L16.1933 26.2648L15.8958 27.1573ZM16.6608 27.7523L16.5758 27.4973H15.7683L15.6833 27.7523C15.6408 27.8373 15.5983 27.9223 15.5983 27.9648C15.5558 28.0073 15.5133 28.0073 15.4708 28.0073C15.4283 28.0073 15.3858 28.0073 15.3433 27.9648C15.3008 27.9223 15.3008 27.8798 15.3008 27.8373C15.3008 27.7948 15.3008 27.7948 15.3008 27.7523C15.3008 27.7098 15.3433 27.6673 15.3433 27.6248L15.8533 26.2223C15.8533 26.1798 15.8958 26.1373 15.8958 26.0948C15.8958 26.0523 15.9383 26.0098 15.9383 25.9673C15.9808 25.9248 15.9808 25.8823 16.0233 25.8823C16.0658 25.8823 16.1083 25.8398 16.1508 25.8398C16.1933 25.8398 16.2358 25.8398 16.2783 25.8823C16.3208 25.9248 16.3633 25.9248 16.3633 25.9673C16.3633 26.0098 16.4058 26.0523 16.4058 26.0948C16.4058 26.1373 16.4483 26.1798 16.4483 26.2648L16.9583 27.6673C17.0008 27.7948 17.0008 27.8373 17.0008 27.8798C17.0008 27.9223 17.0008 27.9648 16.9583 28.0073C17.0008 28.0073 16.9583 28.0498 16.9158 28.0498C16.8733 28.0498 16.8733 28.0498 16.8308 28.0498C16.7883 28.0498 16.7883 28.0073 16.7883 28.0073C16.7883 27.9648 16.7458 27.9648 16.7458 27.9223C16.7033 27.8373 16.7033 27.7948 16.6608 27.7523Z" fill="white"/>
<path d="M18.8698 27.3703C18.8698 27.4978 18.8273 27.6253 18.7848 27.7103C18.7423 27.7953 18.6148 27.8803 18.5298 27.9653C18.4023 28.0078 18.2748 28.0503 18.1048 28.0503C17.9348 28.0503 17.7648 28.0078 17.6373 27.9228C17.5523 27.8803 17.4673 27.7953 17.4248 27.7103C17.3823 27.6253 17.3398 27.5403 17.3398 27.4128C17.3398 27.3703 17.3398 27.3278 17.3823 27.2853C17.4248 27.2428 17.4673 27.2428 17.5098 27.2428C17.5523 27.2428 17.5948 27.2428 17.5948 27.2853C17.6373 27.3278 17.6373 27.3703 17.6798 27.4128C17.7223 27.4978 17.7223 27.5403 17.7648 27.5828C17.8073 27.6253 17.8498 27.6678 17.8923 27.7103C17.9348 27.7528 18.0198 27.7528 18.1048 27.7528C18.2323 27.7528 18.3173 27.7103 18.4023 27.6678C18.4873 27.6253 18.5298 27.5403 18.5298 27.4553C18.5298 27.3703 18.5298 27.3278 18.4873 27.2853C18.4448 27.2428 18.4023 27.2003 18.3173 27.2003C18.2748 27.1578 18.1898 27.1578 18.0623 27.1153C17.9348 27.0728 17.8073 27.0303 17.7223 26.9878C17.6373 26.9453 17.5523 26.8603 17.5098 26.7753C17.4673 26.6903 17.4248 26.6053 17.4248 26.4778C17.4248 26.3503 17.4673 26.2653 17.5098 26.1803C17.5523 26.0953 17.6373 26.0103 17.7648 25.9678C17.8923 25.9253 18.0198 25.8828 18.1473 25.8828C18.2748 25.8828 18.3598 25.8828 18.4448 25.9253C18.5298 25.9678 18.6148 26.0103 18.6573 26.0528C18.6998 26.0953 18.7423 26.1803 18.7848 26.2228C18.8273 26.2653 18.8273 26.3503 18.8273 26.3928C18.8273 26.4353 18.8273 26.4778 18.7848 26.5203C18.7423 26.5628 18.6998 26.5628 18.6573 26.5628C18.6148 26.5628 18.5723 26.5628 18.5723 26.5203C18.5298 26.4778 18.5298 26.4353 18.4873 26.3928C18.4448 26.3078 18.4023 26.2653 18.3598 26.2228C18.3173 26.1803 18.2323 26.1378 18.1048 26.1378C18.0198 26.1378 17.9348 26.1803 17.8498 26.2228C17.7648 26.2653 17.7648 26.3503 17.7648 26.3928C17.7648 26.4353 17.7648 26.4778 17.8073 26.5203C17.8498 26.5628 17.8498 26.5628 17.8923 26.6053C17.9348 26.6478 17.9773 26.6478 18.0198 26.6478C18.0623 26.6478 18.1048 26.6903 18.1898 26.6903C18.3173 26.7328 18.4023 26.7328 18.4873 26.7753C18.5723 26.8178 18.6573 26.8603 18.6998 26.9028C18.7423 26.9453 18.8273 27.0303 18.8273 27.0728C18.8273 27.1578 18.8698 27.2428 18.8698 27.3703Z" fill="white"/>
<path d="M19.5924 26.0944V26.6894H20.4424V26.0944C20.4424 26.0094 20.4424 25.9244 20.4849 25.8819C20.5274 25.8394 20.5699 25.7969 20.6124 25.7969C20.6549 25.7969 20.6974 25.8394 20.7399 25.8394C20.8249 25.9244 20.8249 26.0094 20.8249 26.0944V27.7944C20.8249 27.8794 20.8249 27.9644 20.7824 28.0069C20.7399 28.0494 20.6974 28.0919 20.6549 28.0919C20.6124 28.0919 20.5274 28.0919 20.5274 28.0069C20.4849 27.9644 20.4849 27.8794 20.4849 27.7944V27.0719H19.6349V27.7944C19.6349 27.8794 19.6349 27.9644 19.5924 28.0069C19.5499 28.0494 19.5074 28.0919 19.4649 28.0919C19.4224 28.0919 19.3374 28.0919 19.3374 28.0069C19.2949 27.9644 19.2949 27.8794 19.2949 27.7944V26.0944C19.2949 26.0094 19.2949 25.9244 19.3374 25.8819C19.3799 25.8394 19.4224 25.7969 19.4649 25.7969C19.5074 25.7969 19.5499 25.8394 19.5924 25.8394C19.5924 25.9244 19.5924 26.0094 19.5924 26.0944Z" fill="white"/>
<path d="M14.1523 16.578H13.2598V16.5355H13.3448C13.4298 16.5355 13.5148 16.493 13.5148 16.493C13.5573 16.4505 13.5573 16.408 13.5573 16.2805V15.0905C13.5573 15.0055 13.5573 14.9205 13.5573 14.9205C13.5573 14.878 13.5148 14.878 13.4723 14.878C13.4298 14.8355 13.3873 14.8355 13.3448 14.8355H13.2598V14.793H14.1523V14.8355H14.0673C13.9823 14.8355 13.9398 14.8355 13.8973 14.9205C13.8548 14.963 13.8548 15.0055 13.8548 15.133V16.323C13.8548 16.408 13.8548 16.493 13.8548 16.493C13.8548 16.5355 13.8973 16.5355 13.9398 16.5355C13.9823 16.5355 14.0248 16.578 14.0673 16.578H14.1523Z" fill="white"/>
<path d="M15.2152 15.3008V15.7258H15.1727C15.1302 15.5983 15.0877 15.5133 15.0027 15.4708C14.9602 15.4283 14.8752 15.3858 14.7902 15.3858C14.7052 15.3858 14.6627 15.3858 14.6202 15.4283C14.5777 15.4708 14.5352 15.5133 14.5352 15.5558C14.5352 15.5983 14.5352 15.6408 14.5777 15.6833C14.6202 15.7258 14.6627 15.7683 14.7902 15.8108L15.0027 15.8958C15.2152 15.9808 15.3002 16.1083 15.3002 16.2358C15.3002 16.3633 15.2577 16.4483 15.1727 16.4908C15.0877 16.5758 14.9602 16.5758 14.8327 16.5758C14.7477 16.5758 14.6627 16.5758 14.5352 16.5333C14.4927 16.5333 14.4927 16.5333 14.4502 16.5333V16.5758H14.4077V16.1508H14.4502C14.4927 16.2783 14.5352 16.3633 14.6202 16.4483C14.7052 16.5333 14.7902 16.5333 14.8752 16.5333C14.9602 16.5333 15.0027 16.5333 15.0452 16.4908C15.0877 16.4483 15.1302 16.4058 15.1302 16.3633C15.1302 16.3208 15.0877 16.2358 15.0452 16.1933C15.0027 16.1508 14.9177 16.1083 14.7477 16.0233C14.5777 15.9808 14.4927 15.8958 14.4502 15.8533C14.4077 15.8108 14.3652 15.7258 14.3652 15.6408C14.3652 15.5558 14.4077 15.4708 14.4927 15.3858C14.5777 15.3008 14.6627 15.3008 14.7902 15.3008C14.8327 15.3008 14.9177 15.3008 15.0027 15.3433C15.0452 15.3433 15.0877 15.3433 15.0877 15.3433H15.1302C15.1302 15.3433 15.1302 15.3433 15.1727 15.3008H15.2152Z" fill="white"/>
<path d="M16.0642 14.6641V16.2791C16.0642 16.3641 16.0642 16.4066 16.0642 16.4491C16.0642 16.4916 16.1067 16.4916 16.1067 16.4916C16.1492 16.4916 16.1917 16.4916 16.2767 16.4916V16.5766H15.5542V16.5341C15.6392 16.5341 15.6817 16.5341 15.6817 16.5341C15.7242 16.5341 15.7242 16.4916 15.7242 16.4916C15.7242 16.4491 15.7242 16.4066 15.7242 16.3216V15.2166C15.7242 15.0891 15.7242 15.0041 15.7242 14.9616C15.7242 14.9191 15.7242 14.9191 15.6817 14.8766H15.6392C15.5967 14.8766 15.5967 14.8766 15.5542 14.8766L15.5117 14.8341L15.9367 14.7066H16.0642V14.6641Z" fill="white"/>
<path d="M17.2548 16.4058C17.1273 16.4908 16.9998 16.5758 16.9573 16.5758C16.9148 16.5758 16.8723 16.5758 16.7873 16.5758C16.7023 16.5758 16.6173 16.5333 16.5323 16.4908C16.4473 16.4483 16.4473 16.3633 16.4473 16.2783C16.4473 16.2358 16.4473 16.1508 16.4898 16.1083C16.5323 16.0658 16.6173 15.9808 16.7023 15.9383C16.7873 15.8958 16.9998 15.8108 17.2123 15.7258V15.6833C17.2123 15.5558 17.1698 15.4708 17.1273 15.4283C17.0848 15.3858 16.9998 15.3433 16.9148 15.3433C16.8723 15.3433 16.7873 15.3433 16.7448 15.3858C16.7023 15.4283 16.7023 15.4708 16.7023 15.4708V15.5558C16.7023 15.5983 16.7023 15.6408 16.6598 15.6408C16.7023 15.7258 16.6598 15.7258 16.6173 15.7258C16.5748 15.7258 16.5323 15.7258 16.5323 15.6833C16.4898 15.6408 16.4898 15.6408 16.4898 15.5983C16.4898 15.5133 16.5323 15.4708 16.6173 15.3858C16.7023 15.3008 16.8298 15.3008 16.9998 15.3008C17.1273 15.3008 17.2123 15.3008 17.2973 15.3433C17.3398 15.3858 17.4248 15.4283 17.4248 15.4708C17.4248 15.5133 17.4673 15.5983 17.4673 15.7258V16.1508C17.4673 16.2783 17.4673 16.3208 17.4673 16.3633C17.4673 16.4058 17.4673 16.4058 17.5098 16.4058H17.5523H17.5948C17.6373 16.4058 17.6373 16.3633 17.7223 16.3208V16.4058C17.6373 16.5333 17.5098 16.5758 17.4248 16.5758C17.3823 16.5758 17.3398 16.5758 17.2973 16.5333C17.2548 16.4908 17.2548 16.4483 17.2548 16.4058ZM17.2548 16.2783V15.8108C17.0848 15.8533 16.9998 15.8958 16.9573 15.9383C16.8723 15.9808 16.8298 16.0233 16.7873 16.0658C16.7448 16.1083 16.7448 16.1508 16.7448 16.1933C16.7448 16.2358 16.7873 16.3208 16.8298 16.3633C16.8723 16.4058 16.9148 16.4483 16.9998 16.4483C16.9998 16.4483 17.1273 16.4058 17.2548 16.2783Z" fill="white"/>
<path d="M18.2757 15.5553C18.3607 15.4703 18.4457 15.4278 18.4457 15.3853C18.4882 15.3428 18.5307 15.3428 18.5732 15.3003C18.6157 15.3003 18.7007 15.2578 18.7432 15.2578C18.8282 15.2578 18.9132 15.3003 18.9557 15.3428C18.9982 15.3853 19.0832 15.4703 19.0832 15.5553C19.2107 15.4278 19.2957 15.3853 19.3382 15.3428C19.4657 15.3003 19.5507 15.3003 19.6357 15.3003C19.7207 15.3003 19.7632 15.3003 19.8482 15.3428C19.8907 15.3853 19.9332 15.4278 19.9757 15.5128C20.0182 15.5553 20.0182 15.6403 20.0182 15.7678V16.2778C20.0182 16.3628 20.0182 16.4053 20.0182 16.4478L20.0607 16.4903C20.1032 16.4903 20.1457 16.5328 20.1882 16.5328V16.5753H19.4657V16.5328H19.5507C19.5932 16.5328 19.6782 16.5328 19.6782 16.4903C19.7207 16.4903 19.7207 16.4478 19.7207 16.4053C19.7207 16.4053 19.7207 16.3628 19.7207 16.2778V15.7678C19.7207 15.6828 19.7207 15.5978 19.6782 15.5553C19.6357 15.5128 19.5932 15.4703 19.4657 15.4703C19.4232 15.4703 19.3382 15.4703 19.2957 15.5128C19.2532 15.5553 19.1682 15.5978 19.0832 15.6403V15.6828V16.2778C19.0832 16.3628 19.0832 16.4053 19.0832 16.4478L19.1257 16.4903C19.1682 16.4903 19.2107 16.5328 19.2957 16.5328V16.5753H18.5732V16.5328C18.6582 16.5328 18.7007 16.5328 18.7432 16.4903C18.7857 16.4903 18.7857 16.4478 18.7857 16.4053C18.7857 16.4053 18.7857 16.3628 18.7857 16.2778V15.7678C18.7857 15.6828 18.7857 15.5978 18.7432 15.5553C18.7007 15.5128 18.6157 15.4703 18.5732 15.4703C18.5307 15.4703 18.4457 15.4703 18.4032 15.5128C18.3182 15.5553 18.2332 15.5978 18.1907 15.6403V16.2778C18.1907 16.3628 18.1907 16.4053 18.1907 16.4478C18.1907 16.4903 18.2332 16.4903 18.2332 16.4903C18.2757 16.4903 18.3182 16.4903 18.4032 16.4903V16.5753H17.6807V16.5328C17.7232 16.5328 17.8082 16.5328 17.8082 16.5328C17.8507 16.5328 17.8507 16.4903 17.8507 16.4903C17.8507 16.4478 17.8507 16.4053 17.8507 16.3203V15.8528C17.8507 15.7253 17.8507 15.6403 17.8507 15.5978C17.8507 15.5553 17.8507 15.5553 17.8082 15.5553C17.8082 15.5553 17.7657 15.5553 17.7232 15.5553C17.6807 15.5553 17.6382 15.5553 17.6382 15.5553L17.5957 15.5128L18.0207 15.3853H18.2757V15.5553Z" fill="white"/>
<path d="M20.8255 15.3016V16.2791C20.8255 16.3641 20.8255 16.4066 20.8255 16.4491C20.8255 16.4916 20.868 16.4916 20.868 16.4916C20.9105 16.4916 20.953 16.4916 20.9955 16.4916V16.5766H20.3155V16.5341C20.4005 16.5341 20.443 16.5341 20.443 16.5341C20.4855 16.5341 20.4855 16.4916 20.4855 16.4916C20.4855 16.4491 20.4855 16.4066 20.4855 16.3216V15.8541C20.4855 15.7266 20.4855 15.6416 20.4855 15.5991C20.4855 15.5566 20.4855 15.5566 20.443 15.5566C20.443 15.5566 20.4005 15.5566 20.358 15.5566C20.3155 15.5566 20.273 15.5566 20.273 15.5566L20.2305 15.5141L20.6555 15.3866H20.8255V15.3016ZM20.698 14.6641C20.7405 14.6641 20.783 14.6641 20.8255 14.7066C20.868 14.7491 20.868 14.7491 20.868 14.7916C20.868 14.8341 20.868 14.8766 20.8255 14.8766C20.783 14.9191 20.7405 14.9191 20.698 14.9191C20.6555 14.9191 20.613 14.9191 20.5705 14.8766C20.528 14.8341 20.528 14.8341 20.528 14.7916C20.528 14.7491 20.528 14.7066 20.5705 14.7066C20.613 14.6641 20.6555 14.6641 20.698 14.6641Z" fill="white"/>
<path d="M14.6623 17.768C14.7898 17.8105 14.9173 17.853 15.0023 17.8955C15.0873 17.9805 15.1723 18.0655 15.1723 18.193C15.1723 18.278 15.1298 18.363 15.0873 18.448C15.0023 18.533 14.9173 18.5755 14.8323 18.618C14.6198 18.703 14.4498 18.703 14.2373 18.703H13.2598V18.6605H13.3448C13.4298 18.6605 13.4723 18.618 13.5148 18.5755C13.5573 18.533 13.5573 18.4905 13.5573 18.363V17.2155C13.5573 17.088 13.5573 17.0455 13.5148 17.003C13.4723 16.9605 13.4298 16.9605 13.3448 16.9605H13.2598V16.918H14.1523C14.3223 16.918 14.4498 16.918 14.5773 16.9605C14.7473 17.003 14.8323 17.0455 14.9173 17.1305C15.0023 17.2155 15.0448 17.3005 15.0448 17.428C15.0448 17.513 15.0023 17.598 14.9598 17.683C14.8748 17.683 14.7473 17.7255 14.6623 17.768ZM13.8123 17.683C13.8548 17.683 13.8973 17.683 13.9398 17.683C13.9823 17.683 14.0248 17.683 14.1098 17.683C14.2798 17.683 14.3648 17.683 14.4498 17.6405C14.5348 17.598 14.5773 17.5555 14.6198 17.513C14.6623 17.4705 14.6623 17.3855 14.6623 17.343C14.6623 17.258 14.6198 17.1305 14.4923 17.088C14.4073 17.003 14.2373 16.9605 14.0673 16.9605C13.9823 16.9605 13.8548 16.9605 13.7698 17.003V17.683H13.8123ZM13.8123 18.5755C13.9398 18.618 14.0673 18.618 14.1523 18.618C14.3223 18.618 14.4923 18.5755 14.5773 18.4905C14.6623 18.4055 14.7048 18.3205 14.7048 18.2355C14.7048 18.1505 14.6623 18.108 14.6198 18.023C14.5773 17.938 14.4923 17.8955 14.4073 17.853C14.3223 17.8105 14.1948 17.8105 14.0248 17.8105C13.9823 17.8105 13.8973 17.8105 13.8548 17.8105C13.8123 17.8105 13.7698 17.8105 13.7273 17.8105V18.5755H13.8123Z" fill="white"/>
<path d="M16.5326 18.5312C16.4051 18.6162 16.2776 18.7013 16.2776 18.7013C16.2351 18.7438 16.1501 18.7437 16.1076 18.7437C16.0226 18.7437 15.9376 18.7013 15.8526 18.6588C15.8101 18.6163 15.7676 18.5313 15.7676 18.4463C15.7676 18.4038 15.7676 18.3188 15.8101 18.2763C15.8526 18.2338 15.9376 18.1487 16.0226 18.1062C16.1076 18.0637 16.3201 17.9787 16.5326 17.8937V17.8513C16.5326 17.7238 16.5326 17.6388 16.4476 17.5963C16.4051 17.5538 16.3201 17.5538 16.2351 17.5538C16.1501 17.5538 16.1076 17.5538 16.0651 17.5963C16.0226 17.6388 16.0226 17.6812 16.0226 17.6812V17.7663C16.0226 17.8088 16.0226 17.8513 15.9801 17.8513C15.9376 17.8938 15.9376 17.8937 15.8951 17.8937C15.8526 17.8937 15.8101 17.8938 15.8101 17.8513C15.7676 17.8088 15.7676 17.8088 15.7676 17.7663C15.7676 17.6813 15.8101 17.6388 15.8951 17.5538C15.9801 17.4688 16.1076 17.4688 16.2776 17.4688C16.4051 17.4688 16.4901 17.4688 16.5751 17.5113C16.6176 17.5538 16.7026 17.5963 16.7026 17.6388C16.7026 17.6813 16.7451 17.7662 16.7451 17.8937V18.3187C16.7451 18.4462 16.7451 18.4887 16.7451 18.5312C16.7451 18.5737 16.7451 18.5738 16.7876 18.5738H16.8301H16.8726C16.8726 18.5738 16.9151 18.5313 17.0001 18.4888V18.5738C16.8726 18.7013 16.7876 18.7863 16.6601 18.7863C16.6176 18.7863 16.5751 18.7862 16.5326 18.7437C16.5751 18.6587 16.5326 18.6162 16.5326 18.5312ZM16.5326 18.4463V17.9788C16.3626 18.0213 16.2776 18.0637 16.2351 18.1062C16.1501 18.1487 16.1076 18.1913 16.0651 18.2338C16.0226 18.2763 16.0226 18.3188 16.0226 18.3613C16.0226 18.4463 16.0226 18.4887 16.1076 18.5312C16.1501 18.5737 16.1926 18.5738 16.2776 18.5738C16.3201 18.5738 16.4051 18.5313 16.5326 18.4463Z" fill="white"/>
<path d="M17.8913 17.6808C18.0613 17.5108 18.2313 17.4258 18.3588 17.4258C18.4438 17.4258 18.4863 17.4258 18.5713 17.4683C18.6138 17.5108 18.6563 17.5533 18.6988 17.6383C18.6988 17.6808 18.7413 17.7658 18.7413 17.8933V18.4033C18.7413 18.4883 18.7413 18.5308 18.7413 18.5733C18.7413 18.6158 18.7838 18.6158 18.7838 18.6158C18.8263 18.6158 18.8688 18.6158 18.9113 18.6158V18.7008H18.2738V18.6583H18.3163C18.4013 18.6583 18.4438 18.6583 18.4438 18.6158C18.4863 18.6158 18.4863 18.5733 18.4863 18.5308C18.4863 18.5308 18.4863 18.4883 18.4863 18.4033V17.8933C18.4863 17.7658 18.4863 17.6808 18.4438 17.6383C18.4013 17.5958 18.3588 17.5533 18.2738 17.5533C18.1463 17.5533 18.0188 17.5958 17.8913 17.7233V18.3608C17.8913 18.4458 17.8913 18.4883 17.8913 18.5308C17.8913 18.5733 17.9338 18.5733 17.9338 18.5733C17.9763 18.5733 18.0188 18.5733 18.1038 18.5733V18.7008H17.4238V18.6583H17.4663C17.5513 18.6583 17.5938 18.6583 17.5938 18.6158C17.6363 18.5733 17.6363 18.5308 17.6363 18.4458V17.9783C17.6363 17.8508 17.6363 17.7658 17.6363 17.7233C17.6363 17.6808 17.5938 17.6808 17.5938 17.6808C17.5938 17.6808 17.5513 17.6808 17.5088 17.6808C17.4663 17.6808 17.4238 17.6808 17.4238 17.7233V17.5958L17.8488 17.4683H17.9338V17.6808H17.8913Z" fill="white"/>
<path d="M19.8464 16.7891V18.0216L20.2289 17.7241C20.3139 17.6816 20.3564 17.6391 20.3564 17.5966V17.5541C20.3564 17.5541 20.3564 17.5116 20.3139 17.5116C20.3139 17.5116 20.2714 17.4691 20.2289 17.4691V17.4266H20.8664V17.4691C20.7814 17.4691 20.6964 17.4691 20.6539 17.5116C20.6114 17.5116 20.5264 17.5541 20.4839 17.6391L20.1014 17.9366L20.4839 18.3191C20.5689 18.4466 20.6539 18.4891 20.6964 18.5316C20.7389 18.5741 20.7814 18.5741 20.8239 18.6166C20.8664 18.6166 20.9089 18.6166 20.9514 18.6166V18.7016H20.2714V18.6591C20.3139 18.6591 20.3564 18.6591 20.3564 18.6591C20.3564 18.6591 20.3564 18.6591 20.3564 18.6166C20.3564 18.6166 20.3564 18.5741 20.3139 18.5316L19.8889 18.0641V18.4891C19.8889 18.5741 19.8889 18.6166 19.8889 18.6591C19.8889 18.7016 19.9314 18.7016 19.9314 18.7016C19.9739 18.7016 20.0164 18.7016 20.1014 18.7016H19.3789V18.6591C19.4639 18.6591 19.5064 18.6591 19.5489 18.6166L19.5914 18.5741C19.5914 18.5316 19.6339 18.4891 19.6339 18.4041V17.2991C19.6339 17.1716 19.6339 17.0866 19.6339 17.0441C19.6339 17.0016 19.6339 17.0016 19.5914 17.0016C19.5914 17.0016 19.5489 17.0016 19.5064 17.0016C19.5064 17.0016 19.4639 17.0016 19.4214 17.0441L19.3789 17.0016L19.8039 16.8741H19.8464V16.7891Z" fill="white"/>
</g>
<defs>
<clipPath id="clip0_4413_67577">
<rect width="34" height="34" fill="white"/>
</clipPath>
</defs>
</svg>
