<svg width="34" height="34" viewBox="0 0 34 34" fill="none" xmlns="http://www.w3.org/2000/svg">
<rect width="34" height="34" fill="white"/>
<path d="M5.9493 19.2502C4.4193 18.6977 3.6543 17.6777 3.3143 16.8277C2.9318 16.7852 2.6768 16.7852 2.5918 16.7852C3.4843 19.4202 6.1193 19.3352 6.1193 19.3352L5.9493 19.2502Z" fill="#FFC10E"/>
<path d="M8.88164 16.8266C8.49914 17.7191 7.73414 18.7391 6.11914 19.3341C6.11914 19.3341 8.75414 19.4191 9.64664 16.7841C9.51914 16.7841 9.22164 16.7416 8.88164 16.8266Z" fill="#FFC10E"/>
<path d="M5.18453 16.5298C5.18453 16.0198 5.31203 15.5523 5.43953 15.2123C4.97203 14.5748 4.46203 14.2773 4.46203 14.2773C4.46203 14.2773 4.24953 14.8298 4.20703 15.6373C4.54703 15.8073 4.88703 16.1048 5.18453 16.5298Z" fill="#FFC10E"/>
<path d="M7.98836 15.5948C7.94586 14.8298 7.73336 14.2773 7.73336 14.2773C7.73336 14.2773 7.22336 14.5748 6.75586 15.2123C6.88336 15.5948 7.01086 16.0198 7.01086 16.5298C7.30836 16.1048 7.64836 15.8073 7.98836 15.5948Z" fill="#FFC10E"/>
<path d="M7.73438 17.1675C8.11687 16.955 8.54187 16.87 8.83937 16.8275C9.22187 15.85 9.17937 15 9.17937 15C9.17937 15 8.62687 15.1275 7.94687 15.595C7.98937 16.02 7.94687 16.5725 7.73438 17.1675Z" fill="#FFC10E"/>
<path d="M4.20656 15.595C3.52656 15.1275 2.97406 15 2.97406 15C2.97406 15 2.93156 15.85 3.31406 16.785C3.65406 16.8275 4.03656 16.9125 4.46156 17.125C4.24906 16.5725 4.16406 16.0625 4.20656 15.595Z" fill="#FFC10E"/>
<path opacity="0.6" d="M4.41898 17.1681C4.03648 16.9556 3.61148 16.8706 3.27148 16.8281C3.65398 17.7206 4.37648 18.6981 5.90648 19.2506L6.07648 19.2931C5.18398 18.6131 4.67398 17.8906 4.41898 17.1681Z" fill="url(#paint0_radial_4413_67549)"/>
<path d="M4.41898 17.1681C4.03648 16.9556 3.61148 16.8706 3.27148 16.8281C3.65398 17.7206 4.37648 18.6981 5.90648 19.2506L6.07648 19.2931C5.18398 18.6131 4.67398 17.8906 4.41898 17.1681Z" fill="#F89C27"/>
<path opacity="0.6" d="M8.88164 16.8281C8.54164 16.8706 8.15914 16.9556 7.77664 17.1681C7.52164 17.8906 7.01164 18.6556 6.11914 19.3356C7.69164 18.7406 8.49914 17.7206 8.88164 16.8281Z" fill="url(#paint1_radial_4413_67549)"/>
<path d="M8.88164 16.8281C8.54164 16.8706 8.15914 16.9556 7.77664 17.1681C7.52164 17.8906 7.01164 18.6556 6.11914 19.3356C7.69164 18.7406 8.49914 17.7206 8.88164 16.8281Z" fill="#F89C27"/>
<path d="M4.41864 17.1702C4.75864 17.3402 5.05614 17.5527 5.35364 17.8927C5.18364 17.4252 5.14114 16.9577 5.18364 16.5327C4.88614 16.1502 4.50364 15.8102 4.20614 15.5977C4.16364 16.0652 4.24864 16.5752 4.41864 17.1702Z" fill="#F58528"/>
<path d="M4.41992 17.168C4.67492 17.8905 5.18492 18.6555 6.07742 19.3355C5.73742 18.8255 5.52492 18.358 5.35492 17.8905C5.09992 17.5505 4.75992 17.2955 4.41992 17.168Z" fill="#F16A22"/>
<path d="M7.0118 16.4897C7.0118 16.9147 6.9693 17.3822 6.8418 17.8497C7.1393 17.5097 7.4368 17.2972 7.7768 17.1272C7.9893 16.5747 8.0318 16.0222 8.0318 15.5547C7.6493 15.8097 7.3093 16.1072 7.0118 16.4897Z" fill="#F58528"/>
<path d="M7.73367 17.168C7.39367 17.338 7.09617 17.5505 6.79867 17.8905C6.67117 18.358 6.41617 18.8255 6.07617 19.3355C7.01117 18.613 7.47867 17.8905 7.73367 17.168Z" fill="#F16A22"/>
<path d="M6.75742 15.2134C6.50242 14.4484 6.11992 14.0234 6.11992 14.0234C6.11992 14.0234 5.73742 14.4909 5.48242 15.2134C5.73742 15.5109 5.94992 15.9359 6.11992 16.4034C6.24742 15.8934 6.50242 15.5109 6.75742 15.2134Z" fill="#FFC10E"/>
<path d="M6.33164 17.7644C6.50164 17.2544 6.71414 16.8294 7.01164 16.4894C7.01164 15.9794 6.88414 15.5544 6.75664 15.1719C6.50164 15.4694 6.28914 15.8944 6.11914 16.3619C6.24664 16.7869 6.33164 17.2544 6.33164 17.7644Z" fill="#F47F28"/>
<path d="M7.01258 16.4869C6.75758 16.8269 6.50258 17.2519 6.33258 17.7619C6.33258 17.2519 6.24758 16.7844 6.07758 16.3594C5.95008 16.7844 5.82258 17.2519 5.82258 17.7619C5.65258 17.2519 5.44008 16.8269 5.14258 16.4869C5.14258 16.9119 5.18508 17.3369 5.31258 17.8469C5.44008 18.3144 5.69508 18.7819 6.03508 19.2919C6.37508 18.7819 6.63008 18.3144 6.75758 17.8469C6.97008 17.3794 7.01258 16.9119 7.01258 16.4869Z" fill="#F05A22"/>
<path d="M5.86406 17.8073C5.86406 17.2548 5.94906 16.7873 6.11906 16.4048C5.94906 15.9373 5.69406 15.5123 5.48156 15.2148C5.35406 15.5973 5.22656 16.0223 5.22656 16.5323C5.43906 16.8723 5.69406 17.2973 5.86406 17.8073Z" fill="#F47F28"/>
<path d="M13.5147 16.6602C13.5147 18.2752 13.0472 18.7852 11.8147 18.7852C11.2197 18.7852 10.7097 18.7427 10.2422 18.7427V14.5777C10.7097 14.5352 11.1772 14.5352 11.8147 14.5352C13.0472 14.5352 13.5147 15.0027 13.5147 16.6602ZM12.7072 16.6602C12.7072 15.5127 12.4947 15.1727 11.8147 15.1727C11.5172 15.1727 11.2622 15.1727 11.0072 15.1727V18.1477C11.2622 18.1477 11.5172 18.1477 11.8147 18.1477C12.4947 18.1477 12.7072 17.8077 12.7072 16.6602Z" fill="#77787B"/>
<path d="M18.4879 16.5732V18.7832H17.7654V16.7857C17.7654 16.4882 17.6804 16.3607 17.3829 16.3607C17.1279 16.3607 16.9579 16.4457 16.5754 16.7007V18.7832H15.8529V16.7857C15.8529 16.4457 15.7254 16.3607 15.4704 16.3607C15.2579 16.3607 15.0879 16.4457 14.6629 16.7007V18.7832H14.0254V15.8507H14.6204L14.6629 16.2757C15.0454 15.9357 15.3854 15.7657 15.8104 15.7657C16.1929 15.7657 16.4479 15.9357 16.5754 16.2757C16.9579 15.9357 17.2979 15.7657 17.6804 15.7657C18.1904 15.7232 18.4879 16.0207 18.4879 16.5732Z" fill="#77787B"/>
<path d="M21.8451 17.2991C21.8451 18.4466 21.4626 18.8716 20.4001 18.8716C19.3376 18.8716 18.9551 18.4466 18.9551 17.2991C18.9551 16.1516 19.3376 15.7266 20.4001 15.7266C21.4201 15.7266 21.8451 16.1941 21.8451 17.2991ZM19.6776 17.2991C19.6776 18.0641 19.8476 18.2766 20.3576 18.2766C20.8676 18.2766 21.0376 18.0641 21.0376 17.2991C21.0376 16.5341 20.8676 16.3216 20.3576 16.3216C19.8476 16.3216 19.6776 16.5341 19.6776 17.2991Z" fill="#77787B"/>
<path d="M25.0325 16.5732V18.7832H24.31V16.7857C24.31 16.4457 24.225 16.3607 24.0125 16.3607C23.715 16.3607 23.46 16.4882 23.035 16.7432V18.7832H22.3125V15.8507H22.9075L22.95 16.2757C23.375 15.9357 23.8 15.7657 24.225 15.7657C24.735 15.7232 25.0325 16.0207 25.0325 16.5732Z" fill="#77787B"/>
<path d="M28.092 18.1916L28.177 18.6591C27.8795 18.8291 27.327 18.8716 26.9445 18.8716C25.882 18.8716 25.457 18.4466 25.457 17.2991C25.457 16.1091 25.882 15.7266 26.902 15.7266C27.8795 15.7266 28.262 16.0666 28.262 16.7466C28.262 17.2566 28.007 17.5966 27.4545 17.5966H26.2645C26.307 18.1491 26.562 18.2341 27.072 18.2341C27.2845 18.2766 27.7095 18.2341 28.092 18.1916ZM26.222 17.0866H27.242C27.497 17.0866 27.497 16.9166 27.497 16.7466C27.497 16.4491 27.3695 16.3216 26.902 16.3216C26.392 16.3216 26.222 16.4916 26.222 17.0866Z" fill="#77787B"/>
<path d="M30.3442 18.8691C30.1317 19.4216 29.7067 20.0591 28.8567 20.0166L28.7717 19.5491C29.2392 19.4216 29.4942 19.2091 29.6217 18.8691L29.6642 18.7841H29.5367C29.4092 18.7841 29.3242 18.6991 29.2817 18.6141L28.2617 15.8516H29.0267L29.6642 17.8916C29.7067 18.0191 29.7492 18.1466 29.7492 18.2741H29.8342C29.8767 18.1466 29.9192 17.9766 29.9617 17.8916L30.5992 15.8516H31.3642L30.3442 18.8691Z" fill="#77787B"/>
<defs>
<radialGradient id="paint0_radial_4413_67549" cx="0" cy="0" r="1" gradientUnits="userSpaceOnUse" gradientTransform="translate(6.12655 18.4742) scale(5.23757 5.23758)">
<stop stop-color="#E83E2E"/>
<stop offset="0.2341" stop-color="#E9482F"/>
<stop offset="0.6836" stop-color="#FDC60B"/>
</radialGradient>
<radialGradient id="paint1_radial_4413_67549" cx="0" cy="0" r="1" gradientUnits="userSpaceOnUse" gradientTransform="translate(6.12666 18.4742) scale(5.23987 5.23987)">
<stop stop-color="#E83E2E"/>
<stop offset="0.2341" stop-color="#E9482F"/>
<stop offset="0.6836" stop-color="#FDC60B"/>
</radialGradient>
</defs>
</svg>
