<svg width="34" height="34" viewBox="0 0 34 34" fill="none" xmlns="http://www.w3.org/2000/svg">
<rect width="34" height="34" fill="white"/>
<path d="M26.2248 14.5091C26.0103 14.5537 25.8362 14.5941 25.8322 14.5941C25.8281 14.5941 25.8281 15.6992 25.8281 17.047L25.8281 19.4999H26.2248H26.6215L26.6255 18.3503L26.6295 17.2008L26.7065 17.047C26.8643 16.7313 27.1517 16.5613 27.4876 16.5856C27.8317 16.6099 28.0381 16.792 28.1515 17.1644C28.1757 17.2453 28.1838 17.4194 28.1879 18.3827L28.196 19.5039L28.5845 19.4999L28.9772 19.4958L28.9812 18.5122C28.9893 17.1684 28.965 16.9175 28.8031 16.5896C28.6169 16.2132 28.281 15.9987 27.8398 15.9744C27.601 15.9622 27.4391 15.9987 27.2246 16.1039C27.0424 16.193 26.8926 16.3144 26.7915 16.4561C26.7348 16.533 26.7146 16.5451 26.6781 16.5411L26.6295 16.537L26.6215 15.4806L26.6134 14.4241L26.2248 14.5091Z" fill="#125EAA"/>
<path d="M4.36725 14.4612C3.91391 14.5462 3.5132 14.7729 3.30273 15.0724C3.11654 15.3315 3.05177 15.5622 3.06392 15.8941C3.08011 16.2462 3.1813 16.4729 3.44035 16.7157C3.65487 16.9222 3.89773 17.0598 4.35106 17.2379C4.90154 17.4524 5.07963 17.5738 5.19296 17.8045C5.24963 17.9219 5.25368 17.93 5.25368 18.1607C5.25368 18.4441 5.2213 18.5534 5.08368 18.691C4.91773 18.861 4.71939 18.9257 4.35915 18.9257C4.00296 18.9257 3.71963 18.861 3.39177 18.7112L3.24201 18.6424L3.21773 18.7355C3.20154 18.7881 3.16106 18.9338 3.12868 19.0593L3.06796 19.29L3.13272 19.3224C3.49296 19.5045 4.07582 19.6017 4.55344 19.5612C5.58558 19.4722 6.20082 18.9298 6.20082 18.1041C6.20082 17.7438 6.09963 17.4645 5.87296 17.2257C5.65439 16.991 5.3913 16.8331 4.86511 16.6267C4.43606 16.4567 4.22963 16.3434 4.07987 16.1936C3.93011 16.0438 3.88558 15.9426 3.88558 15.7403C3.88558 15.4286 4.13654 15.1696 4.51296 15.0926C4.82868 15.0238 5.35892 15.0926 5.68677 15.2384C5.74344 15.2626 5.78796 15.2829 5.79201 15.2788C5.79201 15.2748 5.83654 15.1331 5.88915 14.9672C5.97011 14.7 5.9782 14.6596 5.95391 14.6393C5.90939 14.6069 5.64225 14.526 5.4601 14.4855C5.22534 14.4369 4.57772 14.4207 4.36725 14.4612Z" fill="#125EAA"/>
<path d="M17.9179 14.5193C17.076 14.6448 16.5013 14.9767 16.1086 15.5595C15.7201 16.1343 15.5825 16.9479 15.7444 17.7088C16.0236 19.0203 17.1732 19.68 18.8003 19.4574C18.9663 19.4331 19.3305 19.3522 19.3467 19.3319C19.3548 19.3238 19.2617 18.8867 19.2536 18.8745C19.2496 18.8705 19.1767 18.8826 19.0958 18.9029C18.8084 18.9717 18.6829 18.9879 18.3429 18.9879C17.9503 18.9879 17.7884 18.9555 17.5294 18.8341C17.4039 18.7733 17.3472 18.7329 17.2217 18.6034C17.0922 18.4738 17.0517 18.4172 16.9829 18.2755C16.821 17.9436 16.7644 17.6157 16.7644 17.0248C16.7644 16.4743 16.821 16.1384 16.9627 15.8186C17.072 15.5676 17.2905 15.3167 17.497 15.1993C17.6467 15.1143 17.8936 15.0374 18.1041 15.0131C18.4036 14.9807 18.8367 15.0212 19.1282 15.1143L19.2577 15.1548L19.3225 14.92C19.3589 14.7905 19.3832 14.6812 19.3791 14.6731C19.367 14.6529 19.1282 14.5841 18.946 14.5517C18.7882 14.5234 18.0475 14.4991 17.9179 14.5193Z" fill="#125EAA"/>
<path d="M11.665 15.8528C11.3169 15.9095 11.0012 16.1726 10.8595 16.5247C10.8231 16.6178 10.815 16.6259 10.7543 16.63C10.6936 16.634 10.6895 16.634 10.6814 16.5773C10.6774 16.545 10.6693 16.3912 10.6612 16.2373C10.6571 16.0835 10.649 15.954 10.645 15.954C10.6409 15.95 10.4871 15.9864 10.3009 16.035L9.96094 16.12L9.97308 16.3345C9.98117 16.4559 9.98522 17.2169 9.98522 18.0304V19.5078H10.39H10.7947L10.8028 18.4757C10.8109 17.48 10.8109 17.4395 10.8474 17.3019C10.904 17.0995 10.985 16.9619 11.1145 16.8404C11.3047 16.6623 11.4788 16.6016 11.7743 16.6016H11.9524V16.2373C11.9524 15.8731 11.9524 15.869 11.9119 15.8609C11.8674 15.8407 11.7378 15.8407 11.665 15.8528Z" fill="#125EAA"/>
<path d="M13.4748 15.8568C12.8151 15.9499 12.3334 16.3587 12.1027 17.0144C11.957 17.4273 11.9367 17.917 12.046 18.342C12.0946 18.5242 12.2403 18.8116 12.3536 18.9573C12.7301 19.4147 13.3655 19.6251 14.1629 19.5523C14.5636 19.5158 15.0575 19.4025 15.0575 19.3458C15.0575 19.3013 14.9644 18.8763 14.9482 18.8642C14.9441 18.8561 14.8834 18.8642 14.8146 18.8844C14.5677 18.9532 14.3532 18.9816 14.0253 18.9816C13.7582 18.9816 13.6894 18.9775 13.5639 18.9411C13.0741 18.8075 12.7989 18.4999 12.7503 18.0385L12.7382 17.9089H13.9929C15.1182 17.9089 15.2477 17.9049 15.2558 17.8806C15.2801 17.8239 15.2679 17.318 15.2396 17.1601C15.1182 16.468 14.7296 16.0228 14.1305 15.8811C13.9929 15.8528 13.6286 15.8366 13.4748 15.8568ZM14.0051 16.4559C14.2398 16.5449 14.4179 16.7716 14.4908 17.0832C14.511 17.1682 14.511 17.1966 14.4948 17.2047C14.4827 17.2087 14.1427 17.2573 13.742 17.3099C13.3413 17.3666 12.9851 17.4111 12.9527 17.4192L12.896 17.4313V17.318C12.896 17.1885 12.9486 16.982 13.0134 16.8485C13.1915 16.4923 13.6367 16.3182 14.0051 16.4559Z" fill="#125EAA"/>
<path d="M20.8003 15.8624C20.5049 15.8907 20.1406 15.9879 19.9382 16.0931L19.8451 16.1417L19.9139 16.3765C19.9544 16.506 19.9868 16.6153 19.9908 16.6153C19.9908 16.6193 20.0556 16.591 20.1284 16.5586C20.5453 16.3643 21.1363 16.3319 21.4277 16.4776C21.541 16.5343 21.6544 16.6476 21.703 16.7529C21.7515 16.8581 21.792 17.0484 21.7839 17.1415L21.7799 17.2022L21.4925 17.2143C20.3753 17.2629 19.7399 17.6191 19.5941 18.2707C19.5537 18.4529 19.5658 18.7281 19.6225 18.886C19.7722 19.3191 20.1689 19.5781 20.6708 19.5781C21.0756 19.5781 21.4196 19.4405 21.6584 19.1896C21.7272 19.1167 21.7637 19.0924 21.8041 19.0884C21.8608 19.0884 21.8568 19.0803 21.8972 19.3555L21.9175 19.5053H22.2777H22.638L22.6258 19.4203C22.6177 19.3757 22.6056 18.8091 22.5975 18.1696C22.5813 16.9067 22.5813 16.9067 22.472 16.6315C22.4032 16.4574 22.3101 16.3198 22.1684 16.1862C21.881 15.911 21.4156 15.8017 20.8003 15.8624ZM21.7353 18.0765C21.7353 18.4731 21.7151 18.5419 21.5532 18.716C21.4277 18.8496 21.3184 18.9143 21.1444 18.9548C20.8489 19.0236 20.5858 18.9184 20.4846 18.6836C20.428 18.5541 20.428 18.3396 20.4846 18.21C20.6101 17.9267 20.9987 17.7648 21.5653 17.7567L21.7353 17.7526V18.0765Z" fill="#125EAA"/>
<path d="M24.0945 15.8651C23.6493 15.9379 23.3012 16.1687 23.1514 16.4925C23.0097 16.792 23.0138 17.132 23.1635 17.3668C23.3214 17.6177 23.5602 17.7796 24.0581 17.9658C24.4183 18.1034 24.5559 18.1925 24.6409 18.3544C24.6976 18.4637 24.6976 18.6498 24.6369 18.7591C24.4831 19.0303 24.0581 19.0991 23.5116 18.9494C23.4226 18.9251 23.2971 18.8806 23.2324 18.8482C23.1676 18.8199 23.1109 18.7996 23.1069 18.8037C23.0947 18.8158 22.9531 19.342 22.9571 19.3501C22.9612 19.3501 23.0138 19.3744 23.0705 19.3987C23.5197 19.5848 24.1674 19.6253 24.6247 19.4918C25.1631 19.3339 25.4585 18.9817 25.4585 18.496C25.4585 18.1317 25.3331 17.8849 25.0335 17.6744C24.8919 17.5732 24.7583 17.5084 24.4871 17.4032C23.9731 17.2089 23.8193 17.0794 23.8193 16.8325C23.8193 16.6625 23.9164 16.5249 24.0904 16.4399C24.1957 16.3913 24.2159 16.3872 24.4224 16.3913C24.6531 16.3913 24.8109 16.4237 25.0295 16.5127C25.0902 16.537 25.1428 16.5572 25.1509 16.5491C25.159 16.541 25.2966 16.0553 25.2966 16.0351C25.2966 16.027 25.24 16.0027 25.1712 15.9784C24.8757 15.8651 24.3981 15.8165 24.0945 15.8651Z" fill="#125EAA"/>
<path d="M8.77914 17.0854C8.77914 18.1661 8.77509 18.247 8.74676 18.3482C8.70224 18.4939 8.62128 18.6154 8.49581 18.7287C8.31771 18.8906 8.14367 18.9513 7.89676 18.9432C7.55676 18.927 7.35033 18.7368 7.23295 18.3401C7.20462 18.243 7.20057 18.1135 7.19652 17.0894C7.19247 16.462 7.18438 15.948 7.17628 15.948C7.16819 15.948 6.98605 15.9885 6.77152 16.033L6.37891 16.118V17.223C6.37891 18.1458 6.38295 18.3482 6.40724 18.4899C6.50033 19.0363 6.74724 19.3642 7.18033 19.5139C7.31795 19.5585 7.34224 19.5625 7.61343 19.5625C7.87652 19.5625 7.91295 19.5585 8.04652 19.5139C8.31771 19.4249 8.56057 19.2427 8.70628 19.0282C8.7589 18.9473 8.78723 18.923 8.81962 18.923C8.8439 18.923 8.86414 18.9311 8.87224 18.9351C8.87628 18.9432 8.88843 19.0727 8.90462 19.2225L8.9289 19.4977H9.28104H9.63319L9.62104 19.2954C9.617 19.182 9.6089 18.3806 9.6089 17.5104V15.9277H9.192H8.77914V17.0854Z" fill="#125EAA"/>
<path d="M29.3652 18.7272V18.7839H29.4907H29.6162L29.6202 19.132L29.6243 19.48L29.6931 19.4881L29.7619 19.4922V19.14V18.7879H29.8874H30.0129V18.7312V18.6786H29.689H29.3652V18.7272Z" fill="#125EAA"/>
<path d="M30.1797 19.0796V19.4844H30.2404H30.3052V19.2294C30.3052 19.0877 30.3092 18.9784 30.3173 18.9825C30.3214 18.9865 30.3659 19.0999 30.4145 19.2334L30.5035 19.4722H30.5602H30.6209L30.7018 19.2334C30.7464 19.0999 30.7909 18.9906 30.799 18.9825C30.8071 18.9744 30.8111 19.0837 30.8111 19.2253V19.4803H30.8759H30.9406V19.0756V18.6708H30.8597H30.7828L30.6775 18.9663C30.6209 19.1241 30.5642 19.2658 30.5602 19.2739C30.5521 19.282 30.4995 19.1484 30.4387 18.9784L30.3335 18.6708H30.2566H30.1797V19.0796Z" fill="#125EAA"/>
</svg>
