<svg width="34" height="34" viewBox="0 0 34 34" fill="none" xmlns="http://www.w3.org/2000/svg">
<rect width="34" height="34" fill="white"/>
<path fill-rule="evenodd" clip-rule="evenodd" d="M6.375 6.375H27.625V17.8925V20.995V27.625H6.375V16.83V15.3V6.375Z" fill="#016FD0"/>
<path fill-rule="evenodd" clip-rule="evenodd" d="M10.5391 21.1631V17.8906H14.0666L14.4066 18.4431L14.7466 17.8906H27.6241V20.9931C27.6241 20.9931 27.2841 21.2481 26.9016 21.2481H19.8466L19.4216 20.6956V21.2481H18.0191V20.3556C18.0191 20.3556 17.8491 20.4406 17.3816 20.4406H16.9566V21.2481H14.8316L14.4491 20.6956L14.0666 21.2481L10.5391 21.1631Z" fill="white"/>
<path fill-rule="evenodd" clip-rule="evenodd" d="M6.375 15.2997L7.1825 13.4297H8.585L9.01 14.4922V13.4297H10.71L10.965 14.1522L11.22 13.4297H18.9125V13.7697C18.9125 13.7697 19.3375 13.4297 19.975 13.4297H22.44L22.865 14.4922V13.4297H24.2675L24.6075 14.0672V13.4297H26.01V16.7872H24.6075L24.2675 16.1497V16.7872H22.2275L22.0575 16.2772H21.5475L21.3775 16.7872H19.975C19.465 16.7872 18.9975 16.4472 18.9975 16.4472V16.7872H16.8725L16.4475 16.2772V16.7872H8.5L8.16 16.2772H7.5225L7.3525 16.7872H6.375V15.2997Z" fill="white"/>
<path fill-rule="evenodd" clip-rule="evenodd" d="M7.4375 13.8984L6.375 16.3634H7.0975L7.2675 15.8534H8.415L8.585 16.3634H9.3075L8.245 13.8984H7.4375ZM7.8625 14.4509L8.2025 15.3434H7.48L7.8625 14.4509Z" fill="#016FD0"/>
<path fill-rule="evenodd" clip-rule="evenodd" d="M9.39258 16.3634V13.8984H10.4551L10.9651 15.5134L11.5176 13.8984H12.5801V16.3634H11.9426V14.5359L11.2626 16.3634H10.7101L9.98758 14.5359V16.3634H9.39258Z" fill="#016FD0"/>
<path fill-rule="evenodd" clip-rule="evenodd" d="M12.9199 16.3634V13.8984H14.9599V14.4509H13.6424V14.8759H14.9599V15.3859H13.6424V15.8534H14.9599V16.3634H12.9199Z" fill="#016FD0"/>
<path fill-rule="evenodd" clip-rule="evenodd" d="M15.3848 13.8984V16.3634H16.0223V15.4709H16.2773L16.9998 16.3634H17.8073L16.9998 15.5134C17.3398 15.5134 17.7223 15.1734 17.7223 14.7059C17.7223 14.1534 17.2973 13.8984 16.8298 13.8984H15.3848ZM16.0223 14.4509H16.7448C16.9148 14.4509 16.9998 14.6209 16.9998 14.7059C16.9998 14.8759 16.8298 14.9609 16.7448 14.9609H16.0223V14.4509Z" fill="#016FD0"/>
<path fill-rule="evenodd" clip-rule="evenodd" d="M18.4876 16.3634H17.8926V13.8984H18.4876V16.3634Z" fill="#016FD0"/>
<path fill-rule="evenodd" clip-rule="evenodd" d="M20.0177 16.3634H19.8477C19.1252 16.3634 18.7852 15.8534 18.7852 15.1309C18.7852 14.4084 19.2102 13.8984 20.0177 13.8984H20.7402V14.5359H20.0177C19.6777 14.5359 19.3802 14.7909 19.3802 15.2584C19.3802 15.7259 19.6352 15.9809 20.1027 15.9809H20.2727L20.0177 16.3634Z" fill="#016FD0"/>
<path fill-rule="evenodd" clip-rule="evenodd" d="M21.4199 13.8984L20.3574 16.3634H21.0799L21.2499 15.8534H22.3974L22.5674 16.3634H23.2899L22.2274 13.8984H21.4199ZM21.7599 14.4509L22.0999 15.3434H21.3774L21.7599 14.4509Z" fill="#016FD0"/>
<path fill-rule="evenodd" clip-rule="evenodd" d="M23.375 16.3634V13.8984H24.1825L25.16 15.5134V13.8984H25.755V16.3634H25.075L24.0125 14.7909V16.3634H23.375Z" fill="#016FD0"/>
<path fill-rule="evenodd" clip-rule="evenodd" d="M10.8809 20.7419V18.2344H12.9209V18.8719H11.6034V19.2119H12.9209V19.7644H11.6034V20.1894H12.9209V20.7419H10.8809Z" fill="#016FD0"/>
<path fill-rule="evenodd" clip-rule="evenodd" d="M20.9102 20.7419V18.2344H22.9502V18.8719H21.5052V19.2119H22.9502V19.7644H21.5052V20.1894H22.9502V20.7419H20.9102Z" fill="#016FD0"/>
<path fill-rule="evenodd" clip-rule="evenodd" d="M13.0059 20.7419L14.0684 19.4669L13.0059 18.2344H13.8134L14.4509 19.0419L15.0459 18.2344H15.7684L14.7909 19.4669L15.7684 20.7419H14.9609L14.4509 20.0194L13.8134 20.7419H13.0059Z" fill="#016FD0"/>
<path fill-rule="evenodd" clip-rule="evenodd" d="M15.8516 18.2339V20.6989H16.4891V19.8914H17.1266C17.6366 19.8914 18.1041 19.6364 18.1041 18.9989C18.1041 18.5739 17.7641 18.1914 17.2116 18.1914H15.8516V18.2339ZM16.4891 18.8714H17.2116C17.3816 18.8714 17.4666 18.9564 17.4666 19.1264C17.4666 19.2964 17.3816 19.3814 17.1266 19.3814H16.4041V18.8714H16.4891Z" fill="#016FD0"/>
<path fill-rule="evenodd" clip-rule="evenodd" d="M18.4023 18.2339V20.6989H19.0398V19.8064H19.2948L20.0173 20.6989H20.8248L20.0173 19.8064C20.3573 19.8064 20.7398 19.4664 20.7398 18.9989C20.7398 18.4889 20.3148 18.1914 19.8473 18.1914H18.4023V18.2339ZM19.0398 18.8714H19.7623C19.9323 18.8714 20.0173 19.0414 20.0173 19.1264C20.0173 19.2964 19.8473 19.3814 19.7623 19.3814H19.0398V18.8714Z" fill="#016FD0"/>
<path fill-rule="evenodd" clip-rule="evenodd" d="M23.2041 20.7394V20.2294H24.4366C24.6066 20.2294 24.6916 20.1444 24.6916 20.0594C24.6916 19.9744 24.6066 19.8894 24.4366 19.8894H23.9266C23.3741 19.8894 23.1191 19.6344 23.1191 19.1669C23.1191 18.7419 23.3741 18.3594 24.0966 18.3594H25.3291L25.0741 18.8694H24.0966C23.9266 18.8694 23.8416 18.9544 23.8416 19.0394C23.8416 19.1244 23.9266 19.2094 24.0966 19.2094H24.7341C25.2866 19.2094 25.5416 19.5494 25.5416 19.9319C25.5416 20.3569 25.2866 20.7394 24.7341 20.7394H23.2041Z" fill="#016FD0"/>
<path fill-rule="evenodd" clip-rule="evenodd" d="M25.5005 20.7394V20.2294H26.733C26.903 20.2294 26.988 20.1444 26.988 20.0594C26.988 19.9744 26.903 19.8894 26.733 19.8894H26.1805C25.6705 19.8894 25.373 19.6344 25.373 19.1669C25.373 18.7419 25.628 18.3594 26.3505 18.3594H27.6255L27.3705 18.8694H26.308C26.138 18.8694 26.053 18.9544 26.053 19.0394C26.053 19.1244 26.138 19.2094 26.308 19.2094H26.818C27.328 19.2094 27.6255 19.5494 27.6255 19.9319C27.6255 20.3569 27.3705 20.7394 26.818 20.7394H25.5005Z" fill="#016FD0"/>
</svg>
