<svg width="34" height="34" viewBox="0 0 34 34" fill="none" xmlns="http://www.w3.org/2000/svg">
<rect width="34" height="34" fill="white"/>
<path d="M17.34 15.7671C17.34 16.7021 18.19 17.2121 18.87 17.5521C19.55 17.8921 19.72 18.0621 19.72 18.3596C19.72 18.8271 19.21 19.0396 18.7425 19.0396C17.8925 19.0396 17.34 18.7846 16.9575 18.6571L16.6175 20.1021C17 20.3146 17.765 20.4421 18.53 20.4421C20.315 20.4421 21.505 19.5921 21.505 18.1896C21.505 16.4471 19.125 16.3196 19.125 15.5546C19.125 15.2996 19.3375 15.0871 19.8475 15.0446C20.1025 15.0446 20.7825 14.9596 21.505 15.2996L21.845 13.8971C21.4625 13.7696 20.91 13.6421 20.23 13.6421C18.615 13.5996 17.3825 14.4921 17.34 15.7671ZM24.7775 13.7271C24.4375 13.7271 24.1825 13.9396 24.055 14.1946L21.4625 20.3571H23.2475L23.5875 19.3796H25.7975L26.01 20.3571H27.625L26.2225 13.7271H24.7775ZM25.0325 15.5121L25.5425 18.0196H24.14L25.0325 15.5121ZM15.215 13.7271L13.8125 20.3571H15.555L16.9575 13.7271H15.215ZM12.6225 13.7271L10.8375 18.2321L10.1575 14.3646C10.03 13.9821 9.69 13.6846 9.35 13.6846H6.4175L6.375 13.8971C6.97 14.0246 7.65 14.2371 8.1175 14.4921C8.33 14.6196 8.3725 14.7046 8.5 15.0021L9.9025 20.3146H11.6875L14.4925 13.6846H12.6225" fill="#1B216D"/>
</svg>
