<svg width="34" height="34" viewBox="0 0 34 34" fill="none" xmlns="http://www.w3.org/2000/svg">
<rect width="34" height="34" fill="white"/>
<path d="M10.241 25.1608V24.0558C10.2835 23.7158 9.98602 23.3758 9.64602 23.3758C9.60352 23.3758 9.60352 23.3758 9.56102 23.3758C9.30602 23.3758 9.09352 23.4608 8.96602 23.6733C8.83852 23.4608 8.62602 23.3333 8.37102 23.3758C8.15852 23.3758 7.98852 23.4608 7.86102 23.6308V23.4183H7.47852V25.1608H7.86102V24.2258C7.81852 24.0133 7.98852 23.8008 8.20102 23.7583C8.24352 23.7583 8.24352 23.7583 8.28602 23.7583C8.54102 23.7583 8.66852 23.9283 8.66852 24.2258V25.2033H9.05102V24.2258C9.00852 24.0133 9.17852 23.8008 9.39102 23.7583C9.43352 23.7583 9.43352 23.7583 9.47602 23.7583C9.73102 23.7583 9.85852 23.9283 9.85852 24.2258V25.2033L10.241 25.1608ZM15.8935 23.4183H15.2985V22.9083H14.916V23.4183H14.576V23.7583H14.916V24.5658C14.916 24.9908 15.086 25.2033 15.511 25.2033C15.681 25.2033 15.851 25.1608 15.9785 25.0758L15.851 24.7358C15.766 24.7783 15.6385 24.8208 15.511 24.8208C15.341 24.8208 15.256 24.6933 15.256 24.5233V23.7158H15.8935V23.4183ZM19.1235 23.3758C18.9535 23.3758 18.741 23.4608 18.656 23.6308V23.4183H18.2735V25.1608H18.6985V24.1833C18.6985 23.8858 18.826 23.7158 19.081 23.7158C19.166 23.7158 19.251 23.7158 19.336 23.7583L19.4635 23.3758C19.336 23.3758 19.2085 23.3758 19.1235 23.3758ZM14.236 23.5883C14.0235 23.4608 13.7685 23.3758 13.556 23.3758C13.131 23.3758 12.8335 23.5883 12.8335 23.9283C12.8335 24.2258 13.046 24.3958 13.4285 24.4383L13.5985 24.4808C13.811 24.5233 13.896 24.5658 13.896 24.6508C13.896 24.7783 13.7685 24.8633 13.5135 24.8633C13.301 24.8633 13.0885 24.8208 12.9185 24.6933L12.7485 24.9908C12.961 25.1608 13.216 25.2033 13.5135 25.2033C14.0235 25.2033 14.321 24.9483 14.321 24.6508C14.321 24.3533 14.1085 24.1833 13.726 24.1408L13.556 24.0983C13.386 24.0558 13.2585 24.0558 13.2585 23.9283C13.2585 23.8008 13.386 23.7158 13.5985 23.7158C13.811 23.7158 13.981 23.7583 14.151 23.8858L14.236 23.5883ZM24.3935 23.3758C24.2235 23.3758 24.011 23.4608 23.926 23.6308V23.4183H23.5435V25.1608H23.926V24.1833C23.926 23.8858 24.0535 23.7158 24.3085 23.7158C24.3935 23.7158 24.4785 23.7158 24.5635 23.7583L24.691 23.3758C24.606 23.3758 24.4785 23.3758 24.3935 23.3758ZM19.506 24.3108C19.506 24.7783 19.8885 25.2033 20.356 25.2033C20.3985 25.2033 20.3985 25.2033 20.441 25.2033C20.6535 25.2033 20.9085 25.1608 21.0785 24.9908L20.9085 24.6933C20.781 24.7783 20.611 24.8633 20.441 24.8633C20.1435 24.8208 19.8885 24.5658 19.931 24.2683C19.9735 24.0133 20.186 23.7583 20.441 23.7583C20.611 23.7583 20.781 23.8008 20.9085 23.9283L21.0785 23.6308C20.9085 23.5033 20.696 23.4183 20.441 23.4183C19.9735 23.3758 19.5485 23.7583 19.506 24.2683C19.506 24.2258 19.506 24.2683 19.506 24.3108ZM23.076 24.3108V23.4608H22.6935V23.6733C22.566 23.5033 22.3535 23.4183 22.141 23.4183C21.631 23.4183 21.2485 23.8433 21.2485 24.3108C21.2485 24.8208 21.6735 25.2033 22.141 25.2033C22.3535 25.2033 22.566 25.1183 22.6935 24.9483V25.1608H23.076V24.3108ZM21.6735 24.3108C21.6735 24.0133 21.9285 23.8008 22.226 23.8008C22.5235 23.8008 22.736 24.0558 22.736 24.3533C22.736 24.6508 22.481 24.8633 22.226 24.8633C21.886 24.8633 21.6735 24.6083 21.6735 24.3108ZM17.0835 23.3758C16.5735 23.3758 16.191 23.8008 16.191 24.3108C16.191 24.8208 16.616 25.2033 17.126 25.2033C17.381 25.2033 17.636 25.1183 17.8485 24.9483L17.6785 24.6508C17.551 24.7783 17.3385 24.8208 17.1685 24.8208C16.9135 24.8633 16.6585 24.6508 16.6585 24.3958H17.9335C17.9335 24.3533 17.9335 24.3108 17.9335 24.2683C17.9335 23.7583 17.5935 23.3758 17.0835 23.3758ZM17.0835 23.7158C17.3385 23.7158 17.5085 23.8858 17.5085 24.1408H16.616C16.616 23.8858 16.8285 23.7158 17.0835 23.7158ZM26.6035 24.3108V22.7383H26.221V23.6308C26.0935 23.4608 25.881 23.3758 25.6685 23.3758C25.1585 23.3758 24.776 23.8008 24.776 24.2683C24.776 24.7783 25.201 25.1608 25.6685 25.1608C25.881 25.1608 26.0935 25.0758 26.221 24.9058V25.1183H26.6035V24.3108ZM27.241 24.9058C27.2835 24.9058 27.2835 24.9058 27.326 24.9058C27.326 24.9058 27.3685 24.9058 27.3685 24.9483L27.411 24.9908C27.411 25.0333 27.411 25.0758 27.411 25.1183L27.3685 25.1608L27.326 25.2033C27.2835 25.2033 27.2835 25.2033 27.241 25.2033C27.156 25.2033 27.1135 25.1608 27.071 25.1183C27.071 25.0758 27.071 25.0333 27.071 24.9908L27.1135 24.9483L27.156 24.9058C27.1985 24.9058 27.1985 24.9058 27.241 24.9058ZM27.241 25.2458H27.2835C27.2835 25.2458 27.326 25.2458 27.326 25.2033C27.3685 25.1608 27.3685 25.0758 27.326 25.0333L27.2835 24.9908H27.241H27.1985C27.1985 24.9908 27.156 24.9908 27.156 25.0333C27.1135 25.0758 27.1135 25.1608 27.156 25.2033L27.1985 25.2458C27.1985 25.2458 27.1985 25.2458 27.241 25.2458ZM27.241 24.9908H27.2835V25.0333V25.0758H27.241L27.2835 25.1183H27.241H27.1985V25.1608H27.156V24.9908H27.241ZM27.1985 25.0333V25.0758H27.241C27.241 25.0758 27.241 25.0758 27.2835 25.0758C27.241 25.0333 27.241 25.0333 27.1985 25.0333ZM25.201 24.3108C25.201 24.0133 25.456 23.8008 25.7535 23.8008C26.051 23.8008 26.2635 24.0558 26.2635 24.3533C26.2635 24.6508 26.0085 24.8633 25.7535 24.8633C25.4135 24.8633 25.201 24.6508 25.201 24.3108ZM12.366 24.3108V23.4183H11.9835V23.6308C11.856 23.4608 11.686 23.3758 11.4735 23.3758C10.9635 23.3758 10.581 23.8008 10.581 24.2683C10.581 24.7783 11.006 25.1608 11.4735 25.1608C11.686 25.1608 11.8985 25.0758 12.026 24.9058V25.1183H12.4085L12.366 24.3108ZM10.9635 24.3108C10.9635 24.0133 11.2185 23.8008 11.516 23.8008C11.8135 23.8008 12.026 24.0558 12.026 24.3533C12.026 24.6508 11.771 24.8633 11.516 24.8633C11.2185 24.8633 11.006 24.6508 10.9635 24.3533C10.9635 24.3108 10.9635 24.3108 10.9635 24.3108Z" fill="#231F20"/>
<path d="M19.8469 10.1562H14.1094V20.4838H19.8469V10.1562Z" fill="#FF5F00"/>
<path d="M14.4919 15.2998C14.4919 13.3023 15.4269 11.3898 16.9994 10.1148C14.1519 7.86227 10.0294 8.37227 7.77688 11.2198C5.52438 14.0673 6.03438 18.1898 8.88188 20.4423C11.2619 22.3123 14.6194 22.3123 16.9994 20.4423C15.4269 19.2098 14.4919 17.3398 14.4919 15.2998Z" fill="#EB001B"/>
<path d="M27.625 15.3002C27.625 18.9127 24.6925 21.8877 21.0375 21.8877C19.55 21.8877 18.1475 21.3777 17 20.4852C19.8475 18.2327 20.3575 14.1102 18.105 11.2627C17.765 10.8377 17.425 10.4977 17 10.1577C19.8475 7.90524 23.97 8.41524 26.2225 11.2627C27.115 12.4102 27.625 13.8127 27.625 15.3002Z" fill="#F79E1B"/>
<path d="M26.9869 19.38V19.1675H27.0719V19.125H26.8594V19.1675H26.9444L26.9869 19.38ZM27.4119 19.38V19.125H27.3269L27.2419 19.295L27.1994 19.125H27.1569V19.38H27.1994V19.1675L27.2844 19.3375H27.3269L27.4119 19.1675V19.38Z" fill="#F79E1B"/>
</svg>
