<svg width="34" height="34" viewBox="0 0 34 34" fill="none" xmlns="http://www.w3.org/2000/svg">
<rect width="34" height="34" fill="white"/>
<path d="M17.5947 18.7409C17.5947 19.9309 17.5947 21.0784 17.5947 22.2259C17.5947 22.6084 17.6797 22.7359 18.0622 22.6934C18.8272 22.6509 18.6997 22.7784 18.7422 22.0134C18.7422 21.3759 18.7422 20.6959 18.8697 20.0584C18.9122 19.7184 19.2097 19.4209 19.4647 19.1659C19.6347 18.9534 19.9322 18.8259 20.1447 18.6559C20.2722 18.7834 20.5272 19.0384 20.7397 19.2934C20.9097 19.4634 21.0797 19.4634 21.2072 19.2934C21.4622 19.0384 21.6747 18.7834 21.7172 18.6559C22.0997 18.9534 22.5247 19.1659 22.8222 19.5059C23.0347 19.7184 23.1197 20.0584 23.1622 20.3559C23.2047 20.9509 23.2047 21.5884 23.2047 22.2259C23.2047 22.5234 23.2897 22.6934 23.6297 22.6509C23.7572 22.6509 23.9272 22.6934 24.0122 22.6509C24.1397 22.6084 24.2672 22.4809 24.2672 22.3959C24.2672 21.9284 24.3097 21.4609 24.2672 20.9934C24.2247 20.7384 24.0547 20.4834 23.9272 20.2709C24.2672 19.6759 24.6922 19.0384 25.0747 18.4009C25.0747 19.8034 25.0747 21.2059 25.0747 22.6509C25.4572 22.6509 25.7547 22.6509 26.0522 22.6509C26.0522 22.2684 26.0097 21.9284 26.0522 21.5884C26.1372 20.6959 26.7322 20.0584 27.4547 19.6334C28.0497 19.2509 28.6022 18.8684 28.9847 18.2734C29.0272 18.2734 29.0697 18.3159 29.1122 18.3159C28.9847 18.6559 28.8997 19.0384 28.7297 19.3359C28.5597 19.6334 28.4322 19.8459 28.6447 20.1859C28.7722 20.3559 28.7722 20.5684 28.8147 20.8659C28.6872 20.7809 28.6447 20.7809 28.6447 20.7384C28.1347 20.0159 27.3697 20.1859 27.0297 21.0359C26.9447 21.2484 26.9022 21.5034 26.9022 21.7584C26.8597 22.3109 27.1572 22.7784 27.5822 22.9059C28.0072 23.0759 28.3472 22.9484 28.7297 22.4809C29.0272 22.8634 29.3247 23.2459 29.6647 23.6709C28.8572 23.9259 28.0497 24.0534 27.1997 23.7984C26.9447 23.7134 26.6897 23.6709 26.4347 23.6709C25.2447 23.6709 24.0547 23.6709 22.8222 23.6709C22.7372 23.6709 22.6097 23.6709 22.4397 23.6284C22.4397 22.9059 22.4397 22.1834 22.4397 21.4609C22.4397 21.2059 22.4397 20.9934 22.3972 20.7384C22.3547 20.4409 22.1422 20.2709 21.8447 20.2709C21.5472 20.3134 21.4197 20.4834 21.4197 20.7809C21.4197 21.5034 21.4197 22.2259 21.4197 22.9484C21.4197 23.6709 21.4197 23.6709 20.6122 23.5859C20.6122 23.3309 20.6122 23.1184 20.6122 22.8634C20.6122 22.2259 20.6547 21.5884 20.6122 20.9509C20.6122 20.7384 20.4847 20.4409 20.3147 20.3134C20.0172 20.0584 19.6347 20.2709 19.5922 20.6959C19.5497 21.1634 19.5497 21.6309 19.5497 22.0984C19.5497 22.5234 19.5497 22.9484 19.5497 23.3309C19.5497 23.4159 19.4222 23.5859 19.3797 23.5859C17.7222 23.5859 16.0222 23.5859 14.3222 23.5859C14.2797 22.5659 14.4072 21.6309 14.8322 20.7384C15.2572 19.5909 16.5322 19.3784 17.5947 18.7409ZM16.7872 20.3984C15.6822 20.7809 15.1722 21.5884 15.1297 22.6509C15.6822 22.6509 16.2347 22.6509 16.7872 22.6509C16.7872 21.9284 16.7872 21.1634 16.7872 20.3984Z" fill="#40A957"/>
<path d="M15.4702 16.4466C14.5777 16.1491 14.6202 15.4691 14.6627 14.7891C14.6627 14.3216 14.7052 13.8541 14.6627 13.3866C14.6202 13.0041 14.7477 12.7491 15.0877 12.5791C15.2152 12.5366 15.3002 12.4091 15.3852 12.3666C15.3852 12.3241 15.3852 12.2816 15.3427 12.2391C14.6627 11.9416 14.6202 11.3466 14.6627 10.7091C14.7052 10.0716 14.6627 9.47656 14.6627 8.83906C14.6627 8.66906 14.7477 8.41406 14.8752 8.37156C15.7677 7.98906 15.9377 7.30906 15.9377 6.45906C15.9377 6.16156 15.9377 5.94906 15.6827 5.69406C15.2577 5.26906 15.2152 4.71656 15.4702 4.16406C15.5552 4.46156 15.6402 4.88656 15.8102 5.22656C16.0227 5.60906 16.4052 5.73656 16.8727 5.65156C16.6602 5.77906 16.4902 5.90656 16.2352 6.03406C16.2777 6.50156 16.2777 7.01156 16.3202 7.52156C16.3202 7.64906 16.4902 7.77656 16.6177 7.81906C17.4252 8.15906 17.6377 8.79656 17.5102 9.64656C17.4252 10.1566 17.4677 10.7091 17.5102 11.2191C17.5102 11.5591 17.4677 11.8141 17.1702 11.9416C17.0427 12.0266 16.9152 12.1541 16.8302 12.2391C16.8727 12.2816 16.8727 12.3241 16.8727 12.3241C17.5102 12.5791 17.5952 13.0891 17.5527 13.6841C17.5102 14.2366 17.5102 14.7891 17.5527 15.3416C17.5952 15.7241 17.4677 16.0216 17.1277 16.1916C17.0427 16.2341 16.9577 16.3191 16.8302 16.4466C17.1277 16.8291 17.7652 16.9991 17.5527 17.6366C17.5102 17.7641 17.2977 17.8916 17.2127 17.9341C17.0427 17.6791 16.9577 17.3816 16.7877 17.2116C16.1077 16.6591 16.1077 16.7016 15.4277 17.2116C15.3002 17.2966 15.2152 17.4666 15.2152 17.6366C15.1727 17.9766 15.1727 18.2741 15.2152 18.6141C15.2577 18.9966 15.0452 19.2091 14.6627 19.4216C14.6627 18.6141 14.6627 17.8916 14.6627 17.1691C14.6627 17.0416 14.8327 16.9566 14.9177 16.8716C15.0877 16.7441 15.2577 16.6166 15.4702 16.4466ZM17.0852 10.1141C17.0852 9.90156 17.0427 9.64656 17.0852 9.43406C17.2127 8.75406 16.6177 8.66906 16.2777 8.37156C15.9802 8.11656 15.8527 8.49906 15.6402 8.62656C15.4277 8.75406 15.1727 8.83906 15.1727 9.17906C15.1727 9.81656 15.1727 10.4541 15.1727 11.0916C15.1727 11.2616 15.3002 11.4316 15.4277 11.5591C16.1502 12.1116 16.1502 12.1116 16.8302 11.5166C16.9577 11.4316 17.0427 11.2191 17.0427 11.0491C17.1277 10.7091 17.0852 10.4116 17.0852 10.1141ZM17.0852 14.4066C17.0002 13.8541 17.3402 13.2166 16.5752 12.8766C16.3627 12.7916 16.1077 12.5791 16.0227 12.6641C15.6827 12.9191 15.1727 13.0041 15.1727 13.5991C15.1727 14.1941 15.1727 14.7891 15.1727 15.3841C15.1727 15.6391 15.8527 16.3191 16.1077 16.3191C16.1502 16.3191 16.2352 16.2766 16.2777 16.2341C16.7877 15.9366 17.2127 15.5966 17.0852 14.8741C17.0852 14.7041 17.0852 14.5766 17.0852 14.4066Z" fill="#DECAB2"/>
<path d="M14.0249 26.6459C13.4724 26.7309 13.1324 26.5184 12.9199 26.1359C12.4524 25.4559 12.2824 24.6484 12.2824 23.8409C12.2824 20.6109 12.2824 17.4234 12.2824 14.1934C12.2824 13.6409 12.2399 13.1309 11.8574 12.7909C12.2824 12.1109 12.6649 11.4309 13.0474 10.8359C13.0474 10.8784 13.0474 11.0059 13.0474 11.1334C13.0474 15.4259 13.0474 19.7609 13.0474 24.0534C13.0474 24.9884 13.2599 25.9234 14.0249 26.6459Z" fill="#40A957"/>
<path d="M9.77617 18.5273C10.0312 18.7823 10.3287 19.1223 10.6262 19.3773C11.0087 19.7173 11.0937 20.0998 11.0937 20.5673C11.0937 20.7798 11.0937 21.0348 11.0937 21.2473C10.8387 21.2473 10.6262 21.2473 10.3712 21.2473C10.3287 21.0348 10.3287 20.8223 10.2862 20.6523C10.2437 20.3548 10.0312 20.2273 9.73367 20.2273C9.43617 20.2273 9.26617 20.4398 9.26617 20.6948C9.22367 21.2898 9.22367 21.8848 9.26617 22.4798C9.26617 22.5648 9.47867 22.6498 9.56367 22.6498C10.0312 22.6498 10.5412 22.6498 11.0512 22.6498C11.0512 23.5423 11.1787 24.4348 10.8387 25.2423C10.5412 25.9648 9.94617 26.3473 9.18117 26.3473C8.84117 26.3473 8.45867 26.3048 8.07617 26.3048C8.41617 25.8798 8.71367 25.4973 9.01117 25.1148C9.52117 25.5398 9.98867 25.4123 10.2012 24.7323C10.4987 23.7973 10.4137 23.6273 9.43617 23.6273C9.13867 23.6273 8.84117 23.6273 8.50117 23.6273C8.50117 23.4998 8.45867 23.3723 8.45867 23.2873C8.45867 22.4373 8.45867 21.5448 8.45867 20.6948C8.45867 20.1423 8.58617 19.6323 9.09617 19.2498C9.39367 19.0798 9.56367 18.7823 9.77617 18.5273Z" fill="#40A957"/>
<path d="M6.20547 12.748C6.46047 12.408 6.71547 12.1105 6.88547 11.813C7.05547 11.5155 7.22547 11.1755 7.39547 10.793C7.39547 10.9205 7.43797 11.048 7.43797 11.133C7.43797 15.1705 7.43797 19.208 7.43797 23.2455C7.43797 23.543 7.39547 23.6705 7.05547 23.6705C6.16297 23.628 5.22797 23.6705 4.29297 23.6705C4.84547 23.1605 5.35547 22.693 5.86547 22.2255C5.90797 22.268 5.90797 22.3955 5.99297 22.4805C6.12047 22.5655 6.24797 22.693 6.37547 22.693C6.50297 22.6505 6.58797 22.4805 6.67297 22.353C6.71547 22.268 6.67297 22.1405 6.67297 22.0555C6.67297 19.463 6.67297 16.8705 6.67297 14.3205C6.67297 13.683 6.63047 13.1305 6.20547 12.748Z" fill="#40A957"/>
<path d="M18.9551 18.3594C18.9551 16.7869 19.3376 15.4694 20.6126 14.4919C21.1226 14.1094 21.6751 13.7694 22.2276 13.4294C22.3126 13.3444 22.4401 13.2594 22.4826 13.1319C22.5251 12.8769 22.5676 12.5794 22.6101 12.3244C22.6526 12.0269 22.6101 11.7719 22.3126 11.5594C21.8451 11.1344 21.8451 10.3694 22.2276 9.85938C22.0151 10.9644 22.6526 11.7294 23.6726 11.4319C23.4601 11.6019 23.3751 11.7294 23.2476 11.7719C22.9076 11.9419 22.8226 12.1544 22.9501 12.5369C22.9926 12.5794 23.0351 12.6644 23.0351 12.7069C22.9076 13.3869 23.4601 13.5569 23.8426 13.8119C24.6926 14.3644 25.5001 14.9169 25.9676 15.8519C26.4776 16.9144 26.5201 18.0194 26.5201 19.1669C26.5201 19.3369 26.2651 19.5069 26.0526 19.6344C26.0101 19.0819 25.9676 18.5719 25.9676 18.0194C25.8826 16.4894 25.1176 15.3844 23.8426 14.5769H23.8001C22.6101 13.8544 22.6101 13.8544 21.4626 14.7044C21.0376 15.0444 20.6126 15.3844 20.2301 15.8094C19.8051 16.2769 19.6776 16.8719 19.5501 17.4669C19.5076 17.7644 19.4226 18.1469 18.9551 18.3594Z" fill="#DECAB2"/>
<path d="M19.5079 25.3709C19.2104 26.8159 18.9129 28.2609 18.6154 29.7059C18.0204 29.8334 18.0204 29.8334 17.8929 29.2384C17.7229 28.3884 17.5104 27.5384 17.2554 26.6884C17.0429 27.7084 16.8304 28.7284 16.5754 29.7059C15.8954 29.7909 15.9379 29.7059 15.8529 29.2384C15.6404 28.0059 15.3429 26.7734 15.0879 25.5409C15.0879 25.4559 15.0879 25.3709 15.0879 25.3284C15.5129 25.2009 15.6829 25.3284 15.7679 25.7534C15.8954 26.5184 16.0654 27.2834 16.1929 28.0484C16.2354 28.1759 16.2779 28.3034 16.3629 28.4309C16.5754 27.4109 16.7879 26.3484 17.0429 25.3284C17.2554 25.3284 17.3829 25.3284 17.5954 25.3284C17.8079 26.3909 18.0204 27.4109 18.2754 28.4734C18.3179 28.4734 18.3179 28.4734 18.3604 28.4734C18.4879 27.9634 18.5729 27.4534 18.7004 26.9009C18.7854 26.4334 18.8704 26.0084 18.9554 25.5409C18.9554 25.3284 18.9979 25.2859 19.5079 25.3709Z" fill="#C3B19D"/>
<path d="M21.3782 29.4931C21.2507 29.5781 21.0807 29.7481 20.9107 29.7906C20.3157 29.9606 19.8482 29.7056 19.7632 29.1106C19.6357 28.3031 19.9332 27.8356 20.6132 27.7931C20.7407 27.7931 20.8257 27.7931 20.9532 27.7931C21.1232 27.7506 21.4207 27.9206 21.4207 27.5806C21.4207 27.3681 21.2932 27.0706 21.1232 26.9856C20.9532 26.9006 20.5707 26.9856 20.4857 27.1556C20.3157 27.4531 20.1032 27.4531 19.8482 27.3681C19.8057 26.7306 20.1032 26.4331 20.7407 26.3481C21.3357 26.2631 21.8457 26.5181 21.8882 27.0706C21.9732 27.9206 21.9732 28.7706 21.9732 29.6206C21.9732 29.7056 21.8032 29.8331 21.7607 29.7906C21.6332 29.7056 21.5057 29.6206 21.3782 29.4931ZM21.3782 28.2606C20.9957 28.2606 20.6132 28.1331 20.4007 28.5156C20.3157 28.6431 20.3582 28.9831 20.4432 29.1106C20.5282 29.2381 20.8257 29.2381 20.9957 29.1956C21.3782 29.0256 21.4632 28.6856 21.3782 28.2606Z" fill="#C3B19D"/>
<path d="M27.7531 28.7697C27.6256 29.5772 27.3706 29.8322 26.6481 29.8322C25.9681 29.8322 25.5856 29.5347 25.5006 28.8547C25.4581 28.3447 25.4581 27.7922 25.5006 27.2397C25.5431 26.6447 25.9681 26.3047 26.5631 26.3047C27.1581 26.3047 27.5406 26.5597 27.6681 27.1547C27.6681 27.1972 27.6681 27.1972 27.7106 27.2397C27.9231 28.1747 27.8381 28.3022 26.9031 28.3022C26.6056 28.3022 26.3506 28.3022 26.0531 28.3022C26.0531 28.6847 26.0106 29.0247 26.3506 29.1947C26.7331 29.3647 26.9881 29.2372 27.2006 28.8972C27.2856 28.8122 27.5406 28.8122 27.7531 28.7697ZM27.2006 27.7922C27.2431 27.1122 26.9456 26.8572 26.4781 26.9847C26.1381 27.0697 26.0531 27.3247 26.0531 27.5797C26.0531 27.9197 26.3506 27.7497 26.5206 27.7922C26.7331 27.7922 26.9456 27.7922 27.2006 27.7922Z" fill="#C3B19D"/>
<path d="M28.5602 26.3934C28.6027 26.1384 28.6027 25.8409 28.6452 25.5859C28.8152 25.5859 28.9427 25.5859 29.1552 25.5859C29.1552 25.7984 29.0702 26.0959 29.1977 26.2659C29.2827 26.3934 29.5377 26.4359 29.7927 26.5634C29.7927 26.6484 29.7927 26.8184 29.7927 26.9884C29.6227 26.9884 29.4102 27.0309 29.1977 27.0309C29.1977 27.6684 29.1552 28.3059 29.2402 28.9009C29.2402 29.0284 29.5377 29.1559 29.7077 29.3259C29.7502 29.2834 29.7927 29.2834 29.7927 29.2409C29.7927 29.4109 29.7927 29.5809 29.7927 29.7934C29.0277 29.9634 28.6452 29.7084 28.6027 28.9009C28.6027 28.3059 28.6027 27.7109 28.6027 27.0734C28.4327 27.0309 28.3477 27.0309 28.1777 26.9884C28.1777 26.8184 28.1777 26.6909 28.1777 26.5209C28.2627 26.4359 28.3902 26.3934 28.5602 26.3934Z" fill="#C3B19D"/>
<path d="M23.3338 29.7487C23.1213 29.7487 22.9938 29.7487 22.7812 29.7487C22.7812 28.1762 22.7812 26.6037 22.7812 25.0312C22.9513 25.0312 23.1213 25.0312 23.3338 25.0312C23.3338 26.6037 23.3338 28.1762 23.3338 29.7487Z" fill="#C3B19D"/>
<path d="M24.7361 29.7492C24.1836 29.8342 24.1836 29.8342 24.1836 29.3242C24.1836 28.0492 24.1836 26.7317 24.1836 25.4567C24.1836 25.3292 24.1836 25.2017 24.1836 25.0742C24.3536 25.0742 24.5236 25.0742 24.7361 25.0742C24.7361 26.6042 24.7361 28.1767 24.7361 29.7492Z" fill="#C3B19D"/>
</svg>
