<svg width="34" height="34" viewBox="0 0 34 34" fill="none" xmlns="http://www.w3.org/2000/svg">
<rect width="34" height="34" fill="white"/>
<path d="M29.75 16.362C29.75 16.787 29.75 17.212 29.75 17.5945C29.75 17.637 29.75 17.637 29.7075 17.6795C29.7075 17.9345 29.665 18.147 29.665 18.402C29.6225 18.742 29.58 19.082 29.5375 19.3795C29.4525 19.932 29.2825 20.4845 29.1125 21.037C28.985 21.377 28.8575 21.717 28.73 22.057C28.5175 22.5245 28.2625 23.0345 28.0075 23.502C27.7525 23.9695 27.455 24.437 27.0725 24.862C26.8175 25.202 26.52 25.542 26.265 25.8395C25.925 26.1795 25.5425 26.5195 25.16 26.8595C24.8625 27.1145 24.5225 27.3695 24.225 27.582C23.63 28.007 22.9925 28.3895 22.3125 28.687C21.9725 28.857 21.59 28.9845 21.25 29.112C20.655 29.3245 20.06 29.4945 19.4225 29.5795C18.9125 29.6645 18.445 29.7495 17.935 29.7495C17.935 29.7495 17.8925 29.7495 17.8925 29.792C17.34 29.792 16.7875 29.792 16.1925 29.792C16.15 29.792 16.15 29.792 16.1075 29.7495C15.895 29.7495 15.64 29.707 15.4275 29.707C15.1725 29.6645 14.875 29.622 14.62 29.5795C14.1525 29.452 13.685 29.367 13.2175 29.2395C12.495 29.027 11.7725 28.7295 11.135 28.3895C10.8375 28.2195 10.54 28.0495 10.2425 27.8795C9.86 27.6245 9.52 27.412 9.18 27.1145C8.8825 26.902 8.585 26.647 8.2875 26.392C7.905 26.052 7.5225 25.6695 7.225 25.2445C7.0125 24.9895 6.8 24.692 6.5875 24.437C6.1625 23.842 5.78 23.2045 5.4825 22.5245C5.3125 22.142 5.1425 21.7595 5.015 21.377C4.7175 20.5695 4.505 19.762 4.42 18.912C4.3775 18.5295 4.335 18.1895 4.2925 17.807C4.2925 17.7645 4.2925 17.7645 4.25 17.722C4.25 17.2545 4.25 16.7445 4.25 16.277C4.25 16.2345 4.25 16.2345 4.2925 16.192C4.2925 15.937 4.335 15.682 4.335 15.427C4.3775 15.1295 4.42 14.7895 4.505 14.492C4.59 14.0245 4.7175 13.5995 4.845 13.1745C4.9725 12.7495 5.1425 12.367 5.3125 11.9845C5.525 11.517 5.7375 11.0495 5.9925 10.6245C6.29 10.1145 6.5875 9.60453 6.97 9.17953C7.2675 8.83953 7.5225 8.49953 7.8625 8.15953C8.16 7.86203 8.4575 7.60703 8.755 7.30953C9.01 7.09703 9.265 6.88453 9.52 6.67203C10.03 6.28953 10.5825 5.94953 11.135 5.65203C11.56 5.43953 12.0275 5.22703 12.495 5.05703C12.92 4.88703 13.3025 4.75953 13.7275 4.63203C14.2375 4.50453 14.7475 4.37703 15.3 4.33453C15.5975 4.29203 15.9375 4.29203 16.235 4.24953C16.2775 4.24953 16.2775 4.24953 16.32 4.20703C16.7875 4.20703 17.2975 4.20703 17.765 4.20703C17.8075 4.20703 17.8075 4.20703 17.85 4.24953C18.0625 4.24953 18.2325 4.24953 18.445 4.29203C18.785 4.33453 19.0825 4.37703 19.4225 4.46203C19.975 4.54703 20.485 4.67453 20.995 4.84453C21.3775 4.97203 21.76 5.09953 22.1 5.26953C22.5675 5.48203 23.035 5.69453 23.46 5.94953C23.97 6.24703 24.4375 6.54453 24.8625 6.92703C25.245 7.22453 25.585 7.52203 25.9675 7.86203C26.265 8.15953 26.5625 8.45703 26.8175 8.79703C27.0725 9.09453 27.3275 9.43453 27.5825 9.77453C28.0075 10.3695 28.3475 10.9645 28.645 11.6445C28.815 11.9845 28.9425 12.3245 29.07 12.6645C29.3675 13.472 29.58 14.322 29.7075 15.2145C29.75 15.597 29.7925 15.9795 29.835 16.362C29.75 16.3195 29.75 16.362 29.75 16.362ZM16.66 20.357C16.7025 20.357 16.745 20.357 16.7875 20.357C17.6375 20.357 18.53 20.357 19.38 20.357C19.5075 20.357 19.635 20.357 19.7625 20.357C20.145 20.3145 20.485 20.2295 20.825 20.0595C20.91 20.017 20.995 19.932 21.08 19.847C21.165 19.762 21.25 19.6345 21.335 19.507C21.76 18.8695 22.185 18.2745 22.6525 17.637C22.9075 17.2545 23.1625 16.872 23.46 16.4895C23.8425 15.9795 24.1825 15.427 24.565 14.917C24.8625 14.492 25.16 14.0245 25.5 13.5995C25.8825 13.047 26.265 12.4945 26.6475 11.942C26.8175 11.687 27.03 11.4745 27.0725 11.1345C27.0725 10.922 27.115 10.667 26.9875 10.4545C26.8175 10.1145 26.5625 9.94453 26.2225 9.81703C25.84 9.68953 25.415 9.64703 24.99 9.64703C24.8625 9.64703 24.6925 9.64703 24.565 9.64703C21.4625 9.64703 18.3175 9.64703 15.215 9.64703C14.9175 9.64703 14.62 9.60453 14.3225 9.64703C14.025 9.64703 13.7275 9.64703 13.43 9.68953C12.9625 9.77453 12.5375 9.90203 12.155 10.1145C11.815 10.327 11.5175 10.5395 11.2625 10.837C10.965 11.2195 10.71 11.602 10.4125 11.9845C10.1575 12.3245 9.945 12.6645 9.69 13.0045C9.3075 13.557 8.925 14.1095 8.5 14.662C8.2875 14.9595 8.075 15.2995 7.82 15.597C7.4375 16.1495 7.055 16.6595 6.6725 17.212C6.46 17.467 6.29 17.7645 6.0775 18.0195C5.865 18.317 5.695 18.6145 5.61 18.9545C5.525 19.2945 5.61 19.6345 5.865 19.847C5.9925 19.9745 6.1625 20.0595 6.3325 20.1445C6.63 20.272 6.9275 20.357 7.225 20.357C9.6475 20.357 12.1125 20.357 14.535 20.357C14.62 20.357 14.6625 20.3995 14.705 20.442C14.875 20.7395 15.0025 21.0795 15.1725 21.377C15.215 21.4195 15.215 21.462 15.3 21.462C15.9375 21.462 16.575 21.462 17.17 21.462C17.2125 21.462 17.2125 21.462 17.255 21.462C17.0425 21.122 16.8725 20.7395 16.66 20.357ZM13.8125 24.4795C13.855 24.4795 13.8975 24.4795 13.94 24.4795C14.6625 24.4795 15.3425 24.4795 16.065 24.4795C16.1075 24.4795 16.1075 24.4795 16.15 24.4795C16.1925 24.4795 16.235 24.522 16.235 24.522C16.235 24.522 16.235 24.5645 16.1925 24.607C16.1925 24.6495 16.15 24.692 16.1075 24.7345C16.065 24.777 16.0225 24.8195 15.9375 24.8195C15.215 24.8195 14.535 24.8195 13.8125 24.8195C13.685 24.8195 13.5575 24.862 13.4725 24.9895C13.345 25.1595 13.2175 25.3295 13.09 25.4995C13.005 25.627 13.0475 25.7545 13.175 25.797C13.3875 25.9245 13.6 25.9245 13.77 25.9245C14.2375 25.9245 14.7475 25.9245 15.215 25.9245C15.47 25.9245 15.725 25.882 15.98 25.8395C16.1075 25.797 16.2775 25.712 16.3625 25.5845C16.6175 25.2445 16.83 24.9045 17.085 24.5645C17.17 24.437 17.17 24.352 17.0425 24.267C16.8725 24.1395 16.66 24.1395 16.4475 24.097C15.6825 24.097 14.9175 24.097 14.1525 24.097C14.11 24.097 14.11 24.097 14.0675 24.097C13.9825 24.267 13.8975 24.352 13.8125 24.4795ZM22.8225 23.417C22.525 23.417 22.27 23.417 22.0575 23.417C22.015 23.417 22.015 23.417 21.9725 23.4595C21.6325 23.927 21.335 24.3945 20.995 24.8195C20.7825 25.117 20.57 25.4145 20.3575 25.6695C20.315 25.7545 20.2725 25.797 20.1875 25.882C20.485 25.882 20.74 25.882 20.995 25.882C21.0375 25.882 21.0375 25.882 21.08 25.8395C21.335 25.457 21.6325 25.117 21.845 24.7345C21.9725 24.522 22.1425 24.437 22.3975 24.437C22.6525 24.437 22.95 24.437 23.205 24.437C23.29 24.437 23.375 24.437 23.46 24.437C23.5025 24.437 23.545 24.4795 23.5875 24.4795V24.522C23.4175 24.777 23.2475 24.9895 23.035 25.2445C22.9075 25.4145 22.78 25.627 22.6525 25.797C22.9075 25.797 23.205 25.797 23.46 25.797C23.5025 25.797 23.5025 25.7545 23.5025 25.7545C23.8 25.3295 24.0975 24.862 24.4375 24.437C24.48 24.352 24.48 24.267 24.395 24.2245C24.3525 24.182 24.31 24.1395 24.225 24.1395C24.055 24.0545 23.8425 24.0545 23.6725 24.0545C23.2475 24.0545 22.8225 24.0545 22.3975 24.0545C22.355 24.0545 22.3125 24.0545 22.27 24.0545C22.4825 23.8845 22.6525 23.672 22.8225 23.417ZM18.105 24.8195C18.1475 24.777 18.1475 24.777 18.1475 24.777C18.1475 24.777 18.1475 24.7345 18.19 24.7345C18.3175 24.5645 18.4875 24.4795 18.7 24.4795C19.38 24.4795 20.06 24.4795 20.74 24.4795C20.7825 24.4795 20.825 24.4795 20.825 24.4795C20.91 24.352 20.9525 24.267 21.0375 24.1395C20.995 24.1395 20.9525 24.1395 20.9525 24.1395C20.655 24.1395 20.3575 24.1395 20.06 24.1395C19.4225 24.1395 18.7425 24.1395 18.105 24.182C17.9775 24.182 17.8075 24.2245 17.7225 24.352C17.5525 24.5645 17.3825 24.777 17.255 25.032C17.17 25.1595 17.255 25.2445 17.425 25.2445C18.0625 25.2445 18.7 25.2445 19.295 25.2445C19.38 25.2445 19.4225 25.2445 19.5075 25.2445C19.3375 25.4995 19.2525 25.627 18.9125 25.5845C18.3175 25.5845 17.68 25.5845 17.085 25.5845C16.915 25.5845 16.7875 25.627 16.7025 25.7545C16.66 25.797 16.6175 25.882 16.5325 25.9245C16.7025 25.9245 16.8725 25.967 17 25.967C17.595 25.967 18.2325 25.967 18.8275 25.967C18.9975 25.967 19.21 25.967 19.38 25.9245C19.72 25.882 19.975 25.7545 20.145 25.457C20.1875 25.3295 20.2725 25.2445 20.3575 25.117C20.4 25.032 20.3575 24.947 20.2725 24.9045C20.23 24.9045 20.1875 24.862 20.145 24.862C19.72 24.862 19.295 24.862 18.8275 24.862C18.5725 24.8195 18.36 24.8195 18.105 24.8195ZM13.685 24.1395C13.6 24.1395 13.515 24.1395 13.43 24.1395C12.6225 24.1395 11.7725 24.1395 10.965 24.1395C10.8375 24.1395 10.71 24.1395 10.625 24.182C10.4975 24.2245 10.37 24.267 10.285 24.352C9.9875 24.7345 9.7325 25.117 9.4775 25.4995C9.35 25.6695 9.435 25.8395 9.605 25.882C9.775 25.9245 9.9025 25.967 10.0725 25.967C10.88 25.967 11.6875 25.967 12.4525 25.967C12.495 25.967 12.495 25.967 12.495 25.967C12.58 25.8395 12.665 25.7545 12.75 25.627C12.7075 25.627 12.665 25.627 12.6225 25.627C11.9425 25.627 11.305 25.627 10.625 25.627C10.54 25.627 10.455 25.627 10.37 25.627C10.285 25.627 10.2425 25.542 10.3275 25.4995C10.4975 25.287 10.625 25.0745 10.795 24.862C10.9225 24.692 11.05 24.607 11.305 24.607C11.985 24.607 12.665 24.607 13.345 24.607C13.3875 24.607 13.43 24.607 13.4725 24.522C13.5575 24.352 13.6 24.2245 13.685 24.1395Z" fill="#ED1D23"/>
<path d="M15.9796 18.9108C15.7671 18.4433 15.5546 17.9758 15.3421 17.5083C15.3421 17.4658 15.2996 17.4658 15.2571 17.4658C14.6196 17.4658 13.9396 17.4658 13.3021 17.4658H13.2596C13.5146 17.9333 13.7271 18.4008 13.9821 18.9108C13.9396 18.9108 13.8971 18.9108 13.8546 18.9108C12.5796 18.9108 11.3471 18.9108 10.0721 18.9108C9.90211 18.9108 9.77461 18.9108 9.60461 18.9108C9.47711 18.9108 9.34961 18.8683 9.34961 18.6983C9.34961 18.6133 9.39211 18.4858 9.43461 18.4008C9.64711 18.0608 9.90211 17.7208 10.1571 17.3808C10.3696 17.0833 10.6246 16.7433 10.8371 16.4458C11.2196 15.9358 11.5596 15.4258 11.9421 14.9158C12.2396 14.5333 12.4946 14.1083 12.7921 13.7258C13.1321 13.2583 13.4721 12.7483 13.8546 12.2808C13.9396 12.1533 14.0246 12.0258 14.1096 11.8983C14.3646 11.6008 14.6196 11.3883 15.0021 11.3033C15.2996 11.2183 15.5971 11.1758 15.8946 11.1758C18.0196 11.1758 20.1446 11.1758 22.2696 11.1758C22.4821 11.1758 22.6521 11.2183 22.8646 11.2608C23.0346 11.3033 23.1196 11.4308 23.1196 11.6008C23.1196 11.7283 23.0771 11.8558 23.0346 11.9408C22.8221 12.2808 22.6096 12.6208 22.3971 12.9608C22.0146 13.5133 21.6746 14.0233 21.2921 14.5758C20.9521 15.0858 20.6121 15.5958 20.2296 16.0633C19.8046 16.6583 19.4221 17.2533 18.9971 17.8483C18.8696 18.0183 18.7421 18.2308 18.6146 18.4008C18.4446 18.6133 18.1896 18.7833 17.9346 18.8683C17.7646 18.9108 17.5946 18.9533 17.4246 18.9533C16.9146 18.9108 16.4471 18.9108 15.9796 18.9108Z" fill="#ED1D23"/>
<path d="M15.8104 25.2031C15.7254 25.3306 15.6404 25.4581 15.5129 25.5006C15.4279 25.5431 15.3854 25.5431 15.3004 25.5431C14.9604 25.5431 14.6204 25.5431 14.2804 25.5431C14.1954 25.5431 14.1104 25.5431 14.0679 25.5006C14.0254 25.5006 13.9829 25.4581 14.0254 25.4156C14.0679 25.3731 14.1104 25.2881 14.1529 25.2456C14.1529 25.2031 14.2379 25.2031 14.2379 25.2031C14.6629 25.2031 15.0454 25.2031 15.4704 25.2031C15.5554 25.2031 15.6829 25.2031 15.8104 25.2031Z" fill="#ED1D23"/>
<path d="M16.8299 20.7801C17.0424 21.1626 17.2124 21.5451 17.4249 21.9276C17.3824 21.9276 17.3824 21.9276 17.3399 21.9276C16.7024 21.9276 16.0649 21.9276 15.4699 21.9276C15.3849 21.9276 15.3849 21.8851 15.3424 21.8426C15.1724 21.5451 15.0449 21.2051 14.8749 20.9076C14.8324 20.8226 14.7899 20.8226 14.7049 20.8226C12.2824 20.8226 9.81742 20.8226 7.39492 20.8226C7.09742 20.8226 6.75742 20.7376 6.50242 20.6101C6.33242 20.5251 6.16242 20.4401 6.03492 20.3126C5.77992 20.0576 5.69492 19.7601 5.77992 19.4201C5.86492 19.0801 6.03492 18.7826 6.24742 18.4851C6.45992 18.2301 6.62992 17.9326 6.84242 17.6776C7.22492 17.1676 7.60742 16.6151 7.98992 16.0626C8.20242 15.7651 8.41492 15.4251 8.66992 15.1276C9.05242 14.5751 9.43492 14.0226 9.85992 13.4701C10.1149 13.1301 10.3274 12.7901 10.5824 12.4501C10.8799 12.0676 11.1349 11.6851 11.4324 11.3026C11.6874 11.0051 11.9849 10.7501 12.3249 10.5801C12.7074 10.3676 13.1324 10.1976 13.5999 10.1551C13.8974 10.1126 14.1949 10.1126 14.4924 10.1126C14.7899 10.1126 15.0874 10.1126 15.3849 10.1126C18.4874 10.1126 21.6324 10.1126 24.7349 10.1126C24.9049 10.1126 25.0324 10.0701 25.1599 10.1126C25.5849 10.1551 25.9674 10.1551 26.3924 10.2826C26.7324 10.4101 26.9874 10.5801 27.1574 10.9201C27.2424 11.1326 27.2424 11.3451 27.2424 11.6001C27.1999 11.9401 26.9874 12.1526 26.8174 12.4076C26.4349 12.9601 26.0524 13.5126 25.6699 14.0651C25.3724 14.4901 25.0749 14.9576 24.7349 15.3826C24.3524 15.8926 24.0124 16.4451 23.6299 16.9551C23.3749 17.3376 23.1199 17.7201 22.8224 18.1026C22.3974 18.7401 21.9724 19.3351 21.5049 19.9726C21.4199 20.1001 21.3774 20.2276 21.2499 20.3126C21.1649 20.3976 21.0799 20.4401 20.9949 20.5251C20.6549 20.6951 20.3149 20.8226 19.9324 20.8226C19.8049 20.8226 19.6774 20.8226 19.5499 20.8226C18.6999 20.8226 17.8074 20.8226 16.9574 20.8226C16.9149 20.7801 16.8724 20.7801 16.8299 20.7801ZM16.1074 19.2926C16.5749 19.2926 17.0424 19.2926 17.5524 19.2926C17.7224 19.2926 17.8924 19.2501 18.0624 19.2076C18.3174 19.1226 18.5724 18.9526 18.7424 18.7401C18.9124 18.5701 18.9974 18.3576 19.1249 18.1876C19.5499 17.5926 19.9324 16.9976 20.3574 16.4026C20.6974 15.8926 21.0374 15.3826 21.4199 14.9151C21.8024 14.3626 22.1849 13.8526 22.5249 13.3001C22.7374 12.9601 22.9499 12.6201 23.1624 12.2801C23.2049 12.1951 23.2474 12.0676 23.2474 11.9401C23.2474 11.7701 23.1199 11.6426 22.9924 11.6001C22.7799 11.5576 22.6099 11.5151 22.3974 11.5151C20.2724 11.5151 18.1474 11.5151 16.0224 11.5151C15.7249 11.5151 15.4274 11.5576 15.1299 11.6426C14.7474 11.7276 14.4924 11.9826 14.2374 12.2376C14.1524 12.3651 14.0674 12.4926 13.9824 12.6201C13.6424 13.0876 13.2599 13.5976 12.9199 14.0651C12.6224 14.4476 12.3674 14.8726 12.0699 15.2551C11.6874 15.7651 11.3474 16.2751 10.9649 16.7851C10.7524 17.0826 10.4974 17.4226 10.2849 17.7201C10.0299 18.0601 9.77492 18.4001 9.56242 18.7401C9.51992 18.8251 9.47742 18.9526 9.47742 19.0376C9.47742 19.1651 9.60492 19.2076 9.73242 19.2501C9.90242 19.2501 10.0299 19.2501 10.1999 19.2501C11.4749 19.2501 12.7074 19.2501 13.9824 19.2501C14.0249 19.2501 14.0674 19.2501 14.1099 19.2501C13.8549 18.7401 13.6424 18.2726 13.3874 17.8051C13.4299 17.8051 13.4299 17.8051 13.4299 17.8051C14.0674 17.8051 14.7474 17.8051 15.3849 17.8051C15.4274 17.8051 15.4699 17.8476 15.4699 17.8476C15.6824 18.3576 15.8949 18.8251 16.1074 19.2926Z" fill="black"/>
<path d="M16.66 20.3583C16.8725 20.7408 17.0425 21.1233 17.255 21.5058C17.2125 21.5058 17.2125 21.5058 17.17 21.5058C16.5325 21.5058 15.895 21.5058 15.3 21.5058C15.215 21.5058 15.215 21.4633 15.1725 21.4208C15.0025 21.1233 14.875 20.7833 14.705 20.4858C14.6625 20.4008 14.62 20.4008 14.535 20.4008C12.1125 20.4008 9.6475 20.4008 7.225 20.4008C6.9275 20.4008 6.5875 20.3158 6.3325 20.1883C6.1625 20.1033 5.9925 20.0183 5.865 19.8908C5.61 19.6358 5.525 19.3383 5.61 18.9983C5.695 18.6583 5.865 18.3608 6.0775 18.0633C6.29 17.8083 6.46 17.5108 6.6725 17.2558C7.055 16.7458 7.4375 16.1933 7.82 15.6408C8.0325 15.3433 8.245 15.0033 8.5 14.7058C8.8825 14.1533 9.265 13.6008 9.69 13.0483C9.945 12.7083 10.1575 12.3683 10.4125 12.0283C10.71 11.6458 10.965 11.2633 11.2625 10.8808C11.5175 10.5833 11.815 10.3283 12.155 10.1583C12.5375 9.94576 12.9625 9.77576 13.43 9.73326C13.7275 9.69076 14.025 9.69076 14.3225 9.69076C14.62 9.69076 14.9175 9.69076 15.215 9.69076C18.3175 9.69076 21.4625 9.69076 24.565 9.69076C24.735 9.69076 24.8625 9.64826 24.99 9.69076C25.415 9.73326 25.7975 9.73326 26.2225 9.86076C26.5625 9.98826 26.8175 10.1583 26.9875 10.4983C27.0725 10.7108 27.0725 10.9233 27.0725 11.1783C27.03 11.5183 26.8175 11.7308 26.6475 11.9858C26.265 12.5383 25.8825 13.0908 25.5 13.6433C25.2025 14.0683 24.905 14.5358 24.565 14.9608C24.1825 15.4708 23.8425 16.0233 23.46 16.5333C23.205 16.9158 22.95 17.2983 22.6525 17.6808C22.2275 18.3183 21.8025 18.9133 21.335 19.5508C21.25 19.6783 21.2075 19.8058 21.08 19.8908C20.995 19.9758 20.91 20.0183 20.825 20.1033C20.485 20.2733 20.145 20.4008 19.7625 20.4008C19.635 20.4008 19.5075 20.4008 19.38 20.4008C18.53 20.4008 17.6375 20.4008 16.7875 20.4008C16.745 20.3583 16.7025 20.3583 16.66 20.3583ZM15.98 18.9133C16.4475 18.9133 16.915 18.9133 17.425 18.9133C17.595 18.9133 17.765 18.8708 17.935 18.8283C18.19 18.7433 18.445 18.5733 18.615 18.3608C18.785 18.1908 18.87 17.9783 18.9975 17.8083C19.4225 17.2133 19.805 16.6183 20.23 16.0233C20.57 15.5133 20.91 15.0033 21.2925 14.5358C21.675 13.9833 22.0575 13.4733 22.3975 12.9208C22.61 12.5808 22.8225 12.2408 23.035 11.9008C23.0775 11.8158 23.12 11.6883 23.12 11.5608C23.12 11.3908 22.9925 11.2633 22.865 11.2208C22.6525 11.1783 22.4825 11.1358 22.27 11.1358C20.145 11.1358 18.02 11.1358 15.895 11.1358C15.5975 11.1358 15.3 11.1783 15.0025 11.2633C14.62 11.3483 14.365 11.6033 14.11 11.8583C14.025 11.9858 13.94 12.1133 13.855 12.2408C13.515 12.7083 13.1325 13.2183 12.7925 13.6858C12.495 14.0683 12.24 14.4933 11.9425 14.8758C11.56 15.3858 11.22 15.8958 10.8375 16.4058C10.625 16.7033 10.37 17.0433 10.1575 17.3408C9.9025 17.6808 9.6475 18.0208 9.435 18.3608C9.3925 18.4458 9.35 18.5733 9.35 18.6583C9.35 18.7858 9.4775 18.8283 9.605 18.8708C9.775 18.8708 9.9025 18.8708 10.0725 18.8708C11.3475 18.8708 12.58 18.8708 13.855 18.8708C13.8975 18.8708 13.94 18.8708 13.9825 18.8708C13.7275 18.3608 13.515 17.8933 13.26 17.4258C13.3025 17.4258 13.3025 17.4258 13.3025 17.4258C13.94 17.4258 14.62 17.4258 15.2575 17.4258C15.3 17.4258 15.3425 17.4683 15.3425 17.4683C15.555 17.9783 15.7675 18.4458 15.98 18.9133Z" fill="white"/>
<path d="M13.6437 24.3947C13.7287 24.2672 13.8137 24.1397 13.8987 24.0547C13.8987 24.0547 13.9412 24.0547 13.9837 24.0547C14.7487 24.0547 15.5137 24.0547 16.2787 24.0547C16.4912 24.0547 16.7037 24.0972 16.8737 24.2247C17.0012 24.3097 17.0012 24.3947 16.9162 24.5222C16.6612 24.8622 16.4487 25.2022 16.1937 25.5422C16.1087 25.6697 15.9812 25.7547 15.8112 25.7972C15.5562 25.8822 15.3012 25.8822 15.0462 25.8822C14.5787 25.8822 14.0687 25.8822 13.6012 25.8822C13.3887 25.8822 13.2187 25.8822 13.0062 25.7972C12.8787 25.7547 12.8362 25.6272 12.9212 25.4997C13.0487 25.3297 13.1762 25.1597 13.3037 24.9897C13.3887 24.8622 13.5162 24.8197 13.6437 24.8197C14.3662 24.8197 15.0462 24.8197 15.7687 24.8197C15.8537 24.8197 15.8962 24.7772 15.9387 24.7347C15.9812 24.6922 15.9812 24.6497 16.0237 24.6072C16.0237 24.5647 16.0662 24.5222 16.0662 24.5222C16.0662 24.4797 16.0237 24.4797 15.9812 24.4797C15.9812 24.4797 15.9387 24.4797 15.8962 24.4797C15.1737 24.4797 14.4937 24.4797 13.7712 24.4797C13.7287 24.3947 13.6862 24.3947 13.6437 24.3947ZM15.6412 25.1172C15.5137 25.1172 15.4287 25.1172 15.3012 25.1172C14.8762 25.1172 14.4937 25.1172 14.0687 25.1172C14.0262 25.1172 13.9837 25.1172 13.9837 25.1597C13.9412 25.2022 13.8987 25.2872 13.8562 25.3297C13.8137 25.3722 13.8137 25.4147 13.8987 25.4147C13.9837 25.4147 14.0687 25.4572 14.1112 25.4572C14.4512 25.4572 14.7912 25.4572 15.1312 25.4572C15.2162 25.4572 15.2587 25.4147 15.3437 25.4147C15.4712 25.3722 15.5137 25.2447 15.6412 25.1172Z" fill="black"/>
<path d="M22.653 23.332C22.483 23.587 22.313 23.7995 22.143 24.0545C22.1855 24.0545 22.228 24.0545 22.2705 24.0545C22.6955 24.0545 23.1205 24.0545 23.5455 24.0545C23.758 24.0545 23.928 24.0545 24.098 24.1395C24.1405 24.182 24.2255 24.182 24.268 24.2245C24.353 24.267 24.353 24.352 24.3105 24.437C24.013 24.862 23.7155 25.3295 23.3755 25.7545L23.333 25.797C23.078 25.797 22.7805 25.797 22.5255 25.797C22.653 25.627 22.7805 25.4145 22.908 25.2445C23.078 24.9895 23.248 24.777 23.4605 24.522V24.4795C23.418 24.437 23.3755 24.437 23.333 24.437C23.248 24.437 23.163 24.437 23.078 24.437C22.823 24.437 22.5255 24.437 22.2705 24.437C22.0155 24.437 21.8455 24.522 21.718 24.7345C21.463 25.117 21.208 25.457 20.953 25.8395C20.953 25.8395 20.9105 25.882 20.868 25.882C20.613 25.882 20.358 25.882 20.0605 25.882C20.103 25.797 20.1455 25.7545 20.2305 25.6695C20.443 25.372 20.6555 25.0745 20.868 24.8195C21.208 24.352 21.5055 23.8845 21.8455 23.4595C21.8455 23.4595 21.888 23.417 21.9305 23.417C22.1005 23.332 22.3555 23.332 22.653 23.332Z" fill="black"/>
<path d="M17.9358 24.7342C18.1908 24.7342 18.4033 24.7342 18.6583 24.7342C19.0833 24.7342 19.5083 24.7342 19.9758 24.7342C20.0183 24.7342 20.0608 24.7342 20.1033 24.7767C20.1883 24.8192 20.2308 24.9042 20.1883 24.9892C20.1458 25.1167 20.0608 25.2017 19.9758 25.3292C19.8058 25.6692 19.5508 25.7542 19.2108 25.7967C19.0408 25.7967 18.8283 25.8392 18.6583 25.8392C18.0633 25.8392 17.4258 25.8392 16.8308 25.8392C16.6608 25.8392 16.5333 25.8392 16.3633 25.7967C16.4058 25.7117 16.4908 25.6692 16.5333 25.6267C16.6183 25.4992 16.7458 25.4567 16.9158 25.4567C17.5108 25.4567 18.1483 25.4567 18.7433 25.4567C19.0833 25.4567 19.1683 25.3717 19.3383 25.1167C19.2533 25.1167 19.2108 25.1167 19.1258 25.1167C18.4883 25.1167 17.8508 25.1167 17.2558 25.1167C17.1283 25.1167 17.0433 24.9892 17.0858 24.9042C17.2133 24.6917 17.3833 24.4367 17.5533 24.2242C17.6383 24.0967 17.8083 24.0542 17.9358 24.0542C18.5733 24.0542 19.2533 24.0542 19.8908 24.0117C20.1883 24.0117 20.4858 24.0117 20.7833 24.0117C20.8258 24.0117 20.8258 24.0117 20.8683 24.0117C20.7833 24.1392 20.6983 24.2667 20.6558 24.3517H20.5708C19.8908 24.3517 19.2108 24.3517 18.5308 24.3517C18.3183 24.3517 18.1483 24.4367 18.0208 24.6067C18.0208 24.6067 18.0208 24.6492 17.9783 24.6492C17.9783 24.7342 17.9783 24.7342 17.9358 24.7342Z" fill="black"/>
<path d="M13.5155 24.0537C13.4305 24.1812 13.388 24.2662 13.3455 24.3512C13.303 24.3937 13.2605 24.4362 13.218 24.4362C12.538 24.4362 11.858 24.4362 11.178 24.4362C10.9655 24.4362 10.7955 24.5212 10.668 24.6912C10.5405 24.9037 10.3705 25.1162 10.2005 25.3287C10.158 25.4137 10.158 25.4562 10.243 25.4562C10.328 25.4562 10.413 25.4562 10.498 25.4562C11.178 25.4562 11.8155 25.4562 12.4955 25.4562C12.538 25.4562 12.538 25.4562 12.623 25.4562C12.538 25.5837 12.453 25.7112 12.368 25.7962H12.3255C11.518 25.7962 10.7105 25.7962 9.94545 25.7962C9.77545 25.7962 9.64795 25.7537 9.47795 25.7112C9.30795 25.6687 9.22295 25.4987 9.35045 25.3287C9.64795 24.9462 9.86045 24.5637 10.158 24.1812C10.243 24.0962 10.3705 24.0537 10.498 24.0112C10.6255 23.9687 10.7105 23.9688 10.838 23.9688C11.6455 23.9688 12.4955 23.9688 13.303 23.9688C13.3455 24.0538 13.388 24.0537 13.5155 24.0537Z" fill="black"/>
<path d="M13.8136 24.4806C13.8986 24.3531 13.9836 24.2256 14.0686 24.1406C14.0686 24.1406 14.1111 24.1406 14.1536 24.1406C14.9186 24.1406 15.6836 24.1406 16.4486 24.1406C16.6611 24.1406 16.8736 24.1831 17.0436 24.3106C17.1711 24.3956 17.1711 24.4806 17.0861 24.6081C16.8311 24.9481 16.6186 25.2881 16.3636 25.6281C16.2786 25.7556 16.1511 25.8406 15.9811 25.8831C15.7686 25.9256 15.4711 25.9256 15.2161 25.9256C14.7486 25.9256 14.2386 25.9256 13.7711 25.9256C13.5586 25.9256 13.3886 25.9256 13.1761 25.8406C13.0486 25.7981 13.0061 25.6706 13.0911 25.5431C13.2186 25.3731 13.3461 25.2031 13.4736 25.0331C13.5586 24.9056 13.6861 24.8631 13.8136 24.8631C14.5361 24.8631 15.2161 24.8631 15.9386 24.8631C16.0236 24.8631 16.0661 24.8206 16.1086 24.7781C16.1511 24.7356 16.1511 24.6931 16.1936 24.6506C16.1936 24.6081 16.2361 24.5656 16.2361 24.5656C16.2361 24.5231 16.1936 24.5231 16.1511 24.5231C16.1511 24.5231 16.1086 24.5231 16.0661 24.5231C15.3436 24.5231 14.6636 24.5231 13.9411 24.5231C13.8986 24.4806 13.8561 24.4806 13.8136 24.4806ZM15.8111 25.2031C15.6836 25.2031 15.5986 25.2031 15.4711 25.2031C15.0461 25.2031 14.6636 25.2031 14.2386 25.2031C14.1961 25.2031 14.1536 25.2031 14.1536 25.2456C14.1111 25.2881 14.0686 25.3731 14.0261 25.4156C13.9836 25.4581 13.9836 25.5006 14.0686 25.5006C14.1536 25.5006 14.2386 25.5431 14.2811 25.5431C14.6211 25.5431 14.9611 25.5431 15.3011 25.5431C15.3861 25.5431 15.4286 25.5006 15.5136 25.5006C15.6411 25.4581 15.6836 25.3306 15.8111 25.2031Z" fill="white"/>
<path d="M22.823 23.418C22.653 23.673 22.483 23.8855 22.313 24.1405C22.3555 24.1405 22.398 24.1405 22.4405 24.1405C22.8655 24.1405 23.2905 24.1405 23.7155 24.1405C23.928 24.1405 24.098 24.1405 24.268 24.2255C24.3105 24.268 24.3955 24.268 24.438 24.3105C24.523 24.353 24.523 24.438 24.4805 24.523C24.183 24.948 23.8855 25.4155 23.5455 25.8405L23.503 25.883C23.248 25.883 22.9505 25.883 22.6955 25.883C22.823 25.713 22.9505 25.5005 23.078 25.3305C23.248 25.0755 23.418 24.863 23.6305 24.608V24.5655C23.588 24.523 23.5455 24.523 23.503 24.523C23.418 24.523 23.333 24.523 23.248 24.523C22.993 24.523 22.6955 24.523 22.4405 24.523C22.1855 24.523 22.0155 24.608 21.888 24.8205C21.633 25.203 21.378 25.543 21.123 25.9255C21.123 25.9255 21.0805 25.968 21.038 25.968C20.783 25.968 20.528 25.968 20.2305 25.968C20.273 25.883 20.3155 25.8405 20.4005 25.7555C20.613 25.458 20.8255 25.1605 21.038 24.9055C21.378 24.438 21.6755 23.9705 22.0155 23.5455C22.0155 23.5455 22.058 23.503 22.1005 23.503C22.2705 23.418 22.5255 23.418 22.823 23.418Z" fill="white"/>
<path d="M18.1057 24.8202C18.3607 24.8202 18.5732 24.8202 18.8282 24.8202C19.2532 24.8202 19.6782 24.8202 20.1457 24.8202C20.1882 24.8202 20.2307 24.8202 20.2732 24.8627C20.3582 24.9052 20.4007 24.9902 20.3582 25.0752C20.3157 25.2027 20.2307 25.2877 20.1457 25.4152C19.9757 25.7552 19.7207 25.8402 19.3807 25.8827C19.2107 25.8827 18.9982 25.9252 18.8282 25.9252C18.2332 25.9252 17.5957 25.9252 17.0007 25.9252C16.8307 25.9252 16.7032 25.9252 16.5332 25.8827C16.5757 25.7977 16.6607 25.7552 16.7032 25.7127C16.7882 25.5852 16.9157 25.5427 17.0857 25.5427C17.6807 25.5427 18.3182 25.5427 18.9132 25.5427C19.2532 25.5427 19.3382 25.4577 19.5082 25.2027C19.4232 25.2027 19.3807 25.2027 19.2957 25.2027C18.6582 25.2027 18.0207 25.2027 17.4257 25.2027C17.2982 25.2027 17.2132 25.0752 17.2557 24.9902C17.3832 24.7777 17.5532 24.5227 17.7232 24.3102C17.8082 24.1827 17.9782 24.1402 18.1057 24.1402C18.7432 24.1402 19.4232 24.1402 20.0607 24.0977C20.3582 24.0977 20.6557 24.0977 20.9532 24.0977C20.9957 24.0977 20.9957 24.0977 21.0382 24.0977C20.9532 24.2252 20.8682 24.3527 20.8257 24.4377H20.7407C20.0607 24.4377 19.3807 24.4377 18.7007 24.4377C18.4882 24.4377 18.3182 24.5227 18.1907 24.6927C18.1907 24.6927 18.1907 24.7352 18.1482 24.7352C18.1482 24.8202 18.1482 24.8202 18.1057 24.8202Z" fill="white"/>
<path d="M13.6854 24.1397C13.6004 24.2672 13.5579 24.3522 13.5154 24.4372C13.4729 24.4797 13.4304 24.5222 13.3879 24.5222C12.7079 24.5222 12.0279 24.5222 11.3479 24.5222C11.1354 24.5222 10.9654 24.6072 10.8379 24.7772C10.7104 24.9897 10.5404 25.2022 10.3704 25.4147C10.3279 25.4997 10.3279 25.5422 10.4129 25.5422C10.4979 25.5422 10.5829 25.5422 10.6679 25.5422C11.3479 25.5422 11.9854 25.5422 12.6654 25.5422C12.7079 25.5422 12.7079 25.5422 12.7929 25.5422C12.7079 25.6697 12.6229 25.7972 12.5379 25.8822H12.4954C11.6879 25.8822 10.8804 25.8822 10.1154 25.8822C9.94537 25.8822 9.81787 25.8397 9.64787 25.7972C9.47787 25.7547 9.39287 25.5847 9.52037 25.4147C9.81787 25.0322 10.0304 24.6497 10.3279 24.2672C10.4129 24.1822 10.5404 24.1397 10.6679 24.0972C10.7954 24.0547 10.8804 24.0547 11.0079 24.0547C11.8154 24.0547 12.6654 24.0547 13.4729 24.0547C13.5154 24.1397 13.5579 24.1397 13.6854 24.1397Z" fill="white"/>
</svg>
