<svg width="34" height="34" viewBox="0 0 34 34" fill="none" xmlns="http://www.w3.org/2000/svg">
<rect width="34" height="34" fill="white"/>
<path d="M10.5403 10.3711H15.8528C16.5753 10.3711 17.0428 10.9661 16.8728 11.7311L14.4078 22.3136C14.2378 23.0361 13.4728 23.6736 12.7503 23.6736H7.43778C6.71528 23.6736 6.24778 23.0786 6.41778 22.3136L8.88278 11.7311C9.05278 10.9661 9.77528 10.3711 10.5403 10.3711Z" fill="#DF1F2D"/>
<path d="M15.386 10.3711H21.4635C22.186 10.3711 21.8885 10.9661 21.676 11.7311L19.211 22.3136C19.041 23.0361 19.0835 23.6736 18.361 23.6736H12.2835C11.561 23.6736 11.0935 23.0786 11.2635 22.3136L13.7285 11.7311C13.8985 10.9661 14.6635 10.3711 15.386 10.3711Z" fill="#15336F"/>
<path d="M21.2512 10.3711H26.5637C27.2862 10.3711 27.7537 10.9661 27.5837 11.7311L25.1187 22.3136C24.9487 23.0361 24.1837 23.6736 23.4612 23.6736H18.1487C17.4262 23.6736 16.9587 23.0786 17.1287 22.3136L19.5937 11.7311C19.7637 10.9661 20.5287 10.3711 21.2512 10.3711Z" fill="#007C82"/>
<path fill-rule="evenodd" clip-rule="evenodd" d="M20.3583 20.3152H20.8683L20.9958 19.8477H20.4858L20.3583 20.3152ZM20.7833 18.9977L20.6133 19.5502C20.6133 19.5502 20.7833 19.4652 20.9108 19.4227C20.9958 19.3802 21.1658 19.3802 21.1658 19.3802L21.2933 18.9977H20.7833ZM21.0383 18.1902L20.8683 18.7427C20.8683 18.7427 21.0383 18.6577 21.1658 18.6152C21.2508 18.5727 21.4208 18.5727 21.4208 18.5727L21.5483 18.1902H21.0383ZM22.1433 18.1902L21.5058 20.3152H21.6758L21.5483 20.7402H21.3783L21.3358 20.8677H20.7408L20.7833 20.7402H19.5508L19.6783 20.3152H19.8058L20.4433 18.1477L20.5708 17.7227H21.2083L21.1233 17.9352C21.1233 17.9352 21.2933 17.8077 21.4633 17.7652C21.6333 17.7227 22.5258 17.7227 22.5258 17.7227L22.3983 18.1477H22.1433V18.1902Z" fill="white"/>
<path d="M22.3984 17.7656H23.0784V18.0206C23.0784 18.0631 23.1209 18.0631 23.2059 18.0631H23.3334L23.2059 18.4881H22.8234C22.5259 18.5306 22.3984 18.3606 22.3984 18.2331V17.7656Z" fill="white"/>
<path d="M22.4834 19.7217H21.8459L21.9734 19.3392H22.6959L22.7809 18.9992H22.0584L22.1859 18.5742H24.1834L24.0559 18.9992H23.3759L23.2909 19.3392H23.9709L23.8434 19.7217H23.1209L22.9934 19.8917H23.2909L23.3759 20.3592C23.3759 20.4017 23.3759 20.4442 23.4184 20.4442C23.4184 20.4442 23.5034 20.4867 23.5884 20.4867H23.6734L23.5459 20.9542H23.3334C23.2909 20.9542 23.2484 20.9542 23.1634 20.9542C23.0784 20.9542 23.0359 20.9117 22.9934 20.8692C22.9509 20.8692 22.9084 20.7842 22.8659 20.6992L22.7809 20.2317L22.4409 20.6992C22.3134 20.8267 22.1859 20.9542 21.9734 20.9542H21.5059L21.6334 20.5717H21.8034C21.8459 20.5717 21.8884 20.5717 21.9309 20.5292C21.9734 20.5292 21.9734 20.4867 22.0159 20.4442L22.4834 19.7217Z" fill="white"/>
<path d="M15.5134 18.6992H17.2134L17.0859 19.0817H16.4059L16.3209 19.4217H17.0009L16.8734 19.8467H16.1509L15.9809 20.3992C15.9809 20.4417 16.1509 20.4842 16.1934 20.4842L16.5334 20.4417L16.4059 20.9092H15.6409C15.5984 20.9092 15.5134 20.9092 15.4709 20.8667C15.3859 20.8667 15.3859 20.8242 15.3434 20.7817C15.3009 20.7392 15.2584 20.6967 15.3009 20.6117L15.5134 19.8892H15.1309L15.2584 19.4642H15.6409L15.7259 19.1242H15.3434L15.5134 18.6992Z" fill="white"/>
<path d="M16.6177 17.9777H17.2977L17.1702 18.4027H16.2352L16.1502 18.4877C16.1077 18.5302 16.1077 18.5302 16.0227 18.5302C15.9802 18.5727 15.8527 18.6152 15.7252 18.6152H15.4277L15.5552 18.1902H15.6402C15.7252 18.1902 15.7677 18.1902 15.8102 18.1477C15.8527 18.1477 15.8527 18.1052 15.8952 18.0202L16.0652 17.7227H16.7452L16.6177 17.9777Z" fill="white"/>
<path fill-rule="evenodd" clip-rule="evenodd" d="M17.978 18.6581C17.978 18.6581 18.148 18.4881 18.488 18.4456C18.573 18.4456 19.0405 18.4456 19.0405 18.4456L19.1255 18.2331H18.148L17.978 18.6581ZM18.8705 18.8281H17.893L17.8505 19.0406H18.7005C18.7855 19.0406 18.828 19.0406 18.828 19.0406L18.8705 18.8281ZM17.638 17.7656H18.233L18.148 18.0631C18.148 18.0631 18.318 17.8931 18.4455 17.8506C18.573 17.8081 18.8705 17.7656 18.8705 17.7656H19.8055L19.4655 18.8706C19.423 19.0406 19.338 19.1681 19.2955 19.2106C19.253 19.2531 19.2105 19.2956 19.1255 19.3806C19.0405 19.4231 18.9555 19.4656 18.913 19.4656C18.828 19.4656 18.743 19.4656 18.6155 19.4656H17.6805L17.4255 20.3156C17.383 20.4006 17.383 20.4431 17.4255 20.4431C17.4255 20.4431 17.468 20.4856 17.5105 20.4856L17.9355 20.4431L17.808 20.9106H17.3405C17.213 20.9106 17.0855 20.9106 17.0005 20.9106C16.9155 20.9106 16.873 20.9106 16.788 20.8681C16.7455 20.8256 16.6605 20.7831 16.703 20.7406C16.703 20.6981 16.7455 20.6131 16.7455 20.5281L17.638 17.7656Z" fill="white"/>
<path d="M19.3385 19.5078L19.296 19.7628C19.2535 19.8478 19.2535 19.8903 19.211 19.9753C19.126 20.0178 19.0835 20.1028 18.9135 20.1028H18.5735V20.4003C18.5735 20.4853 18.5735 20.4853 18.616 20.4853C18.616 20.4853 18.6585 20.4853 18.6585 20.5278H18.7435H19.041L18.9135 20.9528H18.5735C18.3185 20.9528 18.1485 20.9528 18.0635 20.9103C18.021 20.8678 17.9785 20.8253 17.9785 20.7403L18.021 19.5928H18.5735V19.8478H18.701C18.7435 19.8478 18.786 19.8478 18.786 19.8478L18.8285 19.8053L18.871 19.6353H19.3385V19.5078Z" fill="white"/>
<path d="M11.1784 13.73C11.1784 13.815 10.7959 15.515 10.7959 15.515C10.7109 15.855 10.6684 16.11 10.4559 16.28C10.3284 16.365 10.2009 16.4075 10.0734 16.4075C9.81836 16.4075 9.69086 16.28 9.64836 16.0675V15.9825L9.73336 15.515C9.73336 15.515 10.1159 13.985 10.2009 13.7725C10.2009 13.7725 10.2009 13.7725 10.2009 13.73C9.43586 13.73 9.30836 13.73 9.30836 13.73L9.26586 13.8575L8.88336 15.6L8.84086 15.7275L8.75586 16.195C8.75586 16.3225 8.79836 16.45 8.84086 16.535C9.01086 16.8325 9.52086 16.9175 9.81836 16.9175C10.2009 16.9175 10.5409 16.8325 10.7959 16.705C11.2209 16.45 11.3059 16.0675 11.3909 15.7275L11.4334 15.5575C11.4334 15.5575 11.8159 13.9425 11.9009 13.73C11.9009 13.73 11.9009 13.73 11.9009 13.6875C11.3909 13.7725 11.2209 13.7725 11.1784 13.73Z" fill="white"/>
<path d="M13.3445 16.9164C13.0895 16.9164 13.0045 16.9164 12.6645 16.9164C12.707 16.7889 12.707 16.6614 12.7495 16.5764L12.792 16.4064C12.8345 16.1514 12.9195 15.8539 12.9195 15.7689C12.9195 15.7264 12.962 15.5989 12.792 15.5989C12.707 15.5989 12.6645 15.6414 12.5795 15.6414C12.537 15.7689 12.452 16.1514 12.4095 16.3214C12.3245 16.7039 12.3245 16.7464 12.282 16.9164H12.3245C12.0695 16.9164 11.942 16.9164 11.6445 16.9164V16.8739C11.687 16.6614 11.7295 16.4489 11.8145 16.2364C11.942 15.6414 11.9845 15.4289 12.027 15.1314H12.0695C12.367 15.0889 12.452 15.0889 12.792 15.0039L12.8345 15.0464L12.792 15.2164C12.8345 15.1739 12.9195 15.1314 12.962 15.1314C13.132 15.0464 13.302 15.0464 13.387 15.0464C13.5145 15.0464 13.6845 15.0889 13.7695 15.2589C13.8545 15.4289 13.812 15.5989 13.727 15.9814L13.557 16.1514C13.472 16.5339 13.4295 16.6189 13.3445 16.9164Z" fill="white"/>
<path d="M14.451 16.9177C14.281 16.9177 14.196 16.9177 14.0685 16.9177C13.9835 16.9177 13.856 16.9177 13.7285 16.9177C13.771 16.7477 13.771 16.7052 13.8135 16.6627C13.8135 16.6202 13.856 16.5352 13.8985 16.4077C13.941 16.1952 13.9835 16.0677 13.9835 15.9402C13.9835 15.8127 14.026 15.7277 14.026 15.6002C14.196 15.5577 14.281 15.5577 14.4085 15.5577C14.4935 15.5577 14.621 15.5152 14.791 15.4727C14.7485 15.6002 14.7485 15.7277 14.706 15.8552C14.6635 15.9827 14.6635 16.1102 14.621 16.2377C14.5785 16.4927 14.536 16.6202 14.536 16.6627C14.4935 16.7477 14.4935 16.7902 14.451 16.9177Z" fill="white"/>
<path d="M16.1505 15.9819C16.1505 16.0669 16.0655 16.3219 15.9805 16.4069C15.938 16.4919 15.853 16.5344 15.768 16.5344C15.768 16.5344 15.598 16.5344 15.598 16.3219C15.598 16.2369 15.598 16.1094 15.6405 16.0244C15.7255 15.7269 15.8105 15.4719 16.023 15.4719C16.193 15.4719 16.2355 15.6844 16.1505 15.9819ZM16.8305 16.0244C16.9155 15.5994 16.873 15.4294 16.7455 15.3019C16.618 15.1319 16.363 15.0469 16.108 15.0469C15.938 15.0469 15.598 15.0469 15.3005 15.3444C15.088 15.5144 15.003 15.7694 14.9605 16.0244C14.918 16.2794 14.833 16.7469 15.258 16.8744C15.3855 16.9169 15.5555 16.9594 15.683 16.9594C15.9805 16.9594 16.3205 16.8744 16.533 16.6194C16.7455 16.4494 16.8305 16.1519 16.8305 16.0244Z" fill="white"/>
<path d="M23.3748 16.9594C23.0348 16.9594 22.9498 16.9594 22.6523 16.9594V16.9169C22.7373 16.6194 22.8223 16.3219 22.8648 15.9819C22.9498 15.5994 22.9923 15.4294 22.9923 15.1744H23.0348C23.3748 15.1319 23.4598 15.1319 23.7573 15.0469V15.0894C23.7148 15.3444 23.6298 15.5994 23.5873 15.8544C23.5023 16.4069 23.4598 16.6619 23.3748 16.9594Z" fill="white"/>
<path d="M22.8649 16.0236C22.8649 16.1086 22.7799 16.3636 22.6949 16.4486C22.6524 16.5336 22.5249 16.5761 22.4824 16.5761C22.4824 16.5761 22.3124 16.5761 22.3124 16.3636C22.3124 16.2786 22.3124 16.1511 22.3549 16.0661C22.4399 15.7686 22.5249 15.5136 22.7374 15.5136C22.8649 15.5136 22.9499 15.7261 22.8649 16.0236ZM23.5024 16.0661C23.5874 15.6411 23.2049 16.0236 23.1624 15.8961C23.0774 15.6836 23.1199 15.2586 22.7374 15.1311C22.6099 15.0886 22.2699 15.1311 21.9724 15.4286C21.7599 15.5986 21.6749 15.8536 21.6324 16.1086C21.5899 16.3636 21.5049 16.7886 21.9299 16.9586C22.0574 17.0011 22.1849 17.0436 22.3124 17.0436C22.7374 17.0436 23.0349 16.4061 23.2899 16.1511C23.4599 15.8961 23.5024 16.1511 23.5024 16.0661Z" fill="white"/>
<path d="M18.658 16.9169C18.403 16.9169 18.318 16.9169 17.978 16.9169C18.0205 16.7894 18.0205 16.6619 18.063 16.5769L18.1055 16.4069C18.148 16.1519 18.233 15.8544 18.233 15.7694C18.233 15.7269 18.2755 15.5994 18.1055 15.5994C18.0205 15.5994 17.978 15.6419 17.893 15.6419C17.8505 15.7694 17.7655 16.1519 17.723 16.3219C17.638 16.7044 17.638 16.7469 17.5955 16.9169L17.553 16.9594C17.298 16.9594 17.1705 16.9594 16.873 16.9594V16.9169C16.9155 16.7044 16.958 16.4919 17.043 16.2794C17.1705 15.6844 17.213 15.4719 17.2555 15.1744H17.298C17.5955 15.1319 17.6805 15.1319 18.0205 15.0469L18.063 15.0894L18.0205 15.2594C18.063 15.2169 18.148 15.1744 18.1905 15.1744C18.3605 15.0894 18.5305 15.0894 18.6155 15.0894C18.743 15.0894 18.913 15.1319 18.998 15.3019C19.0405 15.4719 18.998 15.6419 18.9555 16.0244L18.828 16.1519C18.743 16.5344 18.743 16.6194 18.658 16.9169Z" fill="white"/>
<path d="M20.995 13.7305H20.7825C20.1875 13.7305 19.975 13.7305 19.89 13.7305C19.89 13.773 19.8475 13.858 19.8475 13.858L19.635 14.8355C19.635 14.8355 19.125 16.8755 19.125 16.9605C19.635 16.9605 19.8475 16.9605 19.9325 16.9605C19.9325 16.8755 20.06 16.2805 20.06 16.2805C20.06 16.2805 20.145 15.8555 20.1875 15.8555L20.23 15.813H20.2725C20.6975 15.813 21.2075 15.813 21.59 15.5155C21.845 15.303 22.015 15.048 22.1 14.708C22.1 14.623 22.1425 14.538 22.1425 14.4105C22.1425 14.283 22.1 14.1555 22.0575 14.028C21.8025 13.7305 21.42 13.7305 20.995 13.7305ZM21.25 14.7505C21.2075 14.963 21.08 15.133 20.8675 15.218C20.74 15.303 20.57 15.303 20.4 15.303H20.2725V15.2605L20.485 14.3255V14.283V14.2405H20.57L21.0375 14.283C21.25 14.3255 21.335 14.4955 21.25 14.7505Z" fill="white"/>
<path d="M26.0108 15.0889C25.6708 15.1314 25.5858 15.1314 25.2883 15.1739H25.2458C25.0333 15.6839 25.0333 15.5989 24.8633 15.9814V15.9389L24.8208 15.0464L24.7783 15.0039C24.4383 15.0889 24.4383 15.0889 24.0983 15.1314H24.0558V15.1739C24.0983 15.3864 24.0983 15.3439 24.1408 15.6414C24.1408 15.8114 24.1833 15.9389 24.1833 16.1089C24.2258 16.3639 24.2258 16.4914 24.2683 16.8739C24.0558 17.2139 24.0133 17.3839 23.8008 17.6814V17.7239C24.0983 17.7239 24.1833 17.7239 24.3958 17.7239L24.4383 17.6814C24.6933 17.3414 26.0108 15.0889 26.0108 15.0889Z" fill="white"/>
<path d="M14.7481 15.2999C14.9181 15.1724 14.9606 15.0024 14.7906 14.9174C14.6206 14.8324 14.3656 14.8749 14.1956 14.9599C14.0256 15.0874 13.9831 15.2574 14.1531 15.3424C14.2806 15.4274 14.5781 15.4274 14.7481 15.2999Z" fill="white"/>
<path d="M24.4795 17.7656L24.2245 18.1906C24.1395 18.3606 23.9695 18.4456 23.757 18.4456H23.332L23.4595 18.0631H23.5445C23.587 18.0631 23.6295 18.0631 23.6295 18.0631L23.672 18.0206L23.842 17.7656H24.4795Z" fill="white"/>
</svg>
