<svg width="34" height="34" viewBox="0 0 34 34" fill="none" xmlns="http://www.w3.org/2000/svg">
<rect width="34" height="34" fill="white"/>
<path d="M9.30695 22.8678L8.62695 19.3828H9.09445H9.56195L9.98695 22.1453L10.497 19.3828H11.092H11.687L12.2395 22.1028L12.622 19.3828H13.0895H13.557L12.7495 22.8678H12.1545H11.5595L11.0495 20.1478L10.497 22.8253H9.90195H9.30695V22.8678Z" fill="#231F20"/>
<path d="M14.6625 22.9103C14.4075 22.9103 14.195 22.8253 14.025 22.6553C13.855 22.4853 13.8125 22.2728 13.8125 21.9753V21.7628C13.8125 21.3378 13.8975 21.0403 14.11 20.9128C14.3225 20.7428 14.6625 20.6578 15.1725 20.6578H15.47V20.2328C15.47 20.1053 15.4275 20.0203 15.385 19.9353C15.3425 19.8503 15.2575 19.8503 15.1725 19.8503C15.045 19.8503 14.96 19.8928 14.9175 19.9353C14.875 20.0203 14.8325 20.1053 14.8325 20.2328V20.4028H13.8975V20.3178C13.8975 19.9778 13.9825 19.7228 14.195 19.5953C14.4075 19.4253 14.705 19.3828 15.13 19.3828C15.555 19.3828 15.8525 19.4678 16.065 19.6378C16.2775 19.8078 16.3625 20.0628 16.3625 20.4453V22.9103H15.47V22.6128L15.4275 22.6553C15.2575 22.8253 15.0025 22.9103 14.6625 22.9103ZM15.47 21.2103H15.3425C15.13 21.2103 14.96 21.2528 14.875 21.3378C14.79 21.4228 14.7475 21.5928 14.7475 21.8053V22.0178C14.7475 22.1453 14.79 22.2303 14.8325 22.2728C14.875 22.3153 14.96 22.3578 15.045 22.3578C15.1725 22.3578 15.2575 22.3153 15.3425 22.1878C15.4275 22.0603 15.4275 21.8903 15.4275 21.6778V21.2103H15.47Z" fill="#231F20"/>
<path d="M17.1699 17.8516H17.6374H18.1049V22.8241H17.6374H17.1699V17.8516Z" fill="#231F20"/>
<path d="M18.9121 17.8516H19.3796H19.8471V22.8241H19.3796H18.9121V17.8516Z" fill="#231F20"/>
<path d="M21.6739 22.9098C21.2489 22.9098 20.9514 22.8248 20.7389 22.6123C20.5689 22.3998 20.4414 22.0598 20.4414 21.5923V20.9123C20.4414 20.3173 20.5264 19.9348 20.7389 19.6798C20.9514 19.4248 21.2489 19.3398 21.7164 19.3398C22.2264 19.3398 22.5664 19.4248 22.7364 19.6373C22.9064 19.8498 22.9914 20.2323 22.9914 20.7848V21.2948H21.3339V21.3798C21.3339 21.7623 21.3764 22.0598 21.4189 22.1873C21.4614 22.3148 21.5464 22.3998 21.7164 22.3998C21.8439 22.3998 21.9714 22.3573 22.0139 22.2723C22.0564 22.1873 22.0989 22.0173 22.0989 21.8048V21.6773H22.9914V21.7623C22.9914 22.1448 22.9064 22.4423 22.6514 22.6123C22.4814 22.8248 22.1414 22.9098 21.6739 22.9098ZM22.1414 20.7423V20.5298C22.1414 20.2748 22.0989 20.0623 22.0564 19.9773C22.0139 19.8923 21.8864 19.8498 21.7589 19.8498C21.6314 19.8498 21.5039 19.8923 21.4614 20.0198C21.4189 20.1473 21.3764 20.3598 21.3764 20.6998V20.7423H22.1414Z" fill="#231F20"/>
<path d="M25.4145 22.8653C25.2445 22.9078 25.032 22.9078 24.8195 22.9078C24.522 22.9078 24.3095 22.8228 24.182 22.6528C24.0545 22.4828 23.9695 22.2278 23.9695 21.8878V19.9753H23.502V19.3803H23.9695V18.8278L24.9045 18.4453V19.3803H25.457V19.9753H24.9045V21.8878C24.9045 22.0578 24.9045 22.1853 24.947 22.2278C24.9895 22.2703 25.0745 22.3128 25.1595 22.3128C25.2445 22.3128 25.372 22.3128 25.457 22.2703V22.8653H25.4145Z" fill="#231F20"/>
<path d="M14.7052 25.5841C14.7052 26.2641 14.1527 26.8166 13.4727 26.8166C12.7927 26.8166 12.2402 26.2641 12.2402 25.5841C12.2402 24.9041 12.7927 24.3516 13.4727 24.3516C14.1527 24.3516 14.7052 24.9041 14.7052 25.5841Z" fill="#EC1C24"/>
<path d="M13.1332 24.9053L13.3882 24.8203C13.3882 24.8203 12.9632 25.7128 13.1332 26.7753C13.0907 26.7753 12.9207 26.6903 12.7082 26.5628C12.7082 26.4778 12.6232 26.0953 12.8357 25.4578C12.7932 25.4578 12.7082 25.5003 12.7082 25.5003C12.7507 25.4153 12.8782 25.1603 12.8782 25.1603L13.1332 24.9053Z" fill="white"/>
<path d="M25.1611 26.1367H15.6836V26.1792H25.1611V26.1367Z" fill="#EC1C24"/>
<path d="M22.9922 26.7345C23.0347 26.7345 23.0347 26.692 23.0347 26.692V26.437V26.3945C23.0347 26.3945 23.0347 26.3945 22.9922 26.3945H23.1197H23.0772C23.0772 26.3945 23.0772 26.3945 23.0772 26.437V26.7345C23.0772 26.7345 23.0772 26.7345 23.1197 26.7345C23.1622 26.7345 23.2047 26.7345 23.2047 26.7345C23.2047 26.7345 23.2472 26.692 23.2472 26.6495L23.2047 26.7345H22.9922Z" fill="#808184"/>
<path d="M23.2891 26.7345C23.3316 26.7345 23.3316 26.7345 23.2891 26.7345C23.3316 26.7345 23.3316 26.692 23.3316 26.692V26.437C23.3316 26.3945 23.3316 26.3945 23.3316 26.3945C23.3316 26.3945 23.3316 26.3945 23.2891 26.3945H23.4591H23.4166C23.4166 26.3945 23.4166 26.3945 23.4166 26.437V26.692C23.4166 26.7345 23.4166 26.7345 23.4166 26.7345C23.4166 26.7345 23.4166 26.7345 23.4591 26.7345H23.2891Z" fill="#808184"/>
<path d="M23.502 26.7341C23.5445 26.6916 23.5445 26.6916 23.5445 26.6491V26.3941V26.3516C23.5445 26.3516 23.5445 26.3516 23.502 26.3516H23.587L23.7145 26.6491L23.842 26.3516H23.927H23.8845C23.8845 26.3516 23.8845 26.3516 23.8845 26.3941V26.6491V26.6916C23.8845 26.6916 23.8845 26.6916 23.927 26.6916H23.7995H23.842V26.6491V26.3941L23.7145 26.7341L23.587 26.4366V26.6491C23.587 26.6916 23.587 26.6916 23.587 26.6916C23.587 26.6916 23.587 26.6916 23.6295 26.6916L23.502 26.7341Z" fill="#808184"/>
<path d="M23.9688 26.7345C24.0113 26.7345 24.0113 26.7345 23.9688 26.7345C24.0113 26.7345 24.0112 26.692 24.0112 26.692V26.437C24.0112 26.3945 24.0112 26.3945 24.0112 26.3945C24.0112 26.3945 24.0113 26.3945 23.9688 26.3945H24.1387H24.0962C24.0962 26.3945 24.0962 26.3945 24.0962 26.437V26.692C24.0962 26.7345 24.0962 26.7345 24.0962 26.7345C24.0962 26.7345 24.0962 26.7345 24.1387 26.7345H23.9688Z" fill="#808184"/>
<path d="M24.1816 26.3516H24.4791V26.4366C24.4791 26.3941 24.4791 26.3941 24.4366 26.3941H24.3941H24.3516V26.6916C24.3516 26.7341 24.3516 26.7341 24.3516 26.7341C24.3516 26.7341 24.3516 26.7341 24.3941 26.7341H24.2241C24.2666 26.7341 24.2666 26.7341 24.2666 26.7341V26.6916V26.3941H24.2241C24.2241 26.3941 24.2241 26.3941 24.1816 26.3516C24.2241 26.3941 24.1816 26.4366 24.1816 26.4366V26.3516Z" fill="#808184"/>
<path d="M24.5215 26.7345C24.564 26.7345 24.564 26.692 24.564 26.692V26.437V26.3945C24.564 26.3945 24.564 26.3945 24.5215 26.3945H24.819V26.4795C24.819 26.437 24.819 26.437 24.819 26.437H24.7765H24.6915V26.5645H24.7765C24.819 26.5645 24.819 26.5645 24.819 26.5645V26.522V26.6495C24.819 26.607 24.819 26.607 24.819 26.607C24.819 26.607 24.819 26.607 24.7765 26.607H24.6915V26.7345H24.734C24.7765 26.7345 24.7765 26.7345 24.819 26.7345L24.8615 26.692L24.819 26.777L24.5215 26.7345Z" fill="#808184"/>
<path d="M24.9478 26.6911V26.3936C24.9478 26.3936 24.9478 26.3936 24.9903 26.3936C25.0328 26.3936 25.0753 26.3936 25.1178 26.4361C25.1603 26.4786 25.1603 26.5211 25.1603 26.5636C25.1603 26.6486 25.1603 26.6911 25.1178 26.6911C25.0328 26.7336 25.0328 26.7336 24.9478 26.6911ZM24.8628 26.7336H24.9903C25.0328 26.7336 25.0753 26.7336 25.0753 26.7336C25.0753 26.7336 25.1178 26.7336 25.1178 26.6911C25.1603 26.6911 25.1603 26.6486 25.1603 26.6061C25.1603 26.5636 25.1603 26.5636 25.1603 26.5211C25.1603 26.4361 25.1178 26.3936 25.0753 26.3511C25.0328 26.3511 24.9903 26.3086 24.9478 26.3086H24.8203H24.8628C24.8628 26.3086 24.8628 26.3086 24.8628 26.3511V26.6061C24.9053 26.6911 24.9053 26.7336 24.8628 26.7336Z" fill="#808184"/>
<path d="M21.718 24.7369H21.888C21.9305 24.7369 21.973 24.7369 22.0155 24.7369C22.058 24.7369 22.058 24.7369 22.1005 24.7794C22.1005 24.7794 22.143 24.8219 22.143 24.8644C22.143 24.9069 22.143 24.9494 22.1005 24.9494C22.1005 24.9919 22.058 24.9919 22.0155 24.9919C21.973 24.9919 21.9305 24.9919 21.8455 24.9919H21.6755L21.718 24.7369ZM21.803 25.7994C21.9305 25.7994 22.0155 25.7994 22.058 25.7569C22.143 25.7144 22.1855 25.6719 22.228 25.6294C22.2705 25.5444 22.2705 25.5019 22.2705 25.4169C22.2705 25.3744 22.2705 25.2894 22.228 25.2469C22.1855 25.2044 22.143 25.1619 22.1005 25.1619C22.1855 25.1194 22.228 25.0769 22.2705 25.0344C22.313 24.9919 22.313 24.9069 22.313 24.8644C22.313 24.8219 22.313 24.7794 22.2705 24.7369C22.2705 24.6944 22.228 24.6519 22.1855 24.6519C22.143 24.6094 22.1005 24.6094 22.058 24.6094C22.0155 24.6094 21.973 24.6094 21.888 24.6094H21.5055L21.293 25.8844H21.803V25.7994ZM21.633 25.2469H21.888C21.9305 25.2469 21.973 25.2469 22.0155 25.2894C22.058 25.3319 22.058 25.3319 22.058 25.3744C22.058 25.4169 22.058 25.4594 22.0155 25.4594C22.0155 25.5019 21.973 25.5019 21.9305 25.5444C21.888 25.5444 21.8455 25.5444 21.7605 25.5444H21.548L21.633 25.2469Z" fill="#808184"/>
<path d="M22.9924 25.3733C22.9924 25.4158 22.9499 25.5008 22.9499 25.5008C22.9499 25.5433 22.9074 25.5433 22.8649 25.5858C22.8224 25.5858 22.8224 25.6283 22.7799 25.6283C22.7374 25.6283 22.7374 25.6283 22.6949 25.5858C22.6949 25.5858 22.6524 25.5433 22.6524 25.5008C22.6524 25.4583 22.6524 25.4158 22.6949 25.4158C22.7374 25.3733 22.7799 25.3733 22.9074 25.3308C22.9499 25.3733 22.9499 25.3733 22.9924 25.3733ZM22.8224 25.0333C22.8649 25.0333 22.8649 24.9908 22.9074 24.9908C22.9499 24.9908 22.9924 24.9908 22.9924 25.0333C22.9924 25.0333 23.0349 25.0758 23.0349 25.1183C23.0349 25.1183 23.0349 25.1608 23.0349 25.2033C22.9924 25.2033 22.9499 25.2458 22.8224 25.2458C22.6949 25.2458 22.6099 25.2883 22.5674 25.3308C22.5249 25.3733 22.4824 25.4583 22.4824 25.5433C22.4824 25.6283 22.5249 25.6708 22.5674 25.7558C22.6099 25.7983 22.6524 25.8408 22.7374 25.8408C22.7799 25.8408 22.8224 25.8408 22.8649 25.7983C22.9074 25.7558 22.9499 25.7558 22.9924 25.7133C22.9924 25.7558 22.9924 25.7983 22.9924 25.7983H23.2049C23.2049 25.7558 23.2049 25.7133 23.2049 25.6708C23.2049 25.6283 23.2049 25.5433 23.2474 25.4583C23.2899 25.3308 23.2899 25.2458 23.2899 25.2033C23.2899 25.1608 23.2899 25.1608 23.2899 25.1183C23.2899 25.0333 23.2474 24.9908 23.2049 24.9483C23.1624 24.9058 23.0774 24.8633 22.9924 24.8633C22.9074 24.8633 22.8224 24.9058 22.7374 24.9483C22.6949 24.9908 22.6524 25.0758 22.6099 25.1183H22.8224C22.7799 25.0758 22.7799 25.0758 22.8224 25.0333Z" fill="#808184"/>
<path d="M23.5035 24.8628H23.716V24.9903C23.7585 24.9478 23.801 24.9053 23.8435 24.8628C23.886 24.8203 23.9285 24.8203 23.971 24.8203C24.056 24.8203 24.0985 24.8628 24.141 24.9053C24.1835 24.9478 24.1835 24.9903 24.1835 25.0753C24.1835 25.1178 24.1835 25.1603 24.141 25.2453L24.056 25.7553H23.8435L23.9285 25.2453C23.9285 25.1603 23.971 25.1178 23.971 25.1178C23.971 25.0753 23.971 25.0753 23.9285 25.0328C23.9285 25.0328 23.886 24.9903 23.8435 24.9903C23.801 24.9903 23.7585 24.9903 23.716 25.0328C23.6735 25.0753 23.631 25.1178 23.631 25.1603C23.631 25.2028 23.5885 25.2878 23.5885 25.3728L23.5035 25.7553H23.291L23.5035 24.8628Z" fill="#808184"/>
<path d="M24.3945 25.7984L24.607 24.5234H24.8195L24.6495 25.2034L24.9045 24.9059H25.1595L24.862 25.2459L25.032 25.8409H24.8195L24.7345 25.4159L24.607 25.5009L24.5645 25.7559H24.3945V25.7984Z" fill="#808184"/>
<path d="M16.2777 24.8625C16.3202 24.82 16.4052 24.7775 16.4902 24.7775C16.5752 24.7775 16.6602 24.82 16.7027 24.8625C16.7452 24.905 16.7452 25.0325 16.7452 25.16C16.7027 25.33 16.6602 25.415 16.6177 25.5C16.5752 25.5425 16.4902 25.585 16.4052 25.585C16.3202 25.585 16.2352 25.5425 16.1927 25.5C16.1502 25.4575 16.1502 25.33 16.1502 25.2025C16.1502 25.0325 16.2352 24.905 16.2777 24.8625ZM15.7252 25.585C15.7677 25.7125 15.8527 25.755 15.9377 25.84C16.0227 25.8825 16.1502 25.925 16.3202 25.925C16.4902 25.925 16.6177 25.8825 16.7452 25.84C16.8727 25.7975 16.9577 25.7125 17.0427 25.585C17.1277 25.5 17.1702 25.33 17.2127 25.16C17.2552 24.9475 17.2127 24.735 17.1277 24.6075C17.0427 24.48 16.8727 24.4375 16.6177 24.4375C16.4052 24.4375 16.1927 24.5225 16.0652 24.65C15.8952 24.7775 15.8102 24.9475 15.7677 25.2025C15.6827 25.33 15.6827 25.4575 15.7252 25.585Z" fill="#808184"/>
<path d="M17.6383 24.4375H18.0208L18.4033 25.2025L18.5308 24.4375H18.9133L18.7008 25.84H18.3183L17.9358 25.075L17.8083 25.84H17.4258L17.6383 24.4375Z" fill="#808184"/>
<path d="M19.338 24.4375H20.3155L20.273 24.735H19.678L19.6355 24.9475H20.188L20.1455 25.245H19.593L19.5505 25.5425H20.188L20.1455 25.8825H19.168L19.338 24.4375Z" fill="#808184"/>
<path d="M9.1793 25.968V26.138H8.9668V24.4805H9.1793V25.033C9.2218 24.9905 9.3068 24.9055 9.3918 24.9055C9.4768 24.863 9.5618 24.863 9.6468 24.863C9.7318 24.863 9.8168 24.863 9.9018 24.9055C9.9868 24.948 10.0293 24.9905 10.1143 25.033C10.1568 25.0755 10.1993 25.1605 10.2418 25.2455C10.2843 25.3305 10.2843 25.4155 10.2843 25.5005C10.2843 25.6705 10.2418 25.8405 10.1143 25.968C9.9868 26.0955 9.8168 26.138 9.6468 26.138C9.5618 26.138 9.4768 26.138 9.4343 26.0955C9.3068 26.053 9.2643 26.0105 9.1793 25.968ZM9.1793 25.5005C9.1793 25.628 9.2218 25.713 9.3068 25.798C9.3918 25.883 9.4768 25.9255 9.6043 25.9255C9.7318 25.9255 9.8168 25.883 9.9018 25.798C9.9868 25.713 10.0293 25.628 10.0293 25.5005C10.0293 25.373 9.9868 25.288 9.9018 25.203C9.8168 25.118 9.7318 25.0755 9.6043 25.0755C9.4768 25.0755 9.3918 25.118 9.3068 25.203C9.2218 25.288 9.1793 25.373 9.1793 25.5005Z" fill="#231F20"/>
<path d="M10.3262 24.8633H10.5812L10.9212 25.7983L11.3037 24.8633H11.5587L10.8787 26.5208H10.6237L10.7937 26.0958L10.3262 24.8633Z" fill="#231F20"/>
<path d="M22.7812 11.4333C22.7812 11.4333 22.5687 10.6258 21.8462 10.6683C21.8462 10.6683 21.3787 10.6258 21.2512 10.8808L20.8262 11.0933V15.8108H22.1012C22.1012 15.8108 22.6537 15.6408 22.7812 15.0458L23.4187 15.6408C23.4187 15.6408 24.1412 16.0658 24.6937 15.4708C24.9062 15.2583 25.0337 14.8758 24.8637 14.4083C24.8637 14.4083 24.7787 14.2383 24.6937 14.1533C24.6087 14.0683 23.7587 13.2183 23.7587 13.2183L24.7362 12.2408C24.7362 12.2408 25.2037 11.6033 24.7787 11.0083C24.5662 10.7958 24.4387 10.6683 24.1412 10.6683C23.8437 10.6258 23.6312 10.6683 23.5037 10.7958C23.3762 10.9233 22.7812 11.4333 22.7812 11.4333Z" fill="#121B21"/>
<path d="M22.355 12.4951V11.5601C22.355 11.5601 22.27 11.0926 21.8025 11.0926C21.8025 11.0926 21.2925 11.1351 21.25 11.6026V15.3851H21.8875C21.8875 15.3851 22.355 15.3001 22.355 14.9601C22.355 14.8751 22.355 13.9826 22.355 13.9826L23.715 15.3426C23.715 15.3426 24.0975 15.5126 24.3525 15.2576C24.395 15.2151 24.6075 14.9601 24.48 14.6201C24.395 14.4926 23.12 13.2176 23.12 13.2176L24.4375 11.8576C24.4375 11.8576 24.65 11.4751 24.31 11.1776C24.225 11.0926 23.885 10.9226 23.5875 11.1776L22.355 12.4951Z" fill="#FFE600"/>
<path d="M13.3027 17.6367C15.6499 17.6367 17.5527 15.7339 17.5527 13.3867C17.5527 11.0395 15.6499 9.13672 13.3027 9.13672C10.9555 9.13672 9.05273 11.0395 9.05273 13.3867C9.05273 15.7339 10.9555 17.6367 13.3027 17.6367Z" fill="#121B21"/>
<path d="M17.1285 13.3875C17.1285 15.5125 15.4285 17.2125 13.3035 17.2125C11.1785 17.2125 9.47852 15.5125 9.47852 13.3875C9.47852 11.2625 11.1785 9.5625 13.3035 9.5625C15.386 9.605 17.1285 11.305 17.1285 13.3875Z" fill="#FFE600"/>
<path d="M12.5385 12.4089C12.5385 12.6639 12.326 12.8764 12.071 12.8764C11.816 12.8764 11.6035 12.6639 11.6035 12.4089C11.6035 12.1539 11.816 11.9414 12.071 11.9414C12.326 11.9414 12.5385 12.1539 12.5385 12.4089Z" fill="#121B21"/>
<path d="M15.0034 12.4089C15.0034 12.6639 14.7909 12.8764 14.5359 12.8764C14.2809 12.8764 14.0684 12.6639 14.0684 12.4089C14.0684 12.1539 14.2809 11.9414 14.5359 11.9414C14.7909 11.9414 15.0034 12.1539 15.0034 12.4089Z" fill="#121B21"/>
<path d="M15.5125 13.3867C15.5125 14.5342 14.535 15.4692 13.345 15.4692C12.155 15.4692 11.1775 14.5342 11.1775 13.3867H10.625C10.625 14.8317 11.815 16.0217 13.3025 16.0217C14.79 16.0217 15.98 14.8317 15.98 13.3867H15.5125Z" fill="#121B21"/>
<path d="M21.2927 12.4947V8.75474C21.2927 8.75474 21.2502 8.20224 20.6552 8.20224C20.4852 8.20224 19.9752 8.24474 19.6352 8.66974L18.8702 7.39474C18.8702 7.39474 18.5302 6.88474 17.9352 7.30974C17.8502 7.39474 17.4252 7.64974 17.3827 8.20224C17.3827 8.20224 17.0852 7.90474 16.6177 8.11724C16.6177 8.11724 15.8102 8.66974 16.1927 9.68974C16.2352 9.85974 16.4052 9.98724 16.5327 10.1572C16.6602 10.3272 17.2977 10.9222 17.2977 10.9222L17.0002 11.2622L16.3627 11.8997C16.3627 11.8997 16.1077 12.1547 16.1077 12.4947C16.1077 12.8347 16.1077 14.7472 16.1077 14.7472L16.5327 14.7047L17.2552 15.4272C17.2552 15.4272 17.5952 15.8097 17.8927 15.8097C18.1902 15.8097 19.4227 15.8097 19.4227 15.8097C19.4227 15.8097 20.3152 15.5547 20.8252 14.8747V15.8097H21.2502V14.0247C21.2927 14.0247 21.5477 13.4297 21.2927 12.4947ZM19.1252 13.7272C19.0402 13.7697 18.9127 13.8972 18.8702 13.8972C18.7852 13.8972 18.4027 13.8972 18.4027 13.8972C18.4027 13.8972 18.3177 13.7272 18.0202 13.7272C18.0202 13.7272 18.1052 13.5572 18.1052 13.4297C18.1052 13.3022 18.1052 12.9622 18.1052 12.9622L18.4877 12.6222C18.4877 12.6222 19.0827 12.4097 19.2952 12.8772C19.2527 12.8772 19.5502 13.3872 19.1252 13.7272Z" fill="#121B21"/>
<path d="M19.9752 10.198L18.5302 7.60547C18.5302 7.60547 18.3177 7.60547 18.1477 7.73297C17.9777 7.86047 17.7227 8.24297 17.8927 8.62547C18.0627 9.05047 18.6152 9.94297 18.7427 10.113H18.6577L17.0427 8.49797C17.0427 8.49797 16.8727 8.41297 16.7877 8.54047C16.6602 8.66797 16.5327 8.88047 16.5327 9.13547C16.5327 9.13547 16.5327 9.47547 16.7027 9.64547C16.8727 9.81547 18.0202 11.0055 18.0202 11.0055C18.0202 11.0055 17.6802 11.0905 17.6377 11.1755C17.5527 11.2605 16.6602 12.1105 16.6602 12.1105C16.6602 12.1105 16.4902 12.2805 16.4902 12.408C16.4902 12.578 16.4902 14.193 16.4902 14.193C16.4902 14.193 17.3827 14.108 17.5952 13.4705V12.663C17.5952 12.663 17.8927 12.323 18.0627 12.1955C18.0627 12.1955 18.4452 11.8555 19.1677 12.1105C19.3377 12.1955 19.9327 12.663 19.7627 13.3855C19.7202 13.513 19.4227 14.108 18.9127 14.1505C18.8277 14.1505 18.2327 14.1505 18.2327 14.1505C18.2327 14.1505 17.9777 13.938 17.6377 13.938C17.5527 13.938 17.0427 14.023 16.8302 14.278L17.7227 15.1705C17.7227 15.1705 17.8502 15.298 18.0202 15.2555C18.1902 15.2555 19.4227 15.2555 19.4227 15.2555C19.4227 15.2555 20.4852 14.958 20.8252 13.938C20.8677 13.8105 21.1652 13.258 20.8677 12.408V8.66797C20.8677 8.66797 20.8252 8.54047 20.6552 8.54047C20.5277 8.54047 19.8902 8.62547 19.8052 9.22047C19.8052 9.34797 19.8052 9.47547 19.8052 9.56047C19.8052 9.81547 19.9752 10.198 19.9752 10.198Z" fill="#FFE600"/>
</svg>
