<svg width="34" height="34" viewBox="0 0 34 34" fill="none" xmlns="http://www.w3.org/2000/svg">
<g clip-path="url(#clip0_4413_67403)">
<rect width="34" height="34" fill="white"/>
<mask id="mask0_4413_67403" style="mask-type:luminance" maskUnits="userSpaceOnUse" x="0" y="9" width="34" height="16">
<path d="M34 9.98828H0V24.0133H34V9.98828Z" fill="white"/>
</mask>
<g mask="url(#mask0_4413_67403)">
<path fill-rule="evenodd" clip-rule="evenodd" d="M26.3918 15.5118C26.3918 15.2568 26.3918 15.0018 26.3918 14.7468C26.3918 14.5768 26.4343 14.5343 26.6043 14.5343C26.6468 14.5343 26.6467 14.5343 26.6892 14.5343H33.6168C33.6593 14.5343 33.7442 14.5343 33.7867 14.5343C33.9142 14.5768 33.9992 14.6193 33.9992 14.7468C33.9992 14.8318 33.9992 14.9168 33.9992 15.0018C33.9992 15.1718 33.9142 15.2568 33.7442 15.2568C33.7017 15.2568 33.6592 15.2568 33.6592 15.2568H29.9617V16.8293C30.0042 16.7868 30.0892 16.7443 30.1317 16.7018C30.5142 16.4043 30.8967 16.0643 31.3217 15.7668C31.5342 15.6393 31.7892 15.5543 32.0017 15.4693C32.0867 15.4268 32.1717 15.4268 32.2142 15.4693C32.6392 15.5968 33.0642 15.7668 33.3192 16.1918C33.4467 16.3618 33.4467 16.4468 33.2342 16.5743C33.1067 16.6593 32.9792 16.8293 32.9367 16.9568C32.7242 17.3393 32.6817 17.7643 32.6392 18.1893C32.5967 18.6568 32.5542 19.0818 32.6817 19.5493C32.7242 19.7193 32.7667 19.8468 32.8517 19.9743C32.9367 20.1443 33.0642 20.1868 33.2767 20.1443C33.5317 20.0593 33.6167 20.1018 33.6592 20.3568C33.7017 20.5693 33.7017 20.7818 33.5317 20.9518C33.3192 21.1218 33.0642 21.1218 32.8092 21.0368C32.5117 20.9518 32.2992 20.7393 32.1717 20.4418C31.9592 20.0168 31.8317 19.5493 31.7892 19.0818C31.7467 18.3593 31.7042 17.6368 31.6192 16.9143C31.5767 16.9568 31.4917 16.9568 31.4492 16.9993C30.7267 17.4668 30.3442 18.1468 30.1742 18.9543C30.1317 19.0818 30.1317 19.1668 30.1317 19.2943C30.1317 19.3368 30.1317 19.3793 30.0892 19.3793C30.0892 19.4218 30.0468 19.4218 30.0043 19.4643C29.9618 19.4643 29.9617 19.5068 29.9192 19.5068C29.8767 19.5068 29.8342 19.5068 29.8342 19.5068C29.5792 19.3793 29.2817 19.2943 29.0267 19.1668C28.9842 19.1668 28.9418 19.1243 28.9418 19.0818C28.8993 19.0393 28.8992 18.9968 28.8992 18.9543C28.8992 17.7643 28.8992 16.5743 28.8992 15.4268V15.2568H27.5817V15.4268C27.5817 17.3393 27.5817 19.2518 27.5817 21.1643C27.5817 21.2068 27.5817 21.2493 27.5817 21.2918C27.5817 21.3343 27.5817 21.3768 27.5392 21.3768C27.5392 21.4193 27.4968 21.4193 27.4543 21.4618C27.4118 21.4618 27.4117 21.4618 27.3692 21.4618C27.3267 21.4618 27.3267 21.4618 27.2842 21.4193C27.0292 21.2918 26.8167 21.1218 26.5617 20.9943C26.5192 20.9943 26.4767 20.9518 26.4767 20.9093C26.4767 20.8668 26.4342 20.8243 26.4342 20.7818C26.4342 19.3793 26.4342 18.0193 26.4342 16.6168C26.4342 16.4893 26.3917 16.4043 26.3492 16.3193C26.1367 15.9368 25.8392 15.6393 25.4567 15.3843C25.3292 15.2993 25.1592 15.2143 24.9892 15.1718C24.8192 15.1293 24.6493 15.1718 24.4793 15.2143C24.3943 15.2568 24.3092 15.2993 24.2242 15.3418C24.1392 15.3843 24.0968 15.4693 24.0543 15.5543C24.0118 15.6393 24.0117 15.7243 24.0117 15.8093C24.0117 15.8943 24.0542 15.9793 24.0967 16.0643C24.2242 16.2343 24.3942 16.2343 24.5217 16.1493C24.8617 16.0643 25.1592 16.0643 25.4142 16.2768C25.7117 16.5318 25.9668 16.8718 25.9668 17.2968C25.9668 18.1468 25.5417 18.7418 24.7342 18.9118C24.1392 19.0393 23.6292 18.9118 23.2467 18.4018C23.1617 18.2743 23.0767 18.1468 23.0767 17.9768C23.0767 17.8068 23.0767 17.6793 23.1617 17.5093C23.2042 17.3818 23.2467 17.2543 23.3317 17.1268C23.3742 17.1693 23.4167 17.2543 23.4592 17.2968C23.6292 17.5943 23.8842 17.6793 24.1817 17.6793C24.4367 17.6793 24.6918 17.5943 24.9043 17.4243C25.1593 17.2118 25.0742 16.8293 24.7767 16.7443C24.6917 16.7018 24.5643 16.7443 24.4793 16.7868C23.9693 16.9993 23.5017 16.9568 23.0767 16.6593C22.5667 16.3193 22.5242 15.5968 22.8642 15.0443C23.1617 14.6193 23.6292 14.4068 24.1392 14.3218C24.8617 14.1943 25.4568 14.4493 25.9668 14.9168C26.0518 15.2143 26.2218 15.3418 26.3918 15.5118Z" fill="#ED1C24"/>
<path fill-rule="evenodd" clip-rule="evenodd" d="M19.5928 18.1477C19.7628 18.2327 19.8902 18.3177 20.0602 18.4027C20.5277 18.7427 20.4853 19.4652 20.0178 19.8477C19.4653 20.2727 18.4877 20.1877 17.9777 19.6352C17.6377 19.2952 17.5103 18.8702 17.4678 18.4027C17.4253 17.9777 17.5102 17.5102 17.7652 17.1277C18.2327 16.4477 18.9127 16.2777 19.6777 16.5752C20.1877 16.7877 20.5278 17.1702 20.8678 17.5527C20.9103 17.5952 20.9102 17.5952 20.9527 17.6802V15.3002C20.8677 15.3002 20.8252 15.3002 20.7402 15.3002H16.8727C16.7877 15.3002 16.7452 15.3002 16.6602 15.3002C16.6177 15.3002 16.6177 15.3002 16.5752 15.3002L16.5327 15.2577L16.4902 15.2152C16.4902 15.2152 16.4902 15.1727 16.4902 15.1302C16.4902 15.0027 16.4902 14.8327 16.4902 14.7052C16.4902 14.6627 16.4902 14.6627 16.4902 14.6202C16.4902 14.5777 16.5327 14.5777 16.5327 14.5777L16.5752 14.5352C16.6177 14.5352 16.6177 14.5352 16.6602 14.5352C16.7027 14.5352 16.7452 14.5352 16.7877 14.5352C18.5727 14.5352 20.4002 14.5352 22.1852 14.5352C22.2702 14.5352 22.3552 14.5352 22.4402 14.5777C22.4827 14.5777 22.5252 14.6202 22.5252 14.6627C22.5252 14.7052 22.5677 14.7477 22.5252 14.7902C22.5252 14.8752 22.5252 14.9602 22.5252 15.0027C22.5252 15.2152 22.4827 15.2577 22.2277 15.3002H22.0152V15.5127C22.0152 17.4252 22.0152 19.3377 22.0152 21.2502C22.0152 21.3352 22.0152 21.3777 21.9727 21.4627C21.9727 21.5052 21.9303 21.5052 21.9303 21.5477C21.9303 21.5477 21.8877 21.5902 21.8452 21.5902C21.8027 21.5902 21.8027 21.5902 21.7602 21.5902C21.7177 21.5902 21.7177 21.5902 21.6752 21.5477C21.4202 21.4202 21.2077 21.2502 20.9527 21.1227C20.9102 21.1227 20.9103 21.0802 20.8678 21.0377C20.8253 20.9952 20.8252 20.9527 20.8252 20.9102C20.8252 20.4852 20.8252 20.0602 20.8252 19.6352C20.7827 18.9127 20.2302 17.8927 19.4227 17.6802C19.2952 17.6377 19.1253 17.5952 18.9553 17.5952C18.5303 17.5952 18.1052 18.0627 18.2327 18.4877C18.2752 18.5727 18.3177 18.6577 18.3602 18.7002C18.4452 18.7852 18.5727 18.8277 18.7002 18.8702C18.8277 18.9127 18.9552 18.9127 19.0827 18.8702C19.3377 18.8277 19.4652 18.6577 19.4652 18.4027L19.5928 18.1477Z" fill="#ED1C24"/>
<path d="M6.20391 16.2776C6.20391 16.2776 5.77885 16.3625 5.82135 16.15C5.82135 16.065 5.86383 16.0651 5.90633 16.0651C5.90633 16.0226 5.82141 15.9375 5.99141 15.895C6.03391 15.8525 6.07633 15.7675 6.11883 15.6825C6.11883 15.64 6.20383 15.555 6.33133 15.5975C6.45883 15.64 6.58635 15.725 6.67135 15.81C6.75635 15.81 6.88391 15.8101 6.84141 15.8526C6.79891 15.8526 6.79887 15.895 6.79887 15.895C6.79887 15.895 6.84139 15.9375 6.71389 15.9375C6.71389 15.98 6.75637 15.98 6.79887 15.98C6.84137 15.98 6.79887 16.0225 6.79887 16.0225C6.79887 16.0225 6.84133 16.1076 6.75633 16.0651C6.67133 16.0226 6.67141 16.0225 6.62891 16.0225C6.58641 16.0225 6.54383 16.0226 6.54383 16.0651C6.54383 16.1076 6.62883 16.15 6.54383 16.15C6.54383 16.15 6.58633 16.1925 6.54383 16.235C6.50133 16.235 6.33135 16.405 6.24635 16.405C6.16135 16.405 6.11887 16.3625 6.16137 16.3625C6.11887 16.3625 6.16141 16.3201 6.20391 16.2776Z" fill="#ED1C24"/>
<path d="M6.1624 16.7028C6.1199 16.7028 5.99242 16.6178 6.07742 16.5753C6.20492 16.4903 6.33238 16.4053 6.45988 16.3203C6.50238 16.3203 6.58736 16.3628 6.54486 16.4478C6.50236 16.5328 6.1624 16.7028 6.1624 16.7028Z" fill="#ED1C24"/>
<path d="M6.58594 16.5343C6.58594 16.4493 6.62848 16.3643 6.62848 16.2793C6.62848 16.2368 6.75596 16.2368 6.71346 16.3643C6.71346 16.5343 6.58594 16.5768 6.58594 16.5343Z" fill="#ED1C24"/>
<path d="M6.79996 16.1947C6.79996 16.1947 7.56492 16.1522 7.60742 16.1947C7.64992 16.2372 7.94746 16.6197 7.86246 17.0022C7.81996 17.3422 7.69242 17.4272 7.18242 17.5122C7.18242 17.3847 7.13994 17.0872 7.09744 17.0022C7.05494 16.9172 6.88496 16.7472 6.79996 16.7472C6.79996 16.8322 6.79996 17.0872 6.79996 17.0872C6.79996 17.0872 6.54492 17.0872 6.54492 17.0447C6.54492 16.9597 6.54492 16.6622 6.54492 16.6622C6.54492 16.6622 6.75746 16.4497 6.79996 16.4072C6.84246 16.4072 6.84244 16.5347 7.09744 16.5347C7.09744 16.5347 6.75746 16.5347 6.79996 16.1947Z" fill="#ED1C24"/>
<path d="M6.5012 16.5352C6.5012 16.5352 6.24622 16.7476 6.20372 16.7901C6.16122 16.8751 6.16116 17.0451 6.45866 17.0451C6.50116 16.9176 6.5012 16.5352 6.5012 16.5352Z" fill="#ED1C24"/>
<path d="M5.90671 16.8727C5.82171 16.8727 5.7793 16.8727 5.7793 16.7877C5.7793 16.7452 5.82178 16.7027 5.86428 16.7027C5.90678 16.7027 5.9493 16.6602 5.9918 16.6602C6.0768 16.6602 6.16176 16.7027 6.16176 16.9577C6.24676 17.0427 6.41671 17.1277 6.54421 17.1277C6.71421 17.1277 6.8418 17.1277 6.8418 17.1702V17.5102C6.8418 17.5102 6.62928 17.5102 6.07678 17.1277C6.03428 17.0852 6.03423 17.0852 6.03423 17.0427C6.03423 17.0002 6.03423 16.9577 6.03423 16.9577C5.99173 16.9152 5.94921 16.8727 5.90671 16.8727Z" fill="#ED1C24"/>
<path d="M5.73692 16.875C5.65192 16.875 5.39696 17.0875 5.56696 17.1725C5.60946 17.13 5.65194 17.0875 5.65194 17.045C5.65194 17.045 5.60937 17.1725 5.69437 17.215C5.77937 17.2575 5.73689 17.1725 5.82189 17.1725C5.86439 17.215 5.86437 17.2575 5.90687 17.2575C5.94937 17.2575 5.99187 17.0875 5.90687 17.0025C5.90687 16.96 5.86442 16.9175 5.73692 16.875Z" fill="#ED1C24"/>
<path d="M6.88477 16.9141V17.5941C6.88477 17.5941 7.09731 17.509 7.13981 17.4665C7.13981 17.3815 7.09727 16.9141 6.88477 16.9141Z" fill="#ED1C24"/>
<path d="M6.33203 17.3828C6.45953 17.4678 6.62953 17.5528 6.75703 17.6378C6.71453 17.6803 6.62957 17.8078 6.58707 17.8078C6.54457 17.7653 6.33203 17.5103 6.33203 17.3828Z" fill="#ED1C24"/>
<path d="M5.35344 17.7642H4.6734L4.63086 17.6367H5.3109V17.7642H5.35344Z" fill="#ED1C24"/>
<path d="M7.18148 17.5537C7.22398 17.5112 7.39405 17.6812 7.35155 17.6812C7.30905 17.6812 6.79898 17.8937 6.75648 17.8937C6.71398 17.8937 6.71398 17.7662 6.75648 17.7237C6.79898 17.6812 7.09648 17.6387 7.18148 17.5537Z" fill="#ED1C24"/>
<path d="M6.67188 17.8927C6.62938 17.8502 6.28938 18.1477 6.45938 18.1902C6.62938 18.2327 6.8419 18.2752 7.0119 18.3177C7.0969 18.2752 7.18192 18.2327 7.13942 18.1902C7.18192 18.1902 7.26692 18.2752 7.35192 18.2327C7.52192 18.1477 7.69185 18.0202 7.81935 17.8927C7.73435 17.8077 7.56438 17.7227 7.52188 17.7227C7.43688 17.7227 6.88438 18.0202 6.67188 17.8927Z" fill="#ED1C24"/>
<path d="M6.50248 18.2745C6.54498 18.2745 6.92746 18.4445 7.01246 18.402C7.09746 18.402 7.13992 18.2745 7.18242 18.2745C7.22492 18.2745 7.26748 18.317 7.35248 18.2745C7.43748 18.1895 7.56496 18.1045 7.64996 18.0195C7.64996 18.062 7.65 18.232 7.2675 18.402C6.885 18.572 6.07744 18.7845 6.03494 18.912C6.11994 18.912 6.16244 18.912 6.24744 18.8695C6.28994 18.912 6.33242 18.9545 6.33242 19.0395C6.33242 19.082 6.37492 19.167 6.33242 19.2095C6.33242 19.3795 6.16246 19.7195 6.16246 19.8045C6.16246 19.8895 6.16246 20.272 6.16246 20.3145C6.16246 20.357 6.24742 20.5695 6.11992 20.5695C6.03492 20.5695 5.99242 20.5695 5.90742 20.5695C5.86492 20.5695 5.77992 20.6545 5.69492 20.6545C5.60992 20.6545 5.48242 20.612 5.48242 20.5695C5.48242 20.527 5.56748 20.527 5.65248 20.527C5.73748 20.527 5.77992 20.3995 5.90742 20.357C5.90742 20.272 5.86498 19.592 5.86498 19.4645C5.86498 19.337 5.82248 19.0395 5.86498 18.912C6.03498 18.742 6.33248 18.2745 6.50248 18.2745Z" fill="#ED1C24"/>
<path d="M7.01172 18.6573C7.01172 18.6998 7.26674 19.2948 7.35174 19.3373C7.47924 19.3373 8.45668 19.1248 8.66918 19.2098C8.71168 19.2948 8.83924 19.4223 8.83924 19.5073C8.83924 19.5923 8.83924 19.6348 8.83924 19.7198C8.88174 19.7198 8.88172 19.7198 8.92422 19.7198C8.96672 19.7198 8.96676 19.6773 8.96676 19.6773C8.96676 19.6348 8.96676 19.3373 8.96676 19.2948C8.96676 19.2523 9.09422 18.9973 8.92422 18.9973C8.75422 18.9973 8.2867 18.9973 8.1592 18.9548C7.9892 18.9123 7.64924 18.8698 7.56424 18.9123C7.47924 18.9548 7.43668 19.0398 7.39418 19.1248C7.35168 19.1248 7.35168 19.0823 7.39418 18.9973C7.43668 18.9123 7.5642 18.5723 7.5217 18.4023C7.4367 18.4023 7.01172 18.6573 7.01172 18.6573Z" fill="#ED1C24"/>
<path d="M6.41711 17.7222C6.41711 17.7647 6.45955 17.8072 6.45955 17.8072L5.65209 17.7647C5.65209 17.7647 5.56705 17.7222 5.60955 17.6797L6.41711 17.7222Z" fill="#ED1C24"/>
<path d="M5.56697 17.6388H6.37443C6.33193 17.5963 6.33195 17.5538 6.28945 17.4688C6.16195 17.4688 5.52443 17.4688 5.52443 17.4688C5.52443 17.4688 5.43945 17.4688 5.43945 17.6388C5.43945 17.6813 5.52447 17.7663 5.56697 17.6388Z" fill="#ED1C24"/>
<path d="M4.46136 17.765H4.63132C4.63132 17.765 4.67382 17.7225 4.63132 17.68C4.58882 17.6375 4.46134 17.595 4.54634 17.4675C4.46134 17.4675 4.33389 17.425 4.37639 17.68H4.29141C4.29141 17.6375 4.24882 17.595 4.20632 17.5525C4.16382 17.51 4.12141 17.51 4.07891 17.51C3.90891 17.51 3.44141 17.68 3.44141 17.68C3.44141 17.68 3.95141 17.8075 4.07891 17.8075C4.12141 17.8075 4.16382 17.8075 4.20632 17.765C4.24882 17.7225 4.29141 17.7225 4.29141 17.68H4.33384C4.33384 17.7225 4.37639 17.765 4.37639 17.8075C4.37639 17.8925 4.37639 17.9775 4.37639 17.9775C4.33389 17.9775 4.33384 18.02 4.33384 18.02C4.33384 18.02 4.33384 18.0625 4.33384 18.105C4.33384 18.19 4.37632 18.19 4.41882 18.19C4.41882 18.19 4.46141 18.1475 4.50391 18.1475C4.50391 18.105 4.50391 18.105 4.50391 18.0625C4.50391 18.02 4.46136 18.02 4.46136 17.9775C4.46136 17.935 4.46136 17.85 4.46136 17.85C4.46136 17.85 4.54641 17.8075 4.50391 17.765C4.50391 17.8075 4.46136 17.8075 4.46136 17.765Z" fill="#ED1C24"/>
<path d="M5.73724 18.5731C5.77974 18.5306 5.82222 18.4881 5.82222 18.4456C5.82222 18.4456 5.82222 18.0631 5.82222 17.9781C5.82222 17.8506 5.60972 17.7656 5.60972 17.7656C5.56722 17.8081 5.5247 17.8081 5.4822 17.8081C5.4397 17.8081 5.43972 17.8081 5.39722 17.8081C5.35472 17.8081 5.35478 17.7656 5.35478 17.7656C5.18478 17.7656 5.09974 17.9781 5.09974 17.9781C5.09974 18.1056 5.09974 18.2756 5.09974 18.4031C5.09974 18.4456 5.14222 18.4881 5.18472 18.5306C5.14222 18.6581 4.97226 19.2956 5.22726 19.3381V19.4656H5.77978V19.3381C5.94978 19.2531 5.77974 18.7006 5.73724 18.5731ZM5.14228 17.9781C5.14228 17.9356 5.22728 17.8081 5.35478 17.8081C5.35478 17.8506 5.39726 17.8506 5.43976 17.8506C5.48226 17.8506 5.48224 17.8506 5.52474 17.8506C5.56724 17.8506 5.60976 17.8081 5.65226 17.8081C5.69476 17.8506 5.82222 17.8931 5.82222 17.9781C5.82222 18.0631 5.82222 18.4031 5.82222 18.4456C5.82222 18.4881 5.77978 18.4881 5.77978 18.5306H5.65226V18.3181H5.2697V18.5306H5.18472C5.14222 18.4881 5.14224 18.4456 5.09974 18.4031C5.14224 18.2756 5.14228 18.1056 5.14228 17.9781ZM5.52474 19.2531H5.43976C5.43976 19.2531 5.43972 19.2531 5.39722 19.2531C5.39722 19.2531 5.39722 19.2531 5.39722 19.2106C5.39722 19.1681 5.39722 19.2106 5.39722 19.1681C5.39722 19.1681 5.39726 19.1681 5.43976 19.1681H5.52474C5.52474 19.1681 5.52478 19.1681 5.56728 19.1681C5.52478 19.2106 5.52474 19.2106 5.52474 19.2531ZM5.6947 19.2956L5.43976 18.9981L5.18472 19.2956C5.01472 19.2531 5.14222 18.7431 5.18472 18.5306H5.6947C5.7797 18.7431 5.8647 19.2106 5.6947 19.2956Z" fill="#ED1C24"/>
<path d="M5.65209 18.7442C5.65209 18.7017 5.69453 18.7017 5.69453 18.6592C5.69453 18.6167 5.69459 18.6167 5.65209 18.5742H5.35461C5.26961 18.5742 5.26953 18.7017 5.26953 18.7017L5.48203 18.8717C5.52453 18.8717 5.56709 18.8292 5.65209 18.7442Z" fill="#ED1C24"/>
<path d="M5.52344 18.9556L5.6934 19.1681C5.6934 19.1681 5.69346 18.9131 5.65096 18.8281C5.60846 18.8281 5.52344 18.9556 5.52344 18.9556Z" fill="#ED1C24"/>
<path d="M5.22614 18.8281C5.22614 18.9131 5.18359 19.1681 5.18359 19.1681L5.35366 18.9556C5.39616 18.9556 5.26864 18.8281 5.22614 18.8281Z" fill="#ED1C24"/>
<path d="M5.60998 18.2339C5.65248 18.1914 5.65252 18.1914 5.65252 18.1914C5.65252 18.1914 5.65248 18.1914 5.60998 18.1914H5.3125V18.2339H5.60998Z" fill="#ED1C24"/>
<path d="M5.18502 19.5073C5.14252 19.5498 5.14258 19.5498 5.14258 19.5498C5.14258 19.5498 5.14252 19.5498 5.18502 19.5498H5.73754C5.73754 19.5498 5.73758 19.5498 5.78008 19.5498C5.78008 19.5498 5.78008 19.5498 5.78008 19.5073V19.4648H5.18502V19.5073Z" fill="#ED1C24"/>
<path d="M7.47852 17.5547L7.73345 17.7672H9.00845V17.5547H7.47852Z" fill="#ED1C24"/>
<path d="M14.619 13.8988L12.919 16.6188C12.919 16.6188 9.64656 13.0488 5.22656 15.4713C5.22656 15.4713 8.7965 9.86126 14.619 13.8988Z" fill="white"/>
<path d="M14.535 13.3024L12.835 16.0223C12.835 16.0223 9.56258 12.4524 5.14258 14.8749C5.14258 14.9174 8.71252 9.26488 14.535 13.3024Z" fill="#F7941D"/>
<path d="M11.2201 10.4143L11.3476 13.6018C11.3476 13.6018 6.63014 12.4968 4.37764 17.0018C4.37764 17.0443 4.16508 10.3718 11.2201 10.4143Z" fill="white"/>
<path d="M10.8374 9.98848L10.9649 13.176C10.9649 13.176 6.24733 12.071 3.99483 16.576C3.99483 16.6185 3.78237 9.94598 10.8374 9.98848Z" fill="#ED1C24"/>
<path d="M7.77689 12.1562L6.62941 10.0312C6.62941 10.0312 1.61441 12.4538 3.86691 17.8088C3.86691 17.8088 3.65439 13.6862 7.77689 12.1562Z" fill="white"/>
<path d="M7.31009 12.1562L6.16261 10.0312C6.16261 10.0312 1.14761 12.4538 3.40011 17.8088C3.40011 17.8088 3.18759 13.6862 7.31009 12.1562Z" fill="#F7941D"/>
<path d="M9.13622 15.0442C9.13622 15.0442 10.9638 15.0017 12.7913 16.3617C12.7913 16.3617 13.5562 20.1442 9.09368 22.3117C9.09368 22.3117 5.73618 23.9692 2.50618 21.0367C2.50618 21.0367 -1.57382 16.9142 2.93117 12.3242C2.93117 12.3242 0.848717 16.1492 3.82372 20.0167C3.82372 20.0167 4.84368 21.2492 6.75618 21.1217C6.75618 21.1217 8.88118 20.9942 9.73118 19.1242C9.73118 19.1242 10.9212 16.8292 9.13622 15.0442Z" fill="#F7941D"/>
<path d="M12.6644 16.1086C12.6644 16.1086 13.0893 17.5961 12.0693 19.6361C12.0693 19.6361 11.0494 21.5911 8.75438 22.4836C8.75438 22.4836 3.78182 23.8436 1.78432 19.8061C1.78432 19.8061 -0.680661 15.9386 3.18684 12.2411L3.65438 11.4336C3.65438 11.4336 -1.48816 13.6436 0.424339 19.9336C0.424339 19.9336 2.12436 24.2686 6.92686 23.9711C6.92686 23.9711 13.8118 23.5461 13.2593 16.3211L12.6644 16.1086Z" fill="#ED1C24"/>
</g>
</g>
<defs>
<clipPath id="clip0_4413_67403">
<rect width="34" height="34" fill="white"/>
</clipPath>
</defs>
</svg>
