<svg width="34" height="34" viewBox="0 0 34 34" fill="none" xmlns="http://www.w3.org/2000/svg">
<rect width="34" height="34" fill="white"/>
<path d="M21.9297 16.5781L22.6522 20.0206L27.6247 17.5131L21.9297 16.5781Z" fill="#D02053"/>
<path d="M23.3322 11.5195L21.9297 16.6195L27.6247 17.512L23.3322 11.5195Z" fill="#E2126E"/>
<path d="M17.2539 10.7539L23.1614 11.4764L21.7589 16.5339L17.2539 10.7539Z" fill="#D02053"/>
<path d="M17.2109 11.7305H17.8484L19.7184 14.1105L17.2109 11.7305Z" fill="#9D1638"/>
<path d="M27.7952 17.4681L26.0527 15.0881L28.8577 14.5781L27.7952 17.4681Z" fill="#D02053"/>
<path d="M27.497 18.1506L27.667 17.6406L23.332 19.8506L27.497 18.1506Z" fill="#E2126E"/>
<path d="M21.8026 16.7461L22.6951 20.8261L20.0176 22.9936L21.8026 16.7461Z" fill="#9D1638"/>
<path d="M28.5586 15.8111L30.1736 15.7686L29.0261 14.6211L28.5586 15.8111Z" fill="#E2126E"/>
<path d="M3.48438 15.0898C3.56938 15.0898 3.65438 15.0898 3.73938 15.0898C3.82438 15.0898 3.86687 15.0898 3.99437 15.0898V17.6398C4.24937 17.2148 4.54688 16.9173 5.01438 16.9173C5.86438 16.9173 6.20438 17.7248 6.20438 18.4898C6.20438 19.3823 5.73688 20.2748 4.88688 20.2748C4.41938 20.2748 4.16438 19.9773 4.03688 19.8073C3.90938 19.9348 3.78188 20.0623 3.61188 20.2323H3.48438V15.0898ZM3.95188 18.7873C3.95188 19.5098 4.24937 20.0623 4.75938 20.0623C5.43938 20.0623 5.65188 19.1698 5.65188 18.5323C5.65188 17.8098 5.39687 17.2148 4.84438 17.2148C4.16437 17.1723 3.95188 17.9798 3.95188 18.7873Z" fill="#E2126E"/>
<path d="M8.37133 16.7048L7.86133 17.3423C8.32883 18.0223 8.83883 18.7023 9.30633 19.4248L9.77383 20.1898V20.2323C9.64633 20.2323 9.56133 20.2323 9.43383 20.2323C9.30633 20.2323 9.22133 20.2323 9.09383 20.2323C8.96633 19.9773 8.83883 19.7648 8.66883 19.5523L7.39383 17.6398C7.35133 17.5973 7.30883 17.5973 7.30883 17.5973V20.2323C7.22383 20.2323 7.13883 20.2323 7.05383 20.2323C6.96883 20.2323 6.88383 20.2323 6.79883 20.2323V15.0898C6.88383 15.0898 6.96883 15.1323 7.05383 15.1323C7.13883 15.1323 7.22383 15.1323 7.30883 15.0898V17.4273C7.30883 17.4698 7.39383 17.4273 7.43633 17.3848C7.52133 17.2998 7.64883 17.1298 7.73383 17.0023L9.17883 15.0898C9.26383 15.0898 9.34883 15.1323 9.43383 15.1323C9.51883 15.1323 9.56133 15.1323 9.64633 15.0898L8.37133 16.7048Z" fill="#231F20"/>
<path d="M12.2812 19.6375C12.2812 19.8925 12.2813 20.0625 12.6213 19.935V20.105C12.5788 20.1475 12.4937 20.1475 12.4512 20.19C12.1537 20.2325 11.8987 20.19 11.8562 19.8075L11.8137 19.85C11.5587 20.1475 11.3038 20.275 10.9213 20.275C10.4963 20.275 10.1562 19.935 10.1562 19.425C10.1562 18.66 10.7088 18.5325 11.2613 18.4475C11.7288 18.3625 11.8988 18.32 11.8988 17.98C11.8988 17.47 11.6437 17.1725 11.2188 17.1725C10.7937 17.1725 10.5388 17.5125 10.4963 17.64H10.4113V17.2575C10.7088 17.045 11.0063 16.875 11.3463 16.875C11.9838 16.875 12.3238 17.2575 12.3238 18.0225V19.6375H12.2812ZM11.8137 18.5325L11.6012 18.575C11.2187 18.66 10.5812 18.745 10.5812 19.34C10.5812 19.765 10.7937 19.9775 11.1762 19.9775C11.3462 19.9775 11.5587 19.85 11.6437 19.7225C11.6862 19.68 11.8137 19.5525 11.8137 19.51V18.5325Z" fill="#231F20"/>
<path d="M13.3443 19.5525C13.4718 19.8075 13.7268 20.0625 14.0243 20.0625C14.3218 20.0625 14.6193 19.8075 14.6193 19.425C14.6193 18.49 13.2168 19.085 13.2168 17.895C13.2168 17.2575 13.6418 16.875 14.1943 16.875C14.4918 16.875 14.7468 16.96 14.8743 17.045C14.8318 17.215 14.7893 17.385 14.7468 17.5125H14.7043C14.6193 17.3 14.4068 17.045 14.1943 17.045C13.8968 17.045 13.6418 17.2575 13.6418 17.5975C13.6418 18.49 15.0443 18.0225 15.0443 19.085C15.0443 19.8075 14.4918 20.1475 13.9393 20.1475C13.6843 20.1475 13.3868 20.0625 13.2168 19.935C13.2593 19.765 13.3018 19.595 13.3443 19.425V19.5525Z" fill="#231F20"/>
<path d="M15.8101 15.0898C15.8951 15.0898 15.9801 15.0898 16.0651 15.0898C16.1501 15.0898 16.1926 15.0898 16.3201 15.0898V17.5973C16.5326 17.1723 16.8726 16.9173 17.2551 16.9173C17.9351 16.9173 18.1901 17.3848 18.1901 18.2348V20.2323C18.1051 20.2323 18.0201 20.2323 17.9351 20.2323C17.8501 20.2323 17.7651 20.2323 17.6801 20.2323V18.4048C17.6801 17.6398 17.5101 17.2573 17.0426 17.2573C16.4901 17.2573 16.2776 17.6398 16.2776 18.3623V20.2323C16.1926 20.2323 16.1076 20.2323 16.0226 20.2323C15.9376 20.2323 15.8526 20.2323 15.7676 20.2323V15.0898H15.8101Z" fill="#231F20"/>
</svg>
